<svg xmlns="http://www.w3.org/2000/svg">
<symbol id="clouds" viewBox="0 0 40.02 25.78"><title>clouds</title><path d="M13.65,14.68s0,0,0,0A6.17,6.17,0,0,1,22.26,9a7.34,7.34,0,0,1,4.11-2A7.35,7.35,0,0,0,14,2.59,6.17,6.17,0,0,0,5.39,8.26s0,0,0,0a5.29,5.29,0,0,0,.44,10.55H8.93A5.28,5.28,0,0,1,13.65,14.68Z" fill="none" stroke="#fff" stroke-linecap="round" stroke-linejoin="round" stroke-width="1.1"/><path d="M34.87,16l-.41,0A7.35,7.35,0,0,0,22.26,9a6.17,6.17,0,0,0-8.61,5.67s0,0,0,0a5.29,5.29,0,0,0,.44,10.55H34.87a4.6,4.6,0,0,0,0-9.2Z" fill="#a7d0ef" stroke="#a7d0ef" stroke-linecap="round" stroke-linejoin="round" stroke-width="1.1"/><rect x="23.65" y="17.75" width="0.97" height="0.97" fill="#9bd2fa" stroke="#fff" stroke-linecap="round" stroke-linejoin="round" stroke-width="1.1"/><rect x="18.08" y="17.75" width="0.97" height="0.97" fill="#9bd2fa" stroke="#fff" stroke-linecap="round" stroke-linejoin="round" stroke-width="1.1"/><rect x="29.22" y="17.75" width="0.97" height="0.97" fill="#9bd2fa" stroke="#fff" stroke-linecap="round" stroke-linejoin="round" stroke-width="1.1"/><rect x="8.7" y="11.44" width="0.97" height="0.97" fill="#9bd2fa" stroke="#a7d0ef" stroke-linecap="round" stroke-linejoin="round" stroke-width="1.1"/></symbol>
<symbol id="code" viewBox="0 0 104.21 83.41"><title>code</title><rect x="4.06" y="18.67" width="96.23" height="4" fill="#3ca2d8"/><path d="M97.18,0H7A7,7,0,0,0,0,7V76.45c0,3.84,3.54,7,7.38,7H97.63c1.87,0,3.62-1.32,4.94-2.65a6.64,6.64,0,0,0,1.64-5V7A7,7,0,0,0,97.18,0Zm2.54,78c-.56.57-1.31,1.46-2.12,1.46H7.38a3.36,3.36,0,0,1-3.38-3V7A3,3,0,0,1,7,4H97.18a3,3,0,0,1,3,3V75.83A2.73,2.73,0,0,1,99.72,78Z" fill="#3ca2d8"/><path d="M22.74,50.73,36.85,36.62A2,2,0,0,0,34,33.79L18.5,49.31a2,2,0,0,0,0,2.83L34,67.66a2,2,0,0,0,2.83-2.83Z" fill="#3ca2d8"/><path d="M86.48,49.31,71,33.79a2,2,0,0,0-2.83,2.83L82.24,50.73,68.13,64.84A2,2,0,1,0,71,67.66L86.48,52.14A2,2,0,0,0,86.48,49.31Z" fill="#3ca2d8"/><path d="M45.67,72.47a2,2,0,0,1-1.91-2.59l11.9-38.49a2,2,0,1,1,3.82,1.18L47.58,71.06A2,2,0,0,1,45.67,72.47Z" fill="#3ca2d8"/><circle cx="39.84" cy="11.13" r="3.24" fill="#3ca2d8"/><circle cx="27.67" cy="11.13" r="3.24" fill="#3ca2d8"/><circle cx="15.5" cy="11.13" r="3.24" fill="#3ca2d8"/></symbol>
<symbol id="dummy" viewBox="0 0 40 35"> <path class="icon__primary" d="M20,0.528455285 L0,34.9726416 L12.3920273,34.9726416 L20,21.8701169 L27.6079727,34.9726416 L40,34.9726416 L20,0.528455285"/> </symbol>
<symbol id="mobile" viewBox="0 0 20.12 31.46"><title>mobile</title><path d="M19.57,3.17A2.6,2.6,0,0,0,17,.57L3.19.55a2.6,2.6,0,0,0-2.6,2.6V4.4h19Z" fill="#fff" stroke="#fff" stroke-linecap="round" stroke-linejoin="round" stroke-width="1.1"/><path d="M.55,28.29a2.6,2.6,0,0,0,2.6,2.6l13.78,0a2.6,2.6,0,0,0,2.6-2.59V25.56H.55Z" fill="#fff" stroke="#fff" stroke-linecap="round" stroke-linejoin="round" stroke-width="1.1"/><line x1="7.94" y1="28.13" x2="12.18" y2="28.13" fill="none" stroke="#a7d0ef" stroke-linecap="round" stroke-linejoin="round" stroke-width="1.1"/><path d="M.58,4.4l0,21.14h19l0-21.15ZM15.21,19.26H5.48a2.48,2.48,0,0,1-.21-4.94v0a2.89,2.89,0,0,1,4-2.66A3.44,3.44,0,0,1,15,15h.19a2.15,2.15,0,0,1,0,4.31Z" fill="#a5d2fa" stroke="#fff" stroke-linecap="round" stroke-linejoin="round" stroke-width="1.1"/><path d="M15.21,15H15A3.44,3.44,0,0,0,9.3,11.64a2.89,2.89,0,0,0-4,2.66v0a2.48,2.48,0,0,0,.21,4.94h9.73a2.15,2.15,0,0,0,0-4.31Z" fill="none" stroke="#fff" stroke-linecap="round" stroke-linejoin="round" stroke-width="1.1"/><line x1="17.55" y1="4.41" x2="13.86" y2="8.09" fill="none" stroke="#fff" stroke-linecap="round" stroke-linejoin="round" stroke-width="1.1"/><line x1="14.02" y1="4.41" x2="12.25" y2="6.18" fill="none" stroke="#fff" stroke-linecap="round" stroke-linejoin="round" stroke-width="1.1"/><line x1="2.62" y1="25.56" x2="6.21" y2="21.97" fill="none" stroke="#fff" stroke-linecap="round" stroke-linejoin="round" stroke-width="1.1"/></symbol>
<symbol id="server" viewBox="0 0 22.93 31.62"><title>server</title><rect x="3.01" y="15.9" width="17.01" height="1.55" rx="0.62" ry="0.62" fill="none" stroke="#fff" stroke-linecap="round" stroke-linejoin="round" stroke-width="1.1"/><rect x="3.01" y="7.18" width="17.01" height="1.56" rx="0.62" ry="0.62" fill="none" stroke="#fff" stroke-linecap="round" stroke-linejoin="round" stroke-width="1.1"/><line x1="11.51" y1="24.61" x2="11.51" y2="26.23" fill="none" stroke="#fff" stroke-linecap="round" stroke-linejoin="round" stroke-width="1.1"/><line x1="0.55" y1="28.58" x2="9" y2="28.58" fill="none" stroke="#fff" stroke-linecap="round" stroke-linejoin="round" stroke-width="1.1"/><line x1="13.93" y1="28.58" x2="22.38" y2="28.58" fill="none" stroke="#fff" stroke-linecap="round" stroke-linejoin="round" stroke-width="1.1"/><circle cx="11.51" cy="28.65" r="2.42" fill="none" stroke="#fff" stroke-linecap="round" stroke-linejoin="round" stroke-width="1.1"/><path d="M21.59,17.45H1.43a.49.49,0,0,0-.49.49v6.19a.49.49,0,0,0,.49.49H21.59a.49.49,0,0,0,.49-.49V17.94A.49.49,0,0,0,21.59,17.45Zm-3.37,5a1.39,1.39,0,1,1,1.39-1.39A1.39,1.39,0,0,1,18.22,22.5Z" fill="#a7d0ef"/><path d="M21.59,8.73H1.43a.49.49,0,0,0-.49.49V15.4a.49.49,0,0,0,.49.49H21.59a.49.49,0,0,0,.49-.49V9.21A.49.49,0,0,0,21.59,8.73Zm-3.37,4.93a1.39,1.39,0,1,1,1.39-1.39A1.39,1.39,0,0,1,18.22,13.66Z" fill="#a7d0ef"/><path d="M21.59,0H1.44A.49.49,0,0,0,.95.49V6.67a.49.49,0,0,0,.49.49H21.59a.49.49,0,0,0,.49-.49V.49A.49.49,0,0,0,21.59,0ZM18.22,5a1.39,1.39,0,1,1,1.39-1.39A1.39,1.39,0,0,1,18.22,5Z" fill="#a7d0ef"/><rect x="7.63" y="3.49" width="0.35" height="0.35" transform="translate(15.62 7.34) rotate(180)" fill="#fff" stroke="#fff" stroke-linecap="round" stroke-miterlimit="10" stroke-width="1.1"/><rect x="4.23" y="3.49" width="0.35" height="0.35" transform="translate(8.81 7.34) rotate(180)" fill="#fff" stroke="#fff" stroke-linecap="round" stroke-miterlimit="10" stroke-width="1.1"/><rect x="7.63" y="12.19" width="0.35" height="0.35" transform="translate(15.62 24.73) rotate(180)" fill="#fff" stroke="#fff" stroke-linecap="round" stroke-miterlimit="10" stroke-width="1.1"/><rect x="4.23" y="12.19" width="0.35" height="0.35" transform="translate(8.81 24.73) rotate(180)" fill="#fff" stroke="#fff" stroke-linecap="round" stroke-miterlimit="10" stroke-width="1.1"/><rect x="7.63" y="21.06" width="0.35" height="0.35" transform="translate(15.62 42.47) rotate(180)" fill="#fff" stroke="#fff" stroke-linecap="round" stroke-miterlimit="10" stroke-width="1.1"/><rect x="4.23" y="21.06" width="0.35" height="0.35" transform="translate(8.81 42.47) rotate(180)" fill="#fff" stroke="#fff" stroke-linecap="round" stroke-miterlimit="10" stroke-width="1.1"/></symbol>
<symbol id="tools" viewBox="0 0 30.63 30.63"><title>tools</title><path d="M12.2,13.6l.8-.8v0l1.71,1.71,1.58-1.58L15,11.57h0L9.69,6.31A4.62,4.62,0,0,0,4,.72L6.54,3.29A2.3,2.3,0,1,1,3.29,6.54L.72,4A4.62,4.62,0,0,0,6.31,9.69l5.77,5.77a1.18,1.18,0,0,0,.1-.46Z" fill="#fff" stroke="#fff" stroke-linecap="round" stroke-linejoin="round" stroke-width="1.1"/><path d="M28.6,21.45a5,5,0,0,0-5-1.25l-6.08-6.08L15.93,15.7l1.71,1.71h0l-.8.8-1.41,0a1.18,1.18,0,0,0-.46.1l3,3h0l2.25,2.25a5,5,0,1,0,8.4-2.14Z" fill="#fff" stroke="#fff" stroke-linecap="round" stroke-linejoin="round" stroke-width="1.1"/><circle cx="25.02" cy="25.02" r="2.58" transform="translate(-10.36 25.02) rotate(-45)" fill="#a7d0ef" stroke="#a7d0ef" stroke-linecap="round" stroke-linejoin="round" stroke-width="1.1"/><path d="M15.93,15.7l1.58-1.58,8.55-8.55h0l1-.5a2.82,2.82,0,0,0,1.3-1.27l1.18-2.34-.16-.16L29.11,1,28.94.85,26.61,2a2.82,2.82,0,0,0-1.27,1.3l-.5,1h0L16.29,12.9l-1.58,1.58Z" fill="#a7d0ef" stroke="#a7d0ef" stroke-linecap="round" stroke-linejoin="round" stroke-width="1.1"/><path d="M16.81,18.21l.8-.8h0L15.93,15.7l-1.22-1.22L13,12.77v0l-.8.8,0,1.41a1.21,1.21,0,0,1-1.08,1.18l-1.37.13a.75.75,0,0,0-.46.22L1.85,23.95a.75.75,0,0,0,0,1.07L5.4,28.56a.75.75,0,0,0,1.07,0l7.41-7.42a.75.75,0,0,0,.22-.46l.13-1.37a1.21,1.21,0,0,1,1.18-1.08Z" fill="#a7d0ef" stroke="#a7d0ef" stroke-linecap="round" stroke-linejoin="round" stroke-width="1.1"/><line x1="10.46" y1="18.48" x2="4.15" y2="24.8" fill="none" stroke="#fff" stroke-linecap="round" stroke-linejoin="round" stroke-width="1.1"/><line x1="12.06" y1="20.08" x2="5.74" y2="26.39" fill="none" stroke="#fff" stroke-linecap="round" stroke-linejoin="round" stroke-width="1.1"/></symbol>
</svg>