<svg xmlns="http://www.w3.org/2000/svg">
<symbol id="backup" viewBox="0 0 30.5 31.65"><title>backup</title><path d="M28.4,4.66H16.07A1.55,1.55,0,0,1,15,4.21L11.77,1A1.55,1.55,0,0,0,10.67.55H2.1A1.55,1.55,0,0,0,.55,2.1V22.73A1.55,1.55,0,0,0,2.1,24.27H28.4a1.55,1.55,0,0,0,1.55-1.55V6.21A1.55,1.55,0,0,0,28.4,4.66Z" fill="#fff" stroke="#a7d0ef" stroke-linecap="round" stroke-linejoin="round" stroke-width="1.1"/><line x1="14.96" y1="24.55" x2="14.96" y2="26.51" fill="none" stroke="#a7d0ef" stroke-linecap="round" stroke-linejoin="round" stroke-width="1.1"/><path d="M12.82,28.8" fill="none" stroke="#a7d0ef" stroke-linecap="round" stroke-miterlimit="10" stroke-width="1.1"/><line x1="17.25" y1="28.8" x2="24.35" y2="28.8" fill="none" stroke="#a7d0ef" stroke-linecap="round" stroke-miterlimit="10" stroke-width="1.1"/><line x1="5.53" y1="28.8" x2="12.62" y2="28.8" fill="none" stroke="#a7d0ef" stroke-linecap="round" stroke-miterlimit="10" stroke-width="1.1"/><circle cx="14.96" cy="28.8" r="2.29" fill="none" stroke="#a7d0ef" stroke-linecap="round" stroke-linejoin="round" stroke-width="1.1"/><path d="M28.58,8H1.91A1.36,1.36,0,0,0,.55,9.36V22.73A1.55,1.55,0,0,0,2.1,24.27H28.4a1.55,1.55,0,0,0,1.55-1.55V9.36A1.36,1.36,0,0,0,28.58,8Zm-8,13.1H9.16a2.91,2.91,0,0,1-.24-5.81v0a3.4,3.4,0,0,1,4.74-3.12A4,4,0,0,1,20.37,16h.22a2.53,2.53,0,0,1,0,5.06Z" fill="#9bd2fa" stroke="#a7d0ef" stroke-linecap="round" stroke-linejoin="round" stroke-width="1.1"/><path d="M20.6,16h-.22a4,4,0,0,0-6.72-3.91,3.4,3.4,0,0,0-4.74,3.12v0a2.91,2.91,0,0,0,.24,5.81H20.6a2.53,2.53,0,0,0,0-5.06Z" fill="#fff" stroke="#fff" stroke-linecap="round" stroke-linejoin="round" stroke-width="1.1"/><line x1="27.4" y1="19.2" x2="29.95" y2="19.2" fill="none" stroke="#fff" stroke-linecap="round" stroke-linejoin="round" stroke-width="1.1"/><line x1="25.46" y1="21.3" x2="29.66" y2="21.3" fill="none" stroke="#fff" stroke-linecap="round" stroke-linejoin="round" stroke-width="1.1"/></symbol>
<symbol id="bg-hero" viewBox="0 0 1440 665.31"><title>bg-hero</title><path d="M0,558.52c23.63-2.81,55.76-5.11,101.83-1.07,79.82,7,127.73,30,216.1,58.46,91.48,29.49,137.22,44.23,181.36,48.3,139.19,12.83,260-36.3,322.88-61.87,33.55-13.64,33.21-15.85,67.8-30.51,55.53-23.54,155.18-62.77,284.75-72,60.29-4.31,153.71-3.89,265.29,26.27V1H0Z" transform="translate(0 -1)" fill="#3ba4dc"/><path d="M870.4,491.26c.1-1.61.16-3.23.16-4.87a80.94,80.94,0,0,0-105.23-77.17c0-.28,0-.56,0-.85a100.12,100.12,0,0,0-195-32.09,77.48,77.48,0,0,0-115.94,80.9A77.3,77.3,0,0,0,465.68,611H799.22c7.17-2,13.84-5.37,19.95-7.85,33.55-13.64,33.21-15.75,67.8-30.41q10.88-4.61,24-9.88a61.61,61.61,0,0,0-40.56-71.59Z" transform="translate(0 -1)" fill="#60aee1"/><path d="M277.86,164.51a57.24,57.24,0,0,0-26.63,6.54,54.07,54.07,0,0,0-69.46-23.77A78.79,78.79,0,0,0,29.31,157.78,62.44,62.44,0,0,0,0,155V278.89A63.14,63.14,0,0,0,8.91,280h269a57.74,57.74,0,0,0,0-115.49Z" transform="translate(0 -1)" fill="#60aee1"/><path d="M1440,189.89a89.34,89.34,0,0,0-50.73-15.72,90.24,90.24,0,0,0-17.94,1.8,108.13,108.13,0,0,0-198,50.91A68,68,0,0,0,1072,286v.68A67.48,67.48,0,0,0,1139.37,354h234.94c2.58,0,5.13-.21,7.67-.39,2.41.19,4.83.27,7.29.27A89.44,89.44,0,0,0,1440,338.15Z" transform="translate(0 -1)" fill="#60aee1"/></symbol>
<symbol id="chip" viewBox="0 0 31.22 30.95"><title>chip</title><path d="M27.51,3.33H3.71a.25.25,0,0,0-.25.25v23.8a.25.25,0,0,0,.25.25h23.8a.25.25,0,0,0,.25-.25V3.58A.25.25,0,0,0,27.51,3.33ZM20.23,20.09H11V10.86h9.23Z" fill="#a5d2fa" stroke="#a7d0ef" stroke-linecap="round" stroke-linejoin="round" stroke-width="1.1"/><line x1="3.17" y1="7.23" x2="0.55" y2="7.23" fill="none" stroke="#a7d0ef" stroke-linecap="round" stroke-miterlimit="10" stroke-width="1.1"/><line x1="3.17" y1="10.53" x2="0.55" y2="10.53" fill="none" stroke="#a7d0ef" stroke-linecap="round" stroke-miterlimit="10" stroke-width="1.1"/><line x1="3.17" y1="13.83" x2="0.55" y2="13.83" fill="none" stroke="#a7d0ef" stroke-linecap="round" stroke-miterlimit="10" stroke-width="1.1"/><line x1="3.17" y1="17.13" x2="0.55" y2="17.13" fill="none" stroke="#a7d0ef" stroke-linecap="round" stroke-miterlimit="10" stroke-width="1.1"/><line x1="3.17" y1="20.43" x2="0.55" y2="20.43" fill="none" stroke="#a7d0ef" stroke-linecap="round" stroke-miterlimit="10" stroke-width="1.1"/><line x1="3.17" y1="23.73" x2="0.55" y2="23.73" fill="none" stroke="#a7d0ef" stroke-linecap="round" stroke-miterlimit="10" stroke-width="1.1"/><line x1="30.67" y1="7.23" x2="28.05" y2="7.23" fill="none" stroke="#a7d0ef" stroke-linecap="round" stroke-miterlimit="10" stroke-width="1.1"/><line x1="30.67" y1="10.53" x2="28.05" y2="10.53" fill="none" stroke="#a7d0ef" stroke-linecap="round" stroke-miterlimit="10" stroke-width="1.1"/><line x1="30.67" y1="13.83" x2="28.05" y2="13.83" fill="none" stroke="#a7d0ef" stroke-linecap="round" stroke-miterlimit="10" stroke-width="1.1"/><line x1="30.67" y1="17.13" x2="28.05" y2="17.13" fill="none" stroke="#a7d0ef" stroke-linecap="round" stroke-miterlimit="10" stroke-width="1.1"/><line x1="30.67" y1="20.43" x2="28.05" y2="20.43" fill="none" stroke="#a7d0ef" stroke-linecap="round" stroke-miterlimit="10" stroke-width="1.1"/><line x1="30.67" y1="23.73" x2="28.05" y2="23.73" fill="none" stroke="#a7d0ef" stroke-linecap="round" stroke-miterlimit="10" stroke-width="1.1"/><line x1="23.86" y1="3.15" x2="23.86" y2="0.55" fill="none" stroke="#a7d0ef" stroke-linecap="round" stroke-miterlimit="10" stroke-width="1.1"/><line x1="20.56" y1="3.15" x2="20.56" y2="0.55" fill="none" stroke="#a7d0ef" stroke-linecap="round" stroke-miterlimit="10" stroke-width="1.1"/><line x1="17.26" y1="3.15" x2="17.26" y2="0.55" fill="none" stroke="#a7d0ef" stroke-linecap="round" stroke-miterlimit="10" stroke-width="1.1"/><line x1="13.96" y1="3.15" x2="13.96" y2="0.55" fill="none" stroke="#a7d0ef" stroke-linecap="round" stroke-miterlimit="10" stroke-width="1.1"/><line x1="10.66" y1="3.15" x2="10.66" y2="0.55" fill="none" stroke="#a7d0ef" stroke-linecap="round" stroke-miterlimit="10" stroke-width="1.1"/><line x1="7.36" y1="3.15" x2="7.36" y2="0.55" fill="none" stroke="#a7d0ef" stroke-linecap="round" stroke-miterlimit="10" stroke-width="1.1"/><line x1="23.86" y1="30.4" x2="23.86" y2="27.8" fill="none" stroke="#a7d0ef" stroke-linecap="round" stroke-miterlimit="10" stroke-width="1.1"/><line x1="20.56" y1="30.4" x2="20.56" y2="27.8" fill="none" stroke="#a7d0ef" stroke-linecap="round" stroke-miterlimit="10" stroke-width="1.1"/><line x1="17.26" y1="30.4" x2="17.26" y2="27.8" fill="none" stroke="#a7d0ef" stroke-linecap="round" stroke-miterlimit="10" stroke-width="1.1"/><line x1="13.96" y1="30.4" x2="13.96" y2="27.8" fill="none" stroke="#a7d0ef" stroke-linecap="round" stroke-miterlimit="10" stroke-width="1.1"/><line x1="10.66" y1="30.4" x2="10.66" y2="27.8" fill="none" stroke="#a7d0ef" stroke-linecap="round" stroke-miterlimit="10" stroke-width="1.1"/><line x1="7.36" y1="30.4" x2="7.36" y2="27.8" fill="none" stroke="#a7d0ef" stroke-linecap="round" stroke-miterlimit="10" stroke-width="1.1"/><rect x="13.35" y="13.21" width="4.53" height="4.53" fill="#a5d2fa" stroke="#a7d0ef" stroke-linecap="round" stroke-linejoin="round" stroke-width="1.1"/><rect x="22.28" y="15.31" width="0.32" height="0.32" transform="translate(37.92 -6.97) rotate(90)" fill="#9bd2fa" stroke="#fff" stroke-linecap="round" stroke-miterlimit="10" stroke-width="1.1"/><rect x="22.28" y="12.19" width="0.32" height="0.32" transform="translate(34.8 -10.09) rotate(90)" fill="#9bd2fa" stroke="#fff" stroke-linecap="round" stroke-miterlimit="10" stroke-width="1.1"/><rect x="22.28" y="18.43" width="0.32" height="0.32" transform="translate(41.04 -3.85) rotate(90)" fill="#9bd2fa" stroke="#fff" stroke-linecap="round" stroke-miterlimit="10" stroke-width="1.1"/><rect x="8.61" y="15.31" width="0.32" height="0.32" transform="translate(24.25 6.7) rotate(90)" fill="#9bd2fa" stroke="#fff" stroke-linecap="round" stroke-miterlimit="10" stroke-width="1.1"/><rect x="8.61" y="12.19" width="0.32" height="0.32" transform="translate(21.13 3.58) rotate(90)" fill="#9bd2fa" stroke="#fff" stroke-linecap="round" stroke-miterlimit="10" stroke-width="1.1"/><rect x="8.61" y="18.43" width="0.32" height="0.32" transform="translate(27.37 9.82) rotate(90)" fill="#9bd2fa" stroke="#fff" stroke-linecap="round" stroke-miterlimit="10" stroke-width="1.1"/><rect x="15.45" y="22.15" width="0.32" height="0.32" transform="translate(31.22 44.62) rotate(180)" fill="#9bd2fa" stroke="#fff" stroke-linecap="round" stroke-miterlimit="10" stroke-width="1.1"/><rect x="18.57" y="22.15" width="0.32" height="0.32" transform="translate(37.46 44.62) rotate(180)" fill="#9bd2fa" stroke="#fff" stroke-linecap="round" stroke-miterlimit="10" stroke-width="1.1"/><rect x="12.33" y="22.15" width="0.32" height="0.32" transform="translate(24.98 44.62) rotate(180)" fill="#9bd2fa" stroke="#fff" stroke-linecap="round" stroke-miterlimit="10" stroke-width="1.1"/><rect x="15.45" y="8.48" width="0.32" height="0.32" transform="translate(31.22 17.28) rotate(180)" fill="#9bd2fa" stroke="#fff" stroke-linecap="round" stroke-miterlimit="10" stroke-width="1.1"/><rect x="18.57" y="8.48" width="0.32" height="0.32" transform="translate(37.46 17.28) rotate(180)" fill="#9bd2fa" stroke="#fff" stroke-linecap="round" stroke-miterlimit="10" stroke-width="1.1"/><rect x="12.33" y="8.48" width="0.32" height="0.32" transform="translate(24.98 17.28) rotate(180)" fill="#9bd2fa" stroke="#fff" stroke-linecap="round" stroke-miterlimit="10" stroke-width="1.1"/></symbol>
<symbol id="cloud-access" viewBox="0 0 39.47 25.94"><title>cloud-access</title><path d="M33.66.55H5.81A2.37,2.37,0,0,0,3.44,2.92V23.32H5.29V3.16a.57.57,0,0,1,.57-.57h27.6a.57.57,0,0,1,.57.57V23.32h2V2.92A2.37,2.37,0,0,0,33.66.55Z" fill="#a7d0ef" stroke="#a7d0ef" stroke-linecap="round" stroke-linejoin="round" stroke-width="1.1"/><path d="M33.45,2.59H5.85a.57.57,0,0,0-.57.57V23.32H34V3.16A.57.57,0,0,0,33.45,2.59Z" fill="#fff" stroke="#a7d0ef" stroke-linecap="round" stroke-linejoin="round" stroke-width="1.1"/><path d="M22.68,23.32l-.5.52h-5.5l-.5-.52H.55v.52A1.52,1.52,0,0,0,2,25.39H37.44a1.52,1.52,0,0,0,1.48-1.56v-.52Z" fill="#a5d2fa" stroke="#a7d0ef" stroke-linecap="round" stroke-linejoin="round" stroke-width="1.1"/><path d="M13.58,12.58h.23a4.66,4.66,0,0,1-.13-1.07,4.34,4.34,0,0,1,4.23-4.45,4.11,4.11,0,0,1,2.92,1.23,3.39,3.39,0,0,1,1.4-.3,3.64,3.64,0,0,1,3.55,3.73v0a3.2,3.2,0,0,1-.26,6.38h-12a2.78,2.78,0,0,1,0-5.56Z" fill="#a7d0ef" stroke="#a7d0ef" stroke-linecap="round" stroke-linejoin="round" stroke-width="1.1"/><line x1="14.21" y1="23.32" x2="25.1" y2="23.32" fill="none" stroke="#fff" stroke-linecap="round" stroke-linejoin="round" stroke-width="1.1"/><line x1="29.02" y1="2.59" x2="27.16" y2="4.46" fill="none" stroke="#a7d0ef" stroke-linecap="round" stroke-linejoin="round" stroke-width="1.1"/><line x1="9.78" y1="21.45" x2="7.92" y2="23.32" fill="none" stroke="#a7d0ef" stroke-linecap="round" stroke-linejoin="round" stroke-width="1.1"/><line x1="32.78" y1="2.59" x2="27.75" y2="7.62" fill="none" stroke="#a7d0ef" stroke-linecap="round" stroke-linejoin="round" stroke-width="1.1"/></symbol>
<symbol id="cloud-computing" viewBox="0 0 33.24 30.82"><title>cloud-computing</title><circle cx="15.74" cy="25.93" r="2.11" fill="#fff" stroke="#a7d0ef" stroke-linecap="round" stroke-miterlimit="10" stroke-width="1.1"/><polyline points="15.74 23.81 15.74 21.37 17.38 19.74" fill="none" stroke="#a7d0ef" stroke-linecap="round" stroke-linejoin="round" stroke-width="1.1"/><circle cx="3.23" cy="24.75" r="2.11" fill="#fff" stroke="#a7d0ef" stroke-linecap="round" stroke-miterlimit="10" stroke-width="1.1"/><circle cx="23.24" cy="28.16" r="2.11" fill="#fff" stroke="#a7d0ef" stroke-linecap="round" stroke-miterlimit="10" stroke-width="1.1"/><polyline points="21.04 19.73 21.04 21.41 23.24 23.61 23.24 26.05" fill="none" stroke="#a7d0ef" stroke-linecap="round" stroke-linejoin="round" stroke-width="1.1"/><circle cx="9.29" cy="27.91" r="2.11" fill="#fff" stroke="#a7d0ef" stroke-linecap="round" stroke-miterlimit="10" stroke-width="1.1"/><polyline points="11.55 19.74 11.55 21.16 9.35 23.36 9.35 25.8" fill="none" stroke="#a7d0ef" stroke-linecap="round" stroke-linejoin="round" stroke-width="1.1"/><polyline points="4.61 23.27 6.81 21.07 6.81 19.74" fill="none" stroke="#a7d0ef" stroke-linecap="round" stroke-linejoin="round" stroke-width="1.1"/><circle cx="29.47" cy="25.2" r="2.11" fill="#fff" stroke="#a7d0ef" stroke-linecap="round" stroke-miterlimit="10" stroke-width="1.1"/><polyline points="25.81 19.73 25.81 21.5 28.01 23.7" fill="none" stroke="#a7d0ef" stroke-linecap="round" stroke-linejoin="round" stroke-width="1.1"/><path d="M27.87,10.1l-.43,0A7.7,7.7,0,0,0,14.65,2.68a6.47,6.47,0,0,0-9,5.95s0,0,0,0a5.54,5.54,0,0,0,.47,11.06H27.87a4.82,4.82,0,0,0,0-9.64Z" fill="#a5d2fa" stroke="#a7d0ef" stroke-linecap="round" stroke-linejoin="round" stroke-width="1.1"/><path d="M11.19,11.36A5.92,5.92,0,0,0,4.95,8.78" fill="none" stroke="#a7d0ef" stroke-linecap="round" stroke-linejoin="round" stroke-width="1.1"/><path d="M27.58,7a5.91,5.91,0,0,1-2,5.78" fill="none" stroke="#a7d0ef" stroke-linecap="round" stroke-linejoin="round" stroke-width="1.1"/></symbol>
<symbol id="cloud-security" viewBox="0 0 36.7 29.94"><title>cloud-security</title><path d="M32.11,14.18a13,13,0,0,1-7.73-3.87,13,13,0,0,1-7.73,3.87s-2.51,8.48,7.73,15.21C34.62,22.66,32.11,14.18,32.11,14.18Z" fill="#fff" stroke="#a7d0ef" stroke-linecap="round" stroke-linejoin="round" stroke-width="1.1"/><path d="M25.37,26c5.1-4.49,4.41-9.74,4.41-9.74a11.1,11.1,0,0,1-4.2-2.18" fill="none" stroke="#a7d0ef" stroke-linecap="round" stroke-linejoin="round" stroke-width="1.1"/><path d="M36.15,15.67a6.14,6.14,0,0,0-5.62-6.11s0,0,0-.05a7.17,7.17,0,0,0-10-6.59A8.53,8.53,0,0,0,6.36,11.15l-.47,0a5.34,5.34,0,1,0,0,10.68H17.52a11.93,11.93,0,0,1-.87-7.63,13,13,0,0,0,7.73-3.87,13,13,0,0,0,7.73,3.87,11.89,11.89,0,0,1-.82,7.52,5.29,5.29,0,0,0,3-1.61A6.24,6.24,0,0,0,36.15,15.67Z" fill="#9bd2fa" stroke="#a7d0ef" stroke-linecap="round" stroke-linejoin="round" stroke-width="1.1"/></symbol>
<symbol id="clouds" viewBox="0 0 40.02 25.78"><title>clouds</title><path d="M13.65,14.68s0,0,0,0A6.17,6.17,0,0,1,22.26,9a7.34,7.34,0,0,1,4.11-2A7.35,7.35,0,0,0,14,2.59,6.17,6.17,0,0,0,5.39,8.26s0,0,0,0a5.29,5.29,0,0,0,.44,10.55H8.93A5.28,5.28,0,0,1,13.65,14.68Z" fill="none" stroke="#fff" stroke-linecap="round" stroke-linejoin="round" stroke-width="1.1"/><path d="M34.87,16l-.41,0A7.35,7.35,0,0,0,22.26,9a6.17,6.17,0,0,0-8.61,5.67s0,0,0,0a5.29,5.29,0,0,0,.44,10.55H34.87a4.6,4.6,0,0,0,0-9.2Z" fill="#a7d0ef" stroke="#a7d0ef" stroke-linecap="round" stroke-linejoin="round" stroke-width="1.1"/><rect x="23.65" y="17.75" width="0.97" height="0.97" fill="#9bd2fa" stroke="#fff" stroke-linecap="round" stroke-linejoin="round" stroke-width="1.1"/><rect x="18.08" y="17.75" width="0.97" height="0.97" fill="#9bd2fa" stroke="#fff" stroke-linecap="round" stroke-linejoin="round" stroke-width="1.1"/><rect x="29.22" y="17.75" width="0.97" height="0.97" fill="#9bd2fa" stroke="#fff" stroke-linecap="round" stroke-linejoin="round" stroke-width="1.1"/><rect x="8.7" y="11.44" width="0.97" height="0.97" fill="#9bd2fa" stroke="#a7d0ef" stroke-linecap="round" stroke-linejoin="round" stroke-width="1.1"/></symbol>
<symbol id="code" viewBox="0 0 104.21 83.41"><title>code</title><rect x="4.06" y="18.67" width="96.23" height="4" fill="#3ca2d8"/><path d="M97.18,0H7A7,7,0,0,0,0,7V76.45c0,3.84,3.54,7,7.38,7H97.63c1.87,0,3.62-1.32,4.94-2.65a6.64,6.64,0,0,0,1.64-5V7A7,7,0,0,0,97.18,0Zm2.54,78c-.56.57-1.31,1.46-2.12,1.46H7.38a3.36,3.36,0,0,1-3.38-3V7A3,3,0,0,1,7,4H97.18a3,3,0,0,1,3,3V75.83A2.73,2.73,0,0,1,99.72,78Z" fill="#3ca2d8"/><path d="M22.74,50.73,36.85,36.62A2,2,0,0,0,34,33.79L18.5,49.31a2,2,0,0,0,0,2.83L34,67.66a2,2,0,0,0,2.83-2.83Z" fill="#3ca2d8"/><path d="M86.48,49.31,71,33.79a2,2,0,0,0-2.83,2.83L82.24,50.73,68.13,64.84A2,2,0,1,0,71,67.66L86.48,52.14A2,2,0,0,0,86.48,49.31Z" fill="#3ca2d8"/><path d="M45.67,72.47a2,2,0,0,1-1.91-2.59l11.9-38.49a2,2,0,1,1,3.82,1.18L47.58,71.06A2,2,0,0,1,45.67,72.47Z" fill="#3ca2d8"/><circle cx="39.84" cy="11.13" r="3.24" fill="#3ca2d8"/><circle cx="27.67" cy="11.13" r="3.24" fill="#3ca2d8"/><circle cx="15.5" cy="11.13" r="3.24" fill="#3ca2d8"/></symbol>
<symbol id="connection" viewBox="0 0 37.93 31.14"><title>connection</title><path d="M21.2,17.06c.1,0,.2,0,.3,0a5,5,0,0,1,2,.4,5.92,5.92,0,0,1,4.1-1.65h.06a13.55,13.55,0,0,0,.11-1.65H21.37A25.19,25.19,0,0,1,21.2,17.06Z" fill="none" stroke="#a7d0ef" stroke-linecap="round" stroke-linejoin="round" stroke-width="1.1"/><path d="M6.91,14.14a23.54,23.54,0,0,1,.87-6.46A12.33,12.33,0,0,1,4.17,4.93,13.53,13.53,0,0,0,.55,14.14H6.91Z" fill="none" stroke="#a7d0ef" stroke-linecap="round" stroke-linejoin="round" stroke-width="1.1"/><path d="M7.78,20.6a23.54,23.54,0,0,1-.87-6.46H.55a13.53,13.53,0,0,0,3.62,9.21A12.33,12.33,0,0,1,7.78,20.6Z" fill="none" stroke="#a7d0ef" stroke-linecap="round" stroke-linejoin="round" stroke-width="1.1"/><path d="M20.5,7.69a23.55,23.55,0,0,1,.87,6.46h6.36a13.53,13.53,0,0,0-3.62-9.21A12.33,12.33,0,0,1,20.5,7.69Z" fill="none" stroke="#a7d0ef" stroke-linecap="round" stroke-linejoin="round" stroke-width="1.1"/><path d="M14.14,14.14H6.91a23.54,23.54,0,0,0,.87,6.46,13.9,13.9,0,0,1,6.36-1.53Z" fill="none" stroke="#a7d0ef" stroke-linecap="round" stroke-linejoin="round" stroke-width="1.1"/><path d="M15.5,14.14h5.87a23.55,23.55,0,0,0-.87-6.46,13.9,13.9,0,0,1-6.36,1.53v4.93Z" fill="none" stroke="#a7d0ef" stroke-linecap="round" stroke-linejoin="round" stroke-width="1.1"/><path d="M14.14,9.21A13.89,13.89,0,0,1,7.78,7.69a23.54,23.54,0,0,0-.87,6.46h7.23Z" fill="none" stroke="#a7d0ef" stroke-linecap="round" stroke-linejoin="round" stroke-width="1.1"/><path d="M14.14,14.14v4.93a14.31,14.31,0,0,1,3.11.35,5,5,0,0,1,3.94-2.36,25.19,25.19,0,0,0,.17-2.92H14.14Z" fill="none" stroke="#a7d0ef" stroke-linecap="round" stroke-linejoin="round" stroke-width="1.1"/><path d="M20.5,7.69a12.33,12.33,0,0,0,3.61-2.76,13.54,13.54,0,0,0-10-4.38C16.89.55,19.28,3.44,20.5,7.69Z" fill="none" stroke="#a7d0ef" stroke-linecap="round" stroke-linejoin="round" stroke-width="1.1"/><path d="M7.78,7.69C9,3.44,11.39.55,14.14.55a13.54,13.54,0,0,0-10,4.38A12.33,12.33,0,0,0,7.78,7.69Z" fill="none" stroke="#a7d0ef" stroke-linecap="round" stroke-linejoin="round" stroke-width="1.1"/><path d="M7.78,7.69a13.89,13.89,0,0,0,6.36,1.53V.55C11.39.55,9,3.44,7.78,7.69Z" fill="none" stroke="#a7d0ef" stroke-linecap="round" stroke-linejoin="round" stroke-width="1.1"/><path d="M20.5,7.69C19.28,3.44,16.89.55,14.14.55V9.21A13.9,13.9,0,0,0,20.5,7.69Z" fill="none" stroke="#a7d0ef" stroke-linecap="round" stroke-linejoin="round" stroke-width="1.1"/><path d="M7.78,20.6a12.33,12.33,0,0,0-3.61,2.76,13.55,13.55,0,0,0,8.66,4.31l-.06-.18C10.62,26.71,8.8,24.12,7.78,20.6Z" fill="none" stroke="#a7d0ef" stroke-linecap="round" stroke-linejoin="round" stroke-width="1.1"/><path d="M14.14,23a4.24,4.24,0,0,1,2.37-1s0,0,0,0a5,5,0,0,1,.75-2.6,14.31,14.31,0,0,0-3.11-.35Z" fill="none" stroke="#a7d0ef" stroke-linecap="round" stroke-linejoin="round" stroke-width="1.1"/><path d="M14.14,23v-4A13.9,13.9,0,0,0,7.78,20.6c1,3.53,2.83,6.11,5,6.89A4.13,4.13,0,0,1,14.14,23Z" fill="none" stroke="#a7d0ef" stroke-linecap="round" stroke-linejoin="round" stroke-width="1.1"/><path d="M12.78,27.48l.06.18c.43,0,.87.07,1.31.07A4,4,0,0,1,12.78,27.48Z" fill="#a5d2fa" stroke="#a7d0ef" stroke-linecap="round" stroke-linejoin="round" stroke-width="1.1"/><path d="M33.66,23.15l-.33,0a5.94,5.94,0,0,0-9.86-5.74,5,5,0,0,0-7,4.59s0,0,0,0a4.27,4.27,0,0,0,.36,8.53H33.66a3.72,3.72,0,0,0,0-7.43Z" fill="#a5d2fa" stroke="#a7d0ef" stroke-linecap="round" stroke-linejoin="round" stroke-width="1.1"/><path d="M31.09,21.68a4.39,4.39,0,0,0-.6-1.44,4,4,0,0,0-4.42-1.7" fill="none" stroke="#fff" stroke-linecap="round" stroke-linejoin="round" stroke-width="1.1"/></symbol>
<symbol id="data-sharing" viewBox="0 0 32.64 30.03"><title>data-sharing</title><line x1="13.45" y1="5.01" x2="19.2" y2="5.01" fill="none" stroke="#a7d0ef" stroke-linecap="round" stroke-linejoin="round" stroke-width="1.1"/><line x1="13.45" y1="25.02" x2="19.2" y2="25.02" fill="none" stroke="#a7d0ef" stroke-linecap="round" stroke-linejoin="round" stroke-width="1.1"/><line x1="5.6" y1="12.14" x2="5.6" y2="17.89" fill="none" stroke="#a7d0ef" stroke-linecap="round" stroke-linejoin="round" stroke-width="1.1"/><line x1="27.04" y1="12.14" x2="27.04" y2="17.89" fill="none" stroke="#a7d0ef" stroke-linecap="round" stroke-linejoin="round" stroke-width="1.1"/><rect x="0.55" y="20.57" width="10.14" height="7.5" rx="0.4" ry="0.4" fill="#fff" stroke="#a7d0ef" stroke-linecap="round" stroke-linejoin="round" stroke-width="1.1"/><line x1="2.75" y1="29.48" x2="8.5" y2="29.48" fill="none" stroke="#a7d0ef" stroke-linecap="round" stroke-linejoin="round" stroke-width="1.1"/><rect x="21.95" y="20.57" width="10.14" height="7.5" rx="0.4" ry="0.4" fill="#9bd2fa" stroke="#a7d0ef" stroke-linecap="round" stroke-linejoin="round" stroke-width="1.1"/><line x1="24.15" y1="29.48" x2="29.9" y2="29.48" fill="none" stroke="#a7d0ef" stroke-linecap="round" stroke-linejoin="round" stroke-width="1.1"/><rect x="21.95" y="0.55" width="10.14" height="7.5" rx="0.4" ry="0.4" fill="#fff" stroke="#a7d0ef" stroke-linecap="round" stroke-linejoin="round" stroke-width="1.1"/><line x1="24.15" y1="9.46" x2="29.9" y2="9.46" fill="none" stroke="#a7d0ef" stroke-linecap="round" stroke-linejoin="round" stroke-width="1.1"/><rect x="0.55" y="0.55" width="10.14" height="7.5" rx="0.4" ry="0.4" fill="#9bd2fa" stroke="#a7d0ef" stroke-linecap="round" stroke-linejoin="round" stroke-width="1.1"/><line x1="2.75" y1="9.46" x2="8.5" y2="9.46" fill="none" stroke="#a7d0ef" stroke-linecap="round" stroke-linejoin="round" stroke-width="1.1"/><path d="M21.13,14h-.18a3.29,3.29,0,0,0-5.47-3.18,2.77,2.77,0,0,0-3.86,2.54v0a2.37,2.37,0,0,0,.2,4.73h9.31a2.06,2.06,0,0,0,0-4.12Z" fill="#a5d2fa" stroke="#a7d0ef" stroke-linecap="round" stroke-linejoin="round" stroke-width="1.1"/></symbol>
<symbol id="dummy" viewBox="0 0 40 35"> <path class="icon__primary" d="M20,0.528455285 L0,34.9726416 L12.3920273,34.9726416 L20,21.8701169 L27.6079727,34.9726416 L40,34.9726416 L20,0.528455285"/> </symbol>
<symbol id="encryption" viewBox="0 0 28.19 27.7"><title>encryption</title><path d="M1.26,1.89H6.54A1.57,1.57,0,0,1,8.11,3.46V4.67A1.57,1.57,0,0,0,9.68,6.25h6.06" fill="none" stroke="#a7d0ef" stroke-linecap="round" stroke-linejoin="round" stroke-width="1.1"/><circle cx="17.61" cy="6.38" r="1.84" fill="#a7d0ef" stroke="#a7d0ef" stroke-linecap="round" stroke-linejoin="round" stroke-width="1.1"/><line x1="10.22" y1="27.15" x2="10.22" y2="22.92" fill="none" stroke="#a7d0ef" stroke-linecap="round" stroke-linejoin="round" stroke-width="1.1"/><circle cx="10.3" cy="20.78" r="1.84" fill="#fff" stroke="#a7d0ef" stroke-linecap="round" stroke-linejoin="round" stroke-width="1.1"/><path d="M26.93,26.83V14.48a1.57,1.57,0,0,0-1.57-1.57h-.84" fill="none" stroke="#a7d0ef" stroke-linecap="round" stroke-linejoin="round" stroke-width="1.1"/><circle cx="22.34" cy="12.98" r="1.84" fill="#a7d0ef" stroke="#a7d0ef" stroke-linecap="round" stroke-linejoin="round" stroke-width="1.1"/><path d="M1.42,14.17V23.8A1.57,1.57,0,0,0,3,25.37h.84" fill="none" stroke="#a7d0ef" stroke-linecap="round" stroke-linejoin="round" stroke-width="1.1"/><circle cx="6.01" cy="25.3" r="1.84" fill="#a7d0ef" stroke="#a7d0ef" stroke-linecap="round" stroke-linejoin="round" stroke-width="1.1"/><path d="M21.24,21.38H16.19a1.57,1.57,0,0,0-1.57,1.57v.52" fill="none" stroke="#a7d0ef" stroke-linecap="round" stroke-linejoin="round" stroke-width="1.1"/><circle cx="14.63" cy="25.3" r="1.84" fill="#fff" stroke="#a7d0ef" stroke-linecap="round" stroke-linejoin="round" stroke-width="1.1"/><path d="M22.4,7.54V3.91a1.57,1.57,0,0,0-1.57-1.57H15.75" fill="none" stroke="#a7d0ef" stroke-linecap="round" stroke-linejoin="round" stroke-width="1.1"/><circle cx="13.67" cy="2.46" r="1.84" fill="#fff" stroke="#a7d0ef" stroke-linecap="round" stroke-linejoin="round" stroke-width="1.1"/><path d="M11.24,14.2l0,2.22A1.57,1.57,0,0,0,12.79,18H16.7" fill="none" stroke="#a7d0ef" stroke-linecap="round" stroke-linejoin="round" stroke-width="1.1"/><circle cx="18.87" cy="17.91" r="1.84" fill="#fff" stroke="#a7d0ef" stroke-linecap="round" stroke-linejoin="round" stroke-width="1.1"/><circle cx="23.08" cy="21.38" r="1.84" fill="#a7d0ef" stroke="#a7d0ef" stroke-linecap="round" stroke-linejoin="round" stroke-width="1.1"/><path d="M18.91,14.39V11a1.57,1.57,0,0,1,1.57-1.57h3.83a1.57,1.57,0,0,0,1.57-1.57V4.44" fill="none" stroke="#a7d0ef" stroke-linecap="round" stroke-linejoin="round" stroke-width="1.1"/><circle cx="25.81" cy="2.39" r="1.84" fill="#fff" stroke="#a7d0ef" stroke-linecap="round" stroke-linejoin="round" stroke-width="1.1"/><line x1="1.22" y1="11.39" x2="11.96" y2="11.39" fill="none" stroke="#a7d0ef" stroke-linecap="round" stroke-linejoin="round" stroke-width="1.1"/><circle cx="14.02" cy="11.39" r="1.84" fill="#fff" stroke="#a7d0ef" stroke-linecap="round" stroke-linejoin="round" stroke-width="1.1"/><line x1="5.42" y1="14.17" x2="5.42" y2="16.51" fill="none" stroke="#a7d0ef" stroke-linecap="round" stroke-linejoin="round" stroke-width="1.1"/><circle cx="5.42" cy="18.56" r="1.84" fill="#a7d0ef" stroke="#a7d0ef" stroke-linecap="round" stroke-linejoin="round" stroke-width="1.1"/><line x1="12.44" y1="8.05" x2="4.64" y2="8.05" fill="none" stroke="#a7d0ef" stroke-linecap="round" stroke-linejoin="round" stroke-width="1.1"/><circle cx="2.39" cy="8.05" r="1.84" fill="#fff" stroke="#a7d0ef" stroke-linecap="round" stroke-linejoin="round" stroke-width="1.1"/></symbol>
<symbol id="information" viewBox="0 0 30.61 30.38"><title>information</title><path d="M17.34,8.24a2.8,2.8,0,1,0-.11,4A2.8,2.8,0,0,0,17.34,8.24ZM16.06,11a1.1,1.1,0,1,1,0-1.55A1.1,1.1,0,0,1,16.06,11Z" fill="#a5d2fa" stroke="#30567d" stroke-linecap="round" stroke-linejoin="round" stroke-width="1.1"/><circle cx="15.31" cy="10.16" r="1.1" transform="translate(-2.8 13.3) rotate(-43.4)" fill="none" stroke="#30567d" stroke-linecap="round" stroke-linejoin="round" stroke-width="1.1"/><path d="M22.81,10.53a7.76,7.76,0,0,0-7.64-7.89" fill="none" stroke="#30567d" stroke-linecap="round" stroke-linejoin="round" stroke-width="1.1"/><path d="M24.92,10.16v0A9.61,9.61,0,1,0,6.29,13.48h18A9.57,9.57,0,0,0,24.92,10.16Z" fill="none" stroke="#30567d" stroke-linecap="round" stroke-linejoin="round" stroke-width="1.1"/><path d="M1.87,13.48H6.29A9.5,9.5,0,0,1,6.64,6H2a1.5,1.5,0,0,0-1.5,1.5V14.8A1.32,1.32,0,0,1,1.87,13.48Z" fill="#30567d" stroke="#30567d" stroke-linecap="round" stroke-linejoin="round" stroke-width="1.1"/><path d="M27.38,10.14H24.92v0a9.57,9.57,0,0,1-.6,3.32h4.42a1.32,1.32,0,0,1,1.32,1.32v-2A2.68,2.68,0,0,0,27.38,10.14Z" fill="#30567d" stroke="#30567d" stroke-linecap="round" stroke-linejoin="round" stroke-width="1.1"/><path d="M28.75,13.48H1.87A1.32,1.32,0,0,0,.55,14.8V28.35a1.48,1.48,0,0,0,.1.5L.72,29a1.49,1.49,0,0,0,.22.32l.14.14a1.5,1.5,0,0,0,.32.22l.13.06a1.48,1.48,0,0,0,.5.1H28.59a1.48,1.48,0,0,0,.5-.1l.13-.06a1.49,1.49,0,0,0,.33-.22l.14-.14A1.5,1.5,0,0,0,29.9,29l.06-.13a1.49,1.49,0,0,0,.1-.5V14.8A1.32,1.32,0,0,0,28.75,13.48Z" fill="#a7d0ef" stroke="#a7d0ef" stroke-linecap="round" stroke-linejoin="round" stroke-width="1.1"/><line x1="0.55" y1="26.45" x2="7.13" y2="26.45" fill="none" stroke="#fff" stroke-linecap="round" stroke-linejoin="round" stroke-width="1.1"/><line x1="0.55" y1="24.16" x2="3.85" y2="24.16" fill="none" stroke="#fff" stroke-linecap="round" stroke-linejoin="round" stroke-width="1.1"/><line x1="30.06" y1="16.87" x2="26.73" y2="16.87" fill="none" stroke="#fff" stroke-linecap="round" stroke-linejoin="round" stroke-width="1.1"/></symbol>
<symbol id="migration" viewBox="0 0 30.63 31.83"><title>migration</title><path d="M7.59,22.3H3V3.5H17.67V15.93a6.25,6.25,0,0,1,2-.34l.46,0V3.28A2.73,2.73,0,0,0,17.4.55H3.28A2.73,2.73,0,0,0,.55,3.28V25a2.73,2.73,0,0,0,2.73,2.73h.65A4.47,4.47,0,0,1,7.59,22.3Z" fill="#a5d2fa" stroke="#fff" stroke-linecap="round" stroke-linejoin="round" stroke-width="1.1"/><path d="M26.14,23.4l-.35,0a6.27,6.27,0,0,0-5.65-7.8l-.46,0a6.25,6.25,0,0,0-2,.34,6.32,6.32,0,0,0-2.34,1.41A5.29,5.29,0,0,0,8,22.2s0,0,0,0-.24,0-.36.06a4.52,4.52,0,0,0,.74,9h17.8a3.94,3.94,0,0,0,0-7.88Z" fill="none" stroke="#fff" stroke-linecap="round" stroke-linejoin="round" stroke-width="1.1"/><path d="M24.08,21.23a4.66,4.66,0,0,0-5.55-3.56" fill="none" stroke="#a7d0ef" stroke-linecap="round" stroke-linejoin="round" stroke-width="1.1"/><line x1="17.58" y1="8.44" x2="13.72" y2="12.29" fill="none" stroke="#a7d0ef" stroke-linecap="round" stroke-linejoin="round" stroke-width="1.1"/><line x1="6.4" y1="13.2" x2="3.04" y2="16.57" fill="none" stroke="#a7d0ef" stroke-linecap="round" stroke-linejoin="round" stroke-width="1.1"/><line x1="17.7" y1="5.03" x2="15.52" y2="7.21" fill="none" stroke="#a7d0ef" stroke-linecap="round" stroke-linejoin="round" stroke-width="1.1"/></symbol>
<symbol id="mobile" viewBox="0 0 20.12 31.46"><title>mobile</title><path d="M19.57,3.17A2.6,2.6,0,0,0,17,.57L3.19.55a2.6,2.6,0,0,0-2.6,2.6V4.4h19Z" fill="#fff" stroke="#fff" stroke-linecap="round" stroke-linejoin="round" stroke-width="1.1"/><path d="M.55,28.29a2.6,2.6,0,0,0,2.6,2.6l13.78,0a2.6,2.6,0,0,0,2.6-2.59V25.56H.55Z" fill="#fff" stroke="#fff" stroke-linecap="round" stroke-linejoin="round" stroke-width="1.1"/><line x1="7.94" y1="28.13" x2="12.18" y2="28.13" fill="none" stroke="#a7d0ef" stroke-linecap="round" stroke-linejoin="round" stroke-width="1.1"/><path d="M.58,4.4l0,21.14h19l0-21.15ZM15.21,19.26H5.48a2.48,2.48,0,0,1-.21-4.94v0a2.89,2.89,0,0,1,4-2.66A3.44,3.44,0,0,1,15,15h.19a2.15,2.15,0,0,1,0,4.31Z" fill="#a5d2fa" stroke="#fff" stroke-linecap="round" stroke-linejoin="round" stroke-width="1.1"/><path d="M15.21,15H15A3.44,3.44,0,0,0,9.3,11.64a2.89,2.89,0,0,0-4,2.66v0a2.48,2.48,0,0,0,.21,4.94h9.73a2.15,2.15,0,0,0,0-4.31Z" fill="none" stroke="#fff" stroke-linecap="round" stroke-linejoin="round" stroke-width="1.1"/><line x1="17.55" y1="4.41" x2="13.86" y2="8.09" fill="none" stroke="#fff" stroke-linecap="round" stroke-linejoin="round" stroke-width="1.1"/><line x1="14.02" y1="4.41" x2="12.25" y2="6.18" fill="none" stroke="#fff" stroke-linecap="round" stroke-linejoin="round" stroke-width="1.1"/><line x1="2.62" y1="25.56" x2="6.21" y2="21.97" fill="none" stroke="#fff" stroke-linecap="round" stroke-linejoin="round" stroke-width="1.1"/></symbol>
<symbol id="network" viewBox="0 0 31.68 31.62"><title>network</title><line x1="15.88" y1="21.43" x2="15.88" y2="17.29" fill="none" stroke="#a7d0ef" stroke-linecap="round" stroke-linejoin="round" stroke-width="1.1"/><line x1="0.55" y1="15.55" x2="4.6" y2="15.55" fill="none" stroke="#a7d0ef" stroke-linecap="round" stroke-linejoin="round" stroke-width="1.1"/><line x1="7.8" y1="15.64" x2="14.16" y2="15.64" fill="none" stroke="#a7d0ef" stroke-linecap="round" stroke-linejoin="round" stroke-width="1.1"/><line x1="17.55" y1="15.64" x2="23.9" y2="15.64" fill="none" stroke="#a7d0ef" stroke-linecap="round" stroke-linejoin="round" stroke-width="1.1"/><line x1="27.32" y1="15.55" x2="30.68" y2="15.55" fill="none" stroke="#a7d0ef" stroke-linecap="round" stroke-linejoin="round" stroke-width="1.1"/><circle cx="15.86" cy="15.59" r="1.7" fill="#fff" stroke="#a7d0ef" stroke-linecap="round" stroke-linejoin="round" stroke-width="1.1"/><rect x="10.37" y="21.42" width="10.99" height="8.13" rx="0.43" ry="0.43" fill="#a5d2fa" stroke="#a7d0ef" stroke-linecap="round" stroke-linejoin="round" stroke-width="1.1"/><line x1="12.74" y1="31.07" x2="18.97" y2="31.07" fill="none" stroke="#a7d0ef" stroke-linecap="round" stroke-linejoin="round" stroke-width="1.1"/><line x1="6.1" y1="13.82" x2="6.1" y2="10.23" fill="none" stroke="#a7d0ef" stroke-linecap="round" stroke-linejoin="round" stroke-width="1.1"/><line x1="25.66" y1="13.88" x2="25.66" y2="10.23" fill="none" stroke="#a7d0ef" stroke-linecap="round" stroke-linejoin="round" stroke-width="1.1"/><circle cx="6.1" cy="15.54" r="1.7" fill="#a5d2fa" stroke="#a7d0ef" stroke-linecap="round" stroke-linejoin="round" stroke-width="1.1"/><rect x="0.67" y="0.55" width="10.99" height="8.13" rx="0.43" ry="0.43" fill="#fff" stroke="#a7d0ef" stroke-linecap="round" stroke-linejoin="round" stroke-width="1.1"/><line x1="3.05" y1="10.2" x2="9.28" y2="10.2" fill="#fff" stroke="#a7d0ef" stroke-linecap="round" stroke-linejoin="round" stroke-width="1.1"/><circle cx="25.61" cy="15.54" r="1.7" fill="#a5d2fa" stroke="#a7d0ef" stroke-linecap="round" stroke-linejoin="round" stroke-width="1.1"/><rect x="20.14" y="0.55" width="10.99" height="8.13" rx="0.43" ry="0.43" fill="#fff" stroke="#a7d0ef" stroke-linecap="round" stroke-linejoin="round" stroke-width="1.1"/><line x1="22.52" y1="10.2" x2="28.75" y2="10.2" fill="none" stroke="#a7d0ef" stroke-linecap="round" stroke-linejoin="round" stroke-width="1.1"/></symbol>
<symbol id="preferences" viewBox="0 0 36.27 34.1"><title>preferences</title><path d="M14.81,26.05l.82-2-1.27-.53a6.39,6.39,0,0,0,0-2.89l1.27-.52-.8-2-1.27.52a6.39,6.39,0,0,0-2-2.05l.53-1.27-2-.82-.53,1.27a6.39,6.39,0,0,0-2.89,0l-.52-1.27-2,.8.52,1.27a6.4,6.4,0,0,0-2.05,2l-1.27-.53-.82,2,1.27.53a6.39,6.39,0,0,0,0,2.89L.55,24l.8,2,1.27-.52a6.4,6.4,0,0,0,2,2.05l-.53,1.27,2,.82.53-1.27a6.4,6.4,0,0,0,2.89,0L10,29.63l2-.8-.52-1.27a6.39,6.39,0,0,0,2.05-2Z" fill="#fff" stroke="#fff" stroke-linecap="round" stroke-linejoin="round" stroke-width="1.1"/><circle cx="8.1" cy="22.09" r="3.62" transform="translate(-15.4 21.01) rotate(-67.24)" fill="none" stroke="#fff" stroke-linecap="round" stroke-linejoin="round" stroke-width="1.1"/><circle cx="25.38" cy="15.38" r="4.84" transform="translate(-3.5 22.22) rotate(-44.53)" fill="none" stroke="#a7d0ef" stroke-linecap="round" stroke-linejoin="round" stroke-width="1.1"/><path d="M17.54,28A8.3,8.3,0,0,1,7,33.09" fill="none" stroke="#fff" stroke-linecap="round" stroke-linejoin="round" stroke-width="1.1"/><path d="M12.72,8.88A12.35,12.35,0,0,1,28.45,1.23" fill="none" stroke="#a7d0ef" stroke-linecap="round" stroke-linejoin="round" stroke-width="1.1"/><circle cx="8.1" cy="22.09" r="3.62" transform="translate(-15.4 21.01) rotate(-67.24)" fill="#a5d2fa" stroke="#fff" stroke-linecap="round" stroke-linejoin="round" stroke-width="1.1"/><path d="M33.86,16.87l1.84,0,0-2.84-1.84,0a8.55,8.55,0,0,0-1.45-3.58l1.31-1.29-2-2L30.43,8.42a8.56,8.56,0,0,0-3.56-1.51l0-1.84L24,5l0,1.84a8.56,8.56,0,0,0-3.58,1.45L19.15,7l-2,2,1.29,1.31a8.55,8.55,0,0,0-1.51,3.56l-1.84,0,0,2.84,1.84,0a8.55,8.55,0,0,0,1.45,3.58L17,21.61l2,2,1.31-1.29a8.56,8.56,0,0,0,3.56,1.51l0,1.84,2.84,0,0-1.84a8.56,8.56,0,0,0,3.58-1.45l1.29,1.31,2-2-1.29-1.31A8.55,8.55,0,0,0,33.86,16.87Zm-5.08,2A4.84,4.84,0,1,1,28.84,12,4.84,4.84,0,0,1,28.78,18.84Z" fill="#a7d0ef" stroke="#a7d0ef" stroke-linecap="round" stroke-linejoin="round" stroke-width="1.1"/><circle cx="25.38" cy="15.38" r="0.82" fill="none" stroke="#a7d0ef" stroke-linecap="round" stroke-linejoin="round" stroke-width="1.1"/><circle cx="8.1" cy="22.09" r="0.82" fill="#fff" stroke="#fff" stroke-linecap="round" stroke-linejoin="round" stroke-width="1.1"/></symbol>
<symbol id="remote-access" viewBox="0 0 34.22 28.84"><title>remote-access</title><path d="M.55,21.81A2.19,2.19,0,0,0,2.74,24H31.48a2.19,2.19,0,0,0,2.19-2.19V19.29H.55Z" fill="#fff" stroke="#fff" stroke-linecap="round" stroke-linejoin="round" stroke-width="1.1"/><path d="M31.48.55H2.74A2.19,2.19,0,0,0,.55,2.74V19.29H33.67V2.74A2.19,2.19,0,0,0,31.48.55Zm-8.78,15H11a2.72,2.72,0,0,1,0-5.44h.23a4.56,4.56,0,0,1-.13-1,4.25,4.25,0,0,1,4.14-4.35,4,4,0,0,1,2.85,1.2,3.32,3.32,0,0,1,1.37-.3A3.56,3.56,0,0,1,23,9.29v0a3.07,3.07,0,0,1,2.72,3.11A3.05,3.05,0,0,1,22.7,15.56Z" fill="#a5d2fa" stroke="#fff" stroke-linecap="round" stroke-linejoin="round" stroke-width="1.1"/><path d="M23,9.32v0a3.56,3.56,0,0,0-3.47-3.65,3.32,3.32,0,0,0-1.37.3,4,4,0,0,0-2.85-1.2,4.25,4.25,0,0,0-4.14,4.35,4.56,4.56,0,0,0,.13,1H11a2.72,2.72,0,0,0,0,5.44H22.7a3.05,3.05,0,0,0,3-3.13A3.07,3.07,0,0,0,23,9.32Z" fill="#fff" stroke="#fff" stroke-linecap="round" stroke-linejoin="round" stroke-width="1.1"/><line x1="7.83" y1="0.65" x2="5.95" y2="2.53" fill="none" stroke="#fff" stroke-linecap="round" stroke-linejoin="round" stroke-width="1.1"/><line x1="11.61" y1="0.65" x2="6.55" y2="5.71" fill="none" stroke="#fff" stroke-linecap="round" stroke-linejoin="round" stroke-width="1.1"/><line x1="30.23" y1="16.06" x2="26.99" y2="19.29" fill="none" stroke="#fff" stroke-linecap="round" stroke-linejoin="round" stroke-width="1.1"/><path d="M21.08,26.79V24H13.14v2.78a1.5,1.5,0,0,1-1.5,1.5H22.58A1.5,1.5,0,0,1,21.08,26.79Z" fill="#fff" stroke="#fff" stroke-linecap="round" stroke-linejoin="round" stroke-width="1.1"/></symbol>
<symbol id="search" viewBox="0 0 33.62 34.43"><title>search</title><path d="M27.93,8.78s0,0,0,0a6.55,6.55,0,0,0-9.13-6A7.79,7.79,0,0,0,5.86,10.24l-.43,0a4.88,4.88,0,1,0,0,9.75h8a6.92,6.92,0,1,1,7,0h7.08a5.61,5.61,0,0,0,.47-11.19Z" fill="#a5d2fa" stroke="#a7d0ef" stroke-linecap="round" stroke-linejoin="round" stroke-width="1.1"/><path d="M23.82,14a6.94,6.94,0,1,0-3.44,6A6.92,6.92,0,0,0,23.82,14Z" fill="#fff" stroke="#a7d0ef" stroke-linecap="round" stroke-linejoin="round" stroke-width="1.1"/><path d="M21.43,15.17a4.89,4.89,0,0,0-3.74-5.82" fill="none" stroke="#a7d0ef" stroke-linecap="round" stroke-linejoin="round" stroke-width="1.1"/><rect x="16.36" y="20.92" width="1.06" height="2.29" fill="none" stroke="#a7d0ef" stroke-linecap="round" stroke-linejoin="round" stroke-width="1.1"/><path d="M16.9,33.88A1.06,1.06,0,0,0,18,32.81v-9.6H15.83v9.6a1.06,1.06,0,0,0,1.06,1.06Z" fill="none" stroke="#a7d0ef" stroke-linecap="round" stroke-linejoin="round" stroke-width="1.1"/><path d="M12.32,15.36a4.67,4.67,0,0,0,2.56,3" fill="none" stroke="#a7d0ef" stroke-linecap="round" stroke-linejoin="round" stroke-width="1.1"/></symbol>
<symbol id="server" viewBox="0 0 22.93 31.62"><title>server</title><rect x="3.01" y="15.9" width="17.01" height="1.55" rx="0.62" ry="0.62" fill="none" stroke="#fff" stroke-linecap="round" stroke-linejoin="round" stroke-width="1.1"/><rect x="3.01" y="7.18" width="17.01" height="1.56" rx="0.62" ry="0.62" fill="none" stroke="#fff" stroke-linecap="round" stroke-linejoin="round" stroke-width="1.1"/><line x1="11.51" y1="24.61" x2="11.51" y2="26.23" fill="none" stroke="#fff" stroke-linecap="round" stroke-linejoin="round" stroke-width="1.1"/><line x1="0.55" y1="28.58" x2="9" y2="28.58" fill="none" stroke="#fff" stroke-linecap="round" stroke-linejoin="round" stroke-width="1.1"/><line x1="13.93" y1="28.58" x2="22.38" y2="28.58" fill="none" stroke="#fff" stroke-linecap="round" stroke-linejoin="round" stroke-width="1.1"/><circle cx="11.51" cy="28.65" r="2.42" fill="none" stroke="#fff" stroke-linecap="round" stroke-linejoin="round" stroke-width="1.1"/><path d="M21.59,17.45H1.43a.49.49,0,0,0-.49.49v6.19a.49.49,0,0,0,.49.49H21.59a.49.49,0,0,0,.49-.49V17.94A.49.49,0,0,0,21.59,17.45Zm-3.37,5a1.39,1.39,0,1,1,1.39-1.39A1.39,1.39,0,0,1,18.22,22.5Z" fill="#a7d0ef"/><path d="M21.59,8.73H1.43a.49.49,0,0,0-.49.49V15.4a.49.49,0,0,0,.49.49H21.59a.49.49,0,0,0,.49-.49V9.21A.49.49,0,0,0,21.59,8.73Zm-3.37,4.93a1.39,1.39,0,1,1,1.39-1.39A1.39,1.39,0,0,1,18.22,13.66Z" fill="#a7d0ef"/><path d="M21.59,0H1.44A.49.49,0,0,0,.95.49V6.67a.49.49,0,0,0,.49.49H21.59a.49.49,0,0,0,.49-.49V.49A.49.49,0,0,0,21.59,0ZM18.22,5a1.39,1.39,0,1,1,1.39-1.39A1.39,1.39,0,0,1,18.22,5Z" fill="#a7d0ef"/><rect x="7.63" y="3.49" width="0.35" height="0.35" transform="translate(15.62 7.34) rotate(180)" fill="#fff" stroke="#fff" stroke-linecap="round" stroke-miterlimit="10" stroke-width="1.1"/><rect x="4.23" y="3.49" width="0.35" height="0.35" transform="translate(8.81 7.34) rotate(180)" fill="#fff" stroke="#fff" stroke-linecap="round" stroke-miterlimit="10" stroke-width="1.1"/><rect x="7.63" y="12.19" width="0.35" height="0.35" transform="translate(15.62 24.73) rotate(180)" fill="#fff" stroke="#fff" stroke-linecap="round" stroke-miterlimit="10" stroke-width="1.1"/><rect x="4.23" y="12.19" width="0.35" height="0.35" transform="translate(8.81 24.73) rotate(180)" fill="#fff" stroke="#fff" stroke-linecap="round" stroke-miterlimit="10" stroke-width="1.1"/><rect x="7.63" y="21.06" width="0.35" height="0.35" transform="translate(15.62 42.47) rotate(180)" fill="#fff" stroke="#fff" stroke-linecap="round" stroke-miterlimit="10" stroke-width="1.1"/><rect x="4.23" y="21.06" width="0.35" height="0.35" transform="translate(8.81 42.47) rotate(180)" fill="#fff" stroke="#fff" stroke-linecap="round" stroke-miterlimit="10" stroke-width="1.1"/></symbol>
<symbol id="settings" viewBox="0 0 34.95 27.06"><title>settings</title><path d="M15.45,18.34V15.73h1.69a7.85,7.85,0,0,1,1.36-3.28l-1.19-1.2,1.84-1.84,1.2,1.19a7.85,7.85,0,0,1,3.28-1.36V7.55h2.61V9.25a7.86,7.86,0,0,1,1.9.58,7.61,7.61,0,0,0,.14-1.39A7.88,7.88,0,0,0,15,2.73,6.61,6.61,0,0,0,5.74,8.81s0,0,0,.05a5.66,5.66,0,0,0,.48,11.3H17.68a7.86,7.86,0,0,1-.54-1.83Z" fill="#a7d0ef" stroke="#a7d0ef" stroke-linecap="round" stroke-linejoin="round" stroke-width="1.1"/><path d="M15,4.93A5,5,0,0,0,8,9.54s0,0,0,0" fill="none" stroke="#fff" stroke-linecap="round" stroke-linejoin="round" stroke-width="1.1"/><path d="M29.64,10.47a4.9,4.9,0,0,0-.49-.09l.35.22Z" fill="none" stroke="#30567d" stroke-linecap="round" stroke-linejoin="round" stroke-width="1.1"/><path d="M33.35,15.73h-.64a7.85,7.85,0,0,0-1.36-3.28L32,11.8l.55-.55L30.7,9.41l-1.06,1.06-.14.14-.35-.22a7.87,7.87,0,0,0-2.93-1.13V7.55H23.62V9.25a7.85,7.85,0,0,0-3.28,1.36l-1.2-1.19L17.3,11.25l1.19,1.2a7.85,7.85,0,0,0-1.36,3.28H15.45v2.61h1.69a8,8,0,0,0,1.36,3.28l-1.19,1.2,1.84,1.84,1.2-1.19a7.85,7.85,0,0,0,3.28,1.36v1.69h2.61V24.82a7.85,7.85,0,0,0,3.28-1.36l1.2,1.19,1.84-1.84-1.19-1.2a7.85,7.85,0,0,0,1.36-3.28H34.4V15.73Z" fill="#fff" stroke="#fff" stroke-linecap="round" stroke-linejoin="round" stroke-width="1.1"/><path d="M24.92,12.59A4.44,4.44,0,1,0,29.37,17,4.44,4.44,0,0,0,24.92,12.59Zm0,6.28a1.79,1.79,0,1,1,1.78-1.79A1.79,1.79,0,0,1,24.9,18.87Z" fill="#a5d2fa" stroke="#a7d0ef" stroke-linecap="round" stroke-linejoin="round" stroke-width="1.1"/><circle cx="24.9" cy="17.08" r="1.79" fill="none" stroke="#a7d0ef" stroke-linecap="round" stroke-linejoin="round" stroke-width="1.1"/></symbol>
<symbol id="thin-24hour" viewBox="0 0 104.98 97.48"><title>thin-24hour</title><path d="M31.12,50.75a2,2,0,0,1,0-4H46.74V22.2a2,2,0,1,1,4,0V48.74a2,2,0,0,1-2,2H31.12Z" fill="#3ca2d8"/><path d="M104,41.8a2,2,0,0,0-2.73.73l-3.78,6.54c0-.11,0-.23,0-.34A48.74,48.74,0,1,0,48.74,97.48a2,2,0,1,0,0-4A44.74,44.74,0,1,1,93.48,48.74c0,.1,0,.21,0,.31l-3.76-6.51a2,2,0,1,0-3.46,2l7.5,13a2,2,0,0,0,3.46,0l7.5-13A2,2,0,0,0,104,41.8Z" fill="#3ca2d8"/><path d="M75.49,65.71H63.85a2,2,0,0,0,0,4h9.63v7.64H63.85a2,2,0,0,0-2,2V91a2,2,0,0,0,2,2H75.49a2,2,0,0,0,0-4H65.85V81.35h9.63a2,2,0,0,0,2-2V67.71A2,2,0,0,0,75.49,65.71Z" fill="#3ca2d8"/><path d="M96.4,65.71a2,2,0,0,0-2,2v9.64H86.76V67.71a2,2,0,1,0-4,0V79.35a2,2,0,0,0,2,2H94.4V91a2,2,0,1,0,4,0V67.71A2,2,0,0,0,96.4,65.71Z" fill="#3ca2d8"/></symbol>
<symbol id="thin-cloud-computing" viewBox="0 0 115.47 106.36"><title>thin-cloud-computing</title><path d="M88.84,20.56l-.69,0a30.08,30.08,0,0,0-56.91-.5,29.94,29.94,0,0,0-1.61,7.73,27.57,27.57,0,0,0-6.29-.69A23.34,23.34,0,0,0,11.78,70.74v-4.8A19.32,19.32,0,0,1,23.35,31.13,22.4,22.4,0,0,1,36.18,35l.87.52a2,2,0,1,0,2-3.45l-.84-.5a36.28,36.28,0,0,0-4.66-2.47A26.08,26.08,0,0,1,83.21,18.93c.32.67.6,1.35.86,2a26.29,26.29,0,0,0-7.17,2.39,2,2,0,1,0,1.8,3.57,22.37,22.37,0,0,1,10.14-2.39,22.62,22.62,0,0,1,18.73,35.32V66.1A26.62,26.62,0,0,0,88.84,20.56Z" fill="#3ca2d8"/><path d="M100.57,87.64a2,2,0,0,1-2-2V48.95H20.78V85.64a2,2,0,0,1-4,0V46.95a2,2,0,0,1,2-2h81.79a2,2,0,0,1,2,2V85.64A2,2,0,0,1,100.57,87.64Z" fill="#3ca2d8"/><path d="M103.75,106.36H15.6C10,106.36,6,98.9,6,93.88a2,2,0,0,1,2-2H44.32a2,2,0,0,1,1.56.75l1.57,2H71.9l1.57-2A2,2,0,0,1,75,91.88h36.31a2,2,0,0,1,2,2C113.34,98.9,109.31,106.36,103.75,106.36ZM10.28,95.88c.77,3.13,3.11,6.48,5.32,6.48h88.15c2.21,0,4.55-3.34,5.32-6.48H76l-1.57,2a2,2,0,0,1-1.56.75H46.49a2,2,0,0,1-1.56-.75l-1.57-2Z" fill="#3ca2d8"/></symbol>
<symbol id="thin-cloud-technology" viewBox="0 0 115.47 93.32"><title>thin-cloud-technology</title><path d="M88.84,20.56l-.69,0a30,30,0,0,0-1.32-3.36,30.1,30.1,0,0,0-55.59,2.86,29.89,29.89,0,0,0-1.61,7.73,27.63,27.63,0,0,0-6.29-.69,23.35,23.35,0,0,0,0,46.69H33.64c9.59,0,13.79,1.8,14,12.66l-4-4a2,2,0,0,0-2.83,2.83l7.42,7.42a2,2,0,0,0,2.83,0l7.42-7.42a2,2,0,0,0-2.83-2.83l-4,4c-.34-13.86-7.18-16.69-18-16.69H23.35a19.35,19.35,0,0,1,0-38.69A22.41,22.41,0,0,1,36.18,35l.87.52a2,2,0,1,0,2-3.45l-.84-.5a36.36,36.36,0,0,0-4.66-2.47A26,26,0,0,1,59.63,4,26.22,26.22,0,0,1,83.22,18.93c.32.67.6,1.35.86,2.05a26.29,26.29,0,0,0-7.17,2.39,2,2,0,1,0,1.8,3.57,22.39,22.39,0,0,1,10.14-2.39,22.63,22.63,0,0,1,0,45.26H77c-4.22,0-9.79-1.31-10.15-12.31l4,4a2,2,0,1,0,2.83-2.83l-7.42-7.42a2,2,0,0,0-2.83,0L56,58.66a2,2,0,1,0,2.83,2.83l4-4C63.21,70.94,70.68,73.82,77,73.82H88.84a26.63,26.63,0,0,0,0-53.26Z" fill="#3ca2d8"/></symbol>
<symbol id="thin-cloud" viewBox="0 0 118.96 100.43"><title>thin-cloud</title><circle cx="71.8" cy="62.24" r="3.24" fill="#3ca2d8"/><circle cx="59.63" cy="62.24" r="3.24" fill="#3ca2d8"/><circle cx="47.46" cy="62.24" r="3.24" fill="#3ca2d8"/><path d="M91.56,21.2l-.76,0a30.87,30.87,0,0,0-1.37-3.5,31,31,0,0,0-57.21,2.94,30.75,30.75,0,0,0-1.66,8A28.37,28.37,0,0,0,24,28a24,24,0,1,0,0,48H91.56a27.4,27.4,0,1,0,0-54.8Zm0,50.8H24a20,20,0,1,1,0-40,23.17,23.17,0,0,1,13.27,4l.9.54a2,2,0,1,0,2-3.45l-.87-.52A37.12,37.12,0,0,0,34.5,30,26.85,26.85,0,0,1,61.43,4,27.11,27.11,0,0,1,85.81,19.43c.34.71.64,1.45.91,2.19a27,27,0,0,0-7.45,2.48,2,2,0,1,0,1.79,3.57A23.15,23.15,0,0,1,91.56,25.2a23.4,23.4,0,1,1,0,46.8Z" fill="#3ca2d8"/><path d="M59.63,100.43a9.5,9.5,0,1,1,9.5-9.5A9.51,9.51,0,0,1,59.63,100.43Zm0-15a5.5,5.5,0,1,0,5.5,5.5A5.51,5.51,0,0,0,59.63,85.43Z" fill="#3ca2d8"/><path d="M54.21,91.84a1.88,1.88,0,0,0,0-.21,2,2,0,0,0-.1-.59A5.53,5.53,0,0,0,54.21,91.84Z" fill="#3ca2d8"/><path d="M50.13,90.93a9.48,9.48,0,0,1,.1-1.29H15.45a2,2,0,0,0,0,4H50.53A9.47,9.47,0,0,1,50.13,90.93Z" fill="#3ca2d8"/><path d="M103.51,89.63H69a9.1,9.1,0,0,1-.3,4h34.78a2,2,0,0,0,0-4Z" fill="#3ca2d8"/><path d="M59.63,81.43a9.51,9.51,0,0,1,2,.22V76h-4v5.64A9.51,9.51,0,0,1,59.63,81.43Z" fill="#3ca2d8"/></symbol>
<symbol id="thin-coding" viewBox="0 0 104.21 83.41"><title>thin-coding</title><rect x="4.06" y="18.67" width="96.23" height="4" fill="#3ca2d8"/><path d="M97.18,0H7A7,7,0,0,0,0,7V76.45c0,3.84,3.54,7,7.38,7H97.63c1.87,0,3.62-1.32,4.94-2.65a6.64,6.64,0,0,0,1.64-5V7A7,7,0,0,0,97.18,0Zm2.54,78c-.56.57-1.31,1.46-2.12,1.46H7.38a3.36,3.36,0,0,1-3.38-3V7A3,3,0,0,1,7,4H97.18a3,3,0,0,1,3,3V75.83A2.73,2.73,0,0,1,99.72,78Z" fill="#3ca2d8"/><path d="M22.74,50.73,36.85,36.62A2,2,0,0,0,34,33.79L18.5,49.31a2,2,0,0,0,0,2.83L34,67.66a2,2,0,0,0,2.83-2.83Z" fill="#3ca2d8"/><path d="M86.48,49.31,71,33.79a2,2,0,0,0-2.83,2.83L82.24,50.73,68.13,64.84A2,2,0,1,0,71,67.66L86.48,52.14A2,2,0,0,0,86.48,49.31Z" fill="#3ca2d8"/><path d="M45.67,72.47a2,2,0,0,1-1.91-2.59l11.9-38.49a2,2,0,1,1,3.82,1.18L47.58,71.06A2,2,0,0,1,45.67,72.47Z" fill="#3ca2d8"/><circle cx="39.84" cy="11.13" r="3.24" fill="#3ca2d8"/><circle cx="27.67" cy="11.13" r="3.24" fill="#3ca2d8"/><circle cx="15.5" cy="11.13" r="3.24" fill="#3ca2d8"/></symbol>
<symbol id="thin-data-structure" viewBox="0 0 108 97"><title>thin-data-structure</title><circle cx="39.18" cy="64" r="3.24" fill="#3ca2d8"/><circle cx="27.01" cy="64" r="3.24" fill="#3ca2d8"/><circle cx="14.84" cy="64" r="3.24" fill="#3ca2d8"/><circle cx="93.17" cy="33" r="3.24" fill="#3ca2d8"/><circle cx="80.99" cy="33" r="3.24" fill="#3ca2d8"/><circle cx="68.82" cy="33" r="3.24" fill="#3ca2d8"/><path d="M41.25,86.66,53.75,65a2,2,0,0,0,0-2L41.25,41.34a2,2,0,0,0-1.73-1h-25a2,2,0,0,0-1.73,1L.27,63a2,2,0,0,0,0,2L12.77,86.66a2,2,0,0,0,1.73,1h25A2,2,0,0,0,41.25,86.66Zm-25.58-3L4.31,64,15.66,44.34h22.7L49.71,64,38.36,83.66Z" fill="#3ca2d8"/><path d="M107.74,32,95.23,10.34a2,2,0,0,0-1.73-1h-25a2,2,0,0,0-1.73,1L54.25,32a2,2,0,0,0,0,2l12.5,21.66a2,2,0,0,0,1.73,1h25a2,2,0,0,0,1.73-1L107.74,34A2,2,0,0,0,107.74,32ZM92.34,52.66H69.64L58.29,33,69.64,13.34h22.7L103.69,33Z" fill="#3ca2d8"/><path d="M82,66a2,2,0,0,0,0-4H64.51L47.63,33,64.51,4H82a2,2,0,0,0,0-4H63.36a2,2,0,0,0-1.73,1L44.16,31H26.63a2,2,0,0,0,0,4H44.16L61,64,44.16,93H26.63a2,2,0,0,0,0,4H45.31A2,2,0,0,0,47,96L64.51,66Z" fill="#3ca2d8"/><path d="M13.16,35h6.72a2,2,0,1,0,0-4H13.16a2,2,0,0,0,0,4Z" fill="#3ca2d8"/><path d="M96.4,62H89.68a2,2,0,0,0,0,4H96.4a2,2,0,0,0,0-4Z" fill="#3ca2d8"/><path d="M85.6,74H70.11a2,2,0,0,0,0,4H85.6a2,2,0,0,0,0-4Z" fill="#3ca2d8"/><path d="M79.81,85.66H64.32a2,2,0,0,0,0,4h15.5a2,2,0,0,0,0-4Z" fill="#3ca2d8"/><path d="M22.14,23.24h15.5a2,2,0,0,0,0-4H22.14a2,2,0,0,0,0,4Z" fill="#3ca2d8"/><path d="M30.44,10.34h15.5a2,2,0,0,0,0-4H30.44a2,2,0,0,0,0,4Z" fill="#3ca2d8"/></symbol>
<symbol id="thin-database" viewBox="0 0 78.31 92.15"><title>thin-database</title><path d="M39.16,24.67C19.7,24.67,0,20.43,0,12.33S19.7,0,39.16,0,78.31,4.24,78.31,12.33,58.62,24.67,39.16,24.67ZM39.16,4C16.07,4,4,9.42,4,12.33s12.07,8.33,35.16,8.33,35.16-5.42,35.16-8.33S62.24,4,39.16,4Z" fill="#3ca2d8"/><path d="M39.16,47.39C19.7,47.39,0,43.16,0,35.06V24a2,2,0,0,1,4,0v11C4,38,16.07,43.39,39.16,43.39S74.31,38,74.31,35.06V24a2,2,0,1,1,4,0v11C78.31,43.16,58.62,47.39,39.16,47.39Z" fill="#3ca2d8"/><path d="M39.16,69.77C19.7,69.77,0,65.54,0,57.44v-11a2,2,0,0,1,4,0v11c0,2.91,12.07,8.33,35.16,8.33s35.16-5.42,35.16-8.33v-11a2,2,0,0,1,4,0v11C78.31,65.54,58.62,69.77,39.16,69.77Z" fill="#3ca2d8"/><path d="M39.16,92.15C19.7,92.15,0,87.92,0,79.82v-11a2,2,0,0,1,4,0v11c0,2.91,12.07,8.33,35.16,8.33s35.16-5.42,35.16-8.33v-11a2,2,0,0,1,4,0v11C78.31,87.92,58.62,92.15,39.16,92.15Z" fill="#3ca2d8"/><circle cx="39.16" cy="34.2" r="2.9" fill="#3ca2d8"/><circle cx="27.16" cy="33.2" r="2.9" fill="#3ca2d8"/><circle cx="51.16" cy="33.2" r="2.9" fill="#3ca2d8"/><circle cx="39.16" cy="57.08" r="2.9" fill="#3ca2d8"/><circle cx="27.16" cy="56.08" r="2.9" fill="#3ca2d8"/><circle cx="51.16" cy="56.08" r="2.9" fill="#3ca2d8"/><circle cx="39.16" cy="79.46" r="2.9" fill="#3ca2d8"/><circle cx="27.16" cy="78.46" r="2.9" fill="#3ca2d8"/><circle cx="51.16" cy="78.46" r="2.9" fill="#3ca2d8"/></symbol>
<symbol id="thin-earnings" viewBox="0 0 119.22 117.69"><title>thin-earnings</title><path d="M59.61,33.81a2,2,0,0,1-2-2V2a2,2,0,1,1,4,0V31.81A2,2,0,0,1,59.61,33.81Z" fill="#3ca2d8"/><path d="M59.61,117.69a2,2,0,0,1-2-2V85.88a2,2,0,1,1,4,0v29.81A2,2,0,0,1,59.61,117.69Z" fill="#3ca2d8"/><path d="M34.35,65.85H30.21a30.33,30.33,0,0,0,22.41,22.4V84.12A26.32,26.32,0,0,1,34.35,65.85Z" fill="#3ca2d8"/><path d="M30.21,51.85h4.14A26.33,26.33,0,0,1,52.61,33.57V29.44A30.33,30.33,0,0,0,30.21,51.85Z" fill="#3ca2d8"/><path d="M15.63,65.85H11.58a48.65,48.65,0,0,0,41,41v-4A44.64,44.64,0,0,1,15.63,65.85Z" fill="#3ca2d8"/><path d="M11.58,51.85h4.05a44.64,44.64,0,0,1,37-37v-4A48.65,48.65,0,0,0,11.58,51.85Z" fill="#3ca2d8"/><path d="M103.59,51.85h4.05a48.64,48.64,0,0,0-41-41v4A44.64,44.64,0,0,1,103.59,51.85Z" fill="#3ca2d8"/><path d="M103.59,65.85a44.64,44.64,0,0,1-37,37v4a48.65,48.65,0,0,0,41-41Z" fill="#3ca2d8"/><path d="M84.88,51.85H89a30.33,30.33,0,0,0-22.41-22.4v4.13A26.33,26.33,0,0,1,84.88,51.85Z" fill="#3ca2d8"/><path d="M84.88,65.85A26.33,26.33,0,0,1,66.61,84.12v4.13A30.33,30.33,0,0,0,89,65.85Z" fill="#3ca2d8"/><path d="M32.13,60.85H2a2,2,0,0,1,0-4H32.13a2,2,0,0,1,0,4Z" fill="#3ca2d8"/><path d="M117.22,60.85H87.09a2,2,0,0,1,0-4h30.13a2,2,0,0,1,0,4Z" fill="#3ca2d8"/><path d="M71.34,65.16c0-5.73-5.1-7.45-9.71-8.61v-9c4.21.65,4.9,3.38,4.9,5.1a2,2,0,1,0,4,0c0-4.07-2.39-8.38-8.9-9.12V40.29a2,2,0,1,0-4,0v3.25C50.21,44.26,49,49,49,51.88c0,5,4.4,6.68,8.6,7.79V70c-4.61-1-5.75-4.63-5.75-6a2,2,0,1,0-4,0c0,3.56,2.71,9,9.75,10.1v3.37a2,2,0,1,0,4,0v-3.2C68.76,73.72,71.34,69.13,71.34,65.16ZM53,51.88c0-1.18,0-3.76,4.6-4.33v8C54.52,54.62,53,53.72,53,51.88Zm8.6,18.32V60.69c3.87,1.06,5.71,2.09,5.71,4.47C67.34,66.92,66.56,69.78,61.63,70.2Z" fill="#3ca2d8"/></symbol>
<symbol id="thin-export" viewBox="0 0 89.17 97"><title>thin-export</title><circle cx="56.76" cy="48.5" r="3.24" fill="#3ca2d8"/><circle cx="44.59" cy="48.5" r="3.24" fill="#3ca2d8"/><circle cx="32.41" cy="48.5" r="3.24" fill="#3ca2d8"/><path d="M44,97a48.19,48.19,0,0,1-15.82-2.66,49.58,49.58,0,0,1-20.91-14L3,82.81A2,2,0,0,1,0,81.1V53.43a2,2,0,0,1,3-1.71l24,13.83a2,2,0,0,1,0,3.43l-4.08,2.36A33.35,33.35,0,0,0,34,80.53c5.82,3,13.17,3.76,21.86,2.26a2,2,0,1,1,.67,3.9c-9.56,1.65-17.75.76-24.34-2.64A37.3,37.3,0,0,1,18.31,71.83,2,2,0,0,1,19,69l3-1.74L4,56.85V77.67l2.77-1.6a2,2,0,0,1,2.51.45A45.74,45.74,0,0,0,29.48,90.6,44.26,44.26,0,0,0,57.35,91,42.24,42.24,0,0,0,78.94,75.24a40.22,40.22,0,0,0,6.33-13.75,2,2,0,1,1,3.84,1,44.2,44.2,0,0,1-6.95,15.08A46.22,46.22,0,0,1,58.56,94.75,47.82,47.82,0,0,1,44,97Z" fill="#3ca2d8"/><path d="M87.19,45.55a2,2,0,0,1-1-.27l-24-13.83a2,2,0,0,1,0-3.43l4.08-2.36a33.35,33.35,0,0,0-11.13-9.2c-5.82-3-13.17-3.76-21.86-2.26a2,2,0,0,1-.67-3.9C42.23,8.65,50.42,9.54,57,12.95A37.32,37.32,0,0,1,70.86,25.17,2,2,0,0,1,70.21,28l-3,1.74,18,10.41V19.33l-2.77,1.6a2,2,0,0,1-2.51-.45A45.73,45.73,0,0,0,59.69,6.4,44.26,44.26,0,0,0,31.81,6,42.26,42.26,0,0,0,10.23,21.76,40.24,40.24,0,0,0,3.9,35.51a2,2,0,1,1-3.84-1A44.18,44.18,0,0,1,7,19.47,46.22,46.22,0,0,1,30.61,2.26,48.2,48.2,0,0,1,61,2.66a49.59,49.59,0,0,1,20.91,14l4.31-2.49a2,2,0,0,1,3,1.71V43.57a2,2,0,0,1-2,2Z" fill="#3ca2d8"/></symbol>
<symbol id="thin-file-access" viewBox="0 0 118.98 96.86"><title>thin-file-access</title><path d="M91.57,21.2l-.76,0a31,31,0,0,0-1.37-3.5,31,31,0,0,0-57.22,2.94,30.71,30.71,0,0,0-1.66,8A28.37,28.37,0,0,0,24,28a24,24,0,1,0,0,48,2,2,0,0,0,0-4,20,20,0,1,1,0-40,23.17,23.17,0,0,1,13.27,4l.9.54a2,2,0,0,0,2-3.45l-.86-.51A37.2,37.2,0,0,0,34.51,30,26.85,26.85,0,0,1,61.44,4,27.11,27.11,0,0,1,85.83,19.43c.34.71.64,1.45.91,2.19a27,27,0,0,0-7.45,2.48,2,2,0,1,0,1.79,3.57A23.15,23.15,0,0,1,91.57,25.2a23.4,23.4,0,1,1,0,46.81,2,2,0,1,0,0,4,27.4,27.4,0,1,0,0-54.81Z" fill="#3ca2d8"/><path d="M76.67,39.89h-24a2,2,0,0,0-1.41.59L37.13,54.6a2,2,0,0,0-.25.3l0,.08a2.05,2.05,0,0,0-.14.26s0,.08,0,.12a2,2,0,0,0-.08.25,2,2,0,0,0,0,.4V94.86a2,2,0,0,0,2,2H76.67a2,2,0,0,0,2-2v-53A2,2,0,0,0,76.67,39.89Zm-26,6.83V54h-7.3Zm24,46.15H40.54V58H52.67a2,2,0,0,0,2-2V43.89h20Z" fill="#3ca2d8"/><path d="M68.67,88.3H46.6a2,2,0,0,1,0-4H68.67a2,2,0,0,1,0,4Z" fill="#3ca2d8"/></symbol>
<symbol id="thin-folder-network" viewBox="0 0 99.13 101"><title>thin-folder-network</title><circle cx="85.66" cy="33.96" r="3.24" fill="#3ca2d8"/><circle cx="73.49" cy="33.96" r="3.24" fill="#3ca2d8"/><circle cx="61.31" cy="33.96" r="3.24" fill="#3ca2d8"/><path d="M92.4,20H17.64a6.75,6.75,0,0,0-6.74,6.74V69.7a3.45,3.45,0,1,1-6.9,0V6.07A2.08,2.08,0,0,1,6.08,4H33.62a3.36,3.36,0,0,1,3.23,2.46l1.09,4c.91,3.31,3.6,5.13,7.58,5.13H84.88a2,2,0,0,0,0-4H45.52c-2.77,0-3.45-1.17-3.73-2.19l-1.09-4A7.37,7.37,0,0,0,33.62,0H6.08A6.08,6.08,0,0,0,0,6.07V69.7a7.46,7.46,0,0,0,7.45,7.45H92.4a6.75,6.75,0,0,0,6.74-6.74V26.78A6.75,6.75,0,0,0,92.4,20Zm2.74,50.37a2.74,2.74,0,0,1-2.74,2.74H14a7.39,7.39,0,0,0,.85-3.45V26.78A2.74,2.74,0,0,1,17.64,24H92.4a2.74,2.74,0,0,1,2.74,2.74Z" fill="#3ca2d8"/><path d="M52.29,101a8.79,8.79,0,1,1,8.79-8.79A8.8,8.8,0,0,1,52.29,101Zm0-13.58a4.79,4.79,0,1,0,4.79,4.79A4.8,4.8,0,0,0,52.29,87.42Z" fill="#3ca2d8"/><path d="M43.5,92.21a8.77,8.77,0,0,1,.24-2H2a2,2,0,0,0,0,4H43.74A8.77,8.77,0,0,1,43.5,92.21Z" fill="#3ca2d8"/><path d="M97.13,90.21H60.85a8.51,8.51,0,0,1,0,4H97.13a2,2,0,0,0,0-4Z" fill="#3ca2d8"/><path d="M52.29,83.42a8.77,8.77,0,0,1,2,.24V77.15h-4v6.51A8.77,8.77,0,0,1,52.29,83.42Z" fill="#3ca2d8"/></symbol>
<symbol id="thin-hardware" viewBox="0 0 97 97"><title>thin-hardware</title><path d="M80.1,82.1H16.9a2,2,0,0,1-2-2V16.9a2,2,0,0,1,2-2H80.1a2,2,0,0,1,2,2V80.1A2,2,0,0,1,80.1,82.1Zm-61.2-4H78.1V18.9H18.9Z" fill="#3ca2d8"/><path d="M64.33,66.33H32.67a2,2,0,0,1-2-2V32.67a2,2,0,0,1,2-2H64.33a2,2,0,0,1,2,2V64.33A2,2,0,0,1,64.33,66.33Zm-29.65-4H62.33V34.67H34.67Z" fill="#3ca2d8"/><path d="M42.33,11.48a2,2,0,0,1-2-2V2a2,2,0,0,1,4,0V9.48A2,2,0,0,1,42.33,11.48Z" fill="#3ca2d8"/><path d="M67,11.48a2,2,0,0,1-2-2V2a2,2,0,1,1,4,0V9.48A2,2,0,0,1,67,11.48Z" fill="#3ca2d8"/><path d="M54.67,11.48a2,2,0,0,1-2-2V2a2,2,0,0,1,4,0V9.48A2,2,0,0,1,54.67,11.48Z" fill="#3ca2d8"/><path d="M30,11.48a2,2,0,0,1-2-2V2a2,2,0,0,1,4,0V9.48A2,2,0,0,1,30,11.48Z" fill="#3ca2d8"/><path d="M9.48,56.67H2a2,2,0,0,1,0-4H9.48a2,2,0,0,1,0,4Z" fill="#3ca2d8"/><path d="M9.48,32H2a2,2,0,0,1,0-4H9.48a2,2,0,0,1,0,4Z" fill="#3ca2d8"/><path d="M9.48,44.33H2a2,2,0,0,1,0-4H9.48a2,2,0,0,1,0,4Z" fill="#3ca2d8"/><path d="M9.48,69H2a2,2,0,0,1,0-4H9.48a2,2,0,0,1,0,4Z" fill="#3ca2d8"/><path d="M54.67,97a2,2,0,0,1-2-2V87.52a2,2,0,0,1,4,0V95A2,2,0,0,1,54.67,97Z" fill="#3ca2d8"/><path d="M30,97a2,2,0,0,1-2-2V87.52a2,2,0,0,1,4,0V95A2,2,0,0,1,30,97Z" fill="#3ca2d8"/><path d="M42.33,97a2,2,0,0,1-2-2V87.52a2,2,0,0,1,4,0V95A2,2,0,0,1,42.33,97Z" fill="#3ca2d8"/><path d="M67,97a2,2,0,0,1-2-2V87.52a2,2,0,1,1,4,0V95A2,2,0,0,1,67,97Z" fill="#3ca2d8"/><path d="M95,44.33H87.52a2,2,0,0,1,0-4H95a2,2,0,0,1,0,4Z" fill="#3ca2d8"/><path d="M95,69H87.52a2,2,0,0,1,0-4H95a2,2,0,0,1,0,4Z" fill="#3ca2d8"/><path d="M95,56.67H87.52a2,2,0,0,1,0-4H95a2,2,0,0,1,0,4Z" fill="#3ca2d8"/><path d="M95,32H87.52a2,2,0,0,1,0-4H95a2,2,0,0,1,0,4Z" fill="#3ca2d8"/></symbol>
<symbol id="thin-local-network" viewBox="0 0 150.6 102.5"><title>thin-local-network</title><circle cx="75.3" cy="13.75" r="3.24" fill="#3ca2d8"/><circle cx="75.3" cy="80.62" r="3.24" fill="#3ca2d8"/><circle cx="20.19" cy="80.62" r="3.24" fill="#3ca2d8"/><circle cx="129.63" cy="80.62" r="3.24" fill="#3ca2d8"/><path d="M148.6,66.87h-17V52.55a2,2,0,0,0-2-2H77.3V35.64h7.13a2,2,0,0,0,0-4H77.3V27.5h17a2,2,0,0,0,2-2V2a2,2,0,0,0-2-2H56.33a2,2,0,0,0-2,2V25.5a2,2,0,0,0,2,2h17v4.13H66.17a2,2,0,1,0,0,4H73.3V50.55H21a2,2,0,0,0-2,1.91c-.35,7.78-.4,12-.29,14.4H2a2,2,0,0,0-2,2v23.5a2,2,0,0,0,2,2H19V98.5H11.84a2,2,0,1,0,0,4H30.09a2,2,0,0,0,0-4H23V94.37h17a2,2,0,0,0,2-2V68.87a2,2,0,0,0-2-2H22.67c-.09-2.39,0-7.41.21-12.31H73.3V66.87h-17a2,2,0,0,0-2,2v23.5a2,2,0,0,0,2,2h17V98.5H66.17a2,2,0,0,0,0,4H84.42a2,2,0,0,0,0-4H77.3V94.37h17a2,2,0,0,0,2-2V68.87a2,2,0,0,0-2-2h-17V54.55h50.33V66.87h-17a2,2,0,0,0-2,2v23.5a2,2,0,0,0,2,2h17V98.5h-7.12a2,2,0,0,0,0,4h18.25a2,2,0,0,0,0-4h-7.12V94.37h17a2,2,0,0,0,2-2V68.87A2,2,0,0,0,148.6,66.87ZM58.33,4H92.26V23.5H58.33ZM37.93,90.37H4V70.87H37.93Zm54.33,0H58.33V70.87H92.26Zm54.33,0H112.67V70.87H146.6Z" fill="#3ca2d8"/></symbol>
<symbol id="thin-network-protection" viewBox="0 0 89.44 97.08"><title>thin-network-protection</title><path d="M44.72,69.75A21.21,21.21,0,1,1,65.93,48.54,21.24,21.24,0,0,1,44.72,69.75Zm0-38.42A17.21,17.21,0,1,0,61.93,48.54,17.23,17.23,0,0,0,44.72,31.33Z" fill="#3ca2d8"/><path d="M42.42,58.53A2,2,0,0,1,41,57.95l-6.83-6.84A2,2,0,0,1,37,48.28l5.42,5.42L53.54,42.59a2,2,0,1,1,2.83,2.83L43.83,57.95A2,2,0,0,1,42.42,58.53Z" fill="#3ca2d8"/><path d="M44.74,97.08a9.8,9.8,0,0,1-5.67-1.8C28,87.45,1.91,64.37,0,19.23a5.94,5.94,0,0,1,1.67-4.4,6.7,6.7,0,0,1,5.64-2,60.45,60.45,0,0,0,7.28.45c8.41,0,19.74-1.93,26-11.11a5,5,0,0,1,8.35,0c6.22,9.18,17.54,11.11,26,11.11a60.42,60.42,0,0,0,7.28-.45,6.64,6.64,0,0,1,5.61,2,6,6,0,0,1,1.69,4.47c-1.93,45.15-28,68.21-39.14,76A9.6,9.6,0,0,1,44.74,97.08ZM6.48,16.82a2.65,2.65,0,0,0-1.92.78A2,2,0,0,0,4,19.06C5.83,62.42,30.75,84.52,41.38,92a5.85,5.85,0,0,0,6.61,0c10.64-7.48,35.59-29.55,37.44-72.92a2,2,0,0,0-.58-1.53,2.64,2.64,0,0,0-2.24-.76,64.46,64.46,0,0,1-7.77.48c-9.38,0-22.06-2.23-29.26-12.86a1,1,0,0,0-1.72,0C36.66,15.09,24,17.32,14.59,17.32a64.46,64.46,0,0,1-7.77-.48Z" fill="#3ca2d8"/><circle cx="12.23" cy="24.49" r="2.29" fill="#3ca2d8"/><circle cx="44.72" cy="15.35" r="2.29" fill="#3ca2d8"/><circle cx="44.72" cy="85.3" r="2.29" fill="#3ca2d8"/><circle cx="77.2" cy="24.49" r="2.29" fill="#3ca2d8"/></symbol>
<symbol id="thin-network" viewBox="0 0 151.05 97"><title>thin-network</title><path d="M7.56,56.06a7.56,7.56,0,1,1,7.56-7.56A7.57,7.57,0,0,1,7.56,56.06Zm0-11.12a3.56,3.56,0,1,0,3.56,3.56A3.56,3.56,0,0,0,7.56,44.94Z" fill="#3ca2d8"/><path d="M15.55,77.19a7.56,7.56,0,1,1,7.56-7.56A7.57,7.57,0,0,1,15.55,77.19Zm0-11.12a3.56,3.56,0,1,0,3.56,3.56A3.56,3.56,0,0,0,15.55,66.07Z" fill="#3ca2d8"/><path d="M15.41,34.86A7.56,7.56,0,1,1,23,27.3,7.57,7.57,0,0,1,15.41,34.86Zm0-11.12A3.56,3.56,0,1,0,19,27.3,3.56,3.56,0,0,0,15.41,23.74Z" fill="#3ca2d8"/><path d="M118.54,70.85a2,2,0,0,0,.24-.46,48.32,48.32,0,0,0,0-43.77,1.93,1.93,0,0,0-.23-.46,48.46,48.46,0,0,0-86.06,0,2,2,0,0,0-.21.4,48.32,48.32,0,0,0,0,43.84,2,2,0,0,0,.21.4A48.54,48.54,0,0,0,75.51,97h0A48.54,48.54,0,0,0,118.54,70.85ZM55.85,67.7a65.87,65.87,0,0,1-2.69-17.2H73.52V92C67.26,88.94,61.1,81.82,57.21,71.7h9.31v-4ZM31.07,50.5H49.16a71,71,0,0,0,2.49,17.2H35.38A44.2,44.2,0,0,1,31.07,50.5Zm4.31-21.2H51.65a71,71,0,0,0-2.49,17.2H31.07A44.2,44.2,0,0,1,35.38,29.3Zm21.84-4C61.1,15.18,67.26,8.06,73.52,5V46.5H53.16a65.8,65.8,0,0,1,2.69-17.2H66.52v-4ZM77.51,5C83.77,8.06,89.94,15.18,93.82,25.3H77.51Zm0,87.07V71.7H93.82C89.93,81.82,83.77,88.94,77.51,92Zm0-24.33V29.3H95.19a65.88,65.88,0,0,1,2.69,17.2H84.51v4H97.88a65.88,65.88,0,0,1-2.69,17.2ZM120,46.5H101.88a71,71,0,0,0-2.49-17.2h16.27A44.2,44.2,0,0,1,120,46.5Zm-18.09,4H120a44.2,44.2,0,0,1-4.31,17.2H99.39A71,71,0,0,0,101.88,50.5Zm11.6-25.2H98.14C95,16.36,90.15,9.43,84.76,5A44.63,44.63,0,0,1,113.48,25.3ZM66.27,5C60.88,9.43,56.05,16.36,52.9,25.3H37.56A44.65,44.65,0,0,1,66.27,5ZM37.56,71.7H52.9c3.15,8.94,8,15.87,13.37,20.33A44.63,44.63,0,0,1,37.56,71.7ZM84.76,92C90.15,87.57,95,80.64,98.14,71.7h15.34A44.64,44.64,0,0,1,84.76,92Z" fill="#3ca2d8"/><path d="M32.92,71.63c-.15-.27-.29-.53-.43-.8a2,2,0,0,1-.21-.4c-.46-.91-.89-1.85-1.3-2.79H22.83a7.34,7.34,0,0,1,0,4Z" fill="#3ca2d8"/><path d="M27.08,50.5c0-.66-.06-1.33-.06-2s0-1.33.06-2H14.84a7.34,7.34,0,0,1,0,4Z" fill="#3ca2d8"/><path d="M31,29.3c.4-.92.82-1.83,1.27-2.72a2,2,0,0,1,.21-.4L33,25.3H22.71a7.34,7.34,0,0,1,0,4Z" fill="#3ca2d8"/><path d="M135.94,48.5a7.56,7.56,0,1,1,7.56,7.56A7.57,7.57,0,0,1,135.94,48.5Zm4,0a3.56,3.56,0,1,0,3.56-3.56A3.56,3.56,0,0,0,139.93,48.5Z" fill="#3ca2d8"/><path d="M127.94,69.63a7.56,7.56,0,1,1,7.56,7.56A7.57,7.57,0,0,1,127.94,69.63Zm4,0a3.56,3.56,0,1,0,3.56-3.56A3.56,3.56,0,0,0,131.94,69.63Z" fill="#3ca2d8"/><path d="M128.08,27.3a7.56,7.56,0,1,1,7.56,7.56A7.57,7.57,0,0,1,128.08,27.3Zm4,0a3.56,3.56,0,1,0,3.56-3.56A3.56,3.56,0,0,0,132.08,27.3Z" fill="#3ca2d8"/><path d="M118.13,71.63c.15-.27.29-.53.43-.8a2,2,0,0,0,.21-.4c.46-.91.89-1.85,1.3-2.79h8.14a7.34,7.34,0,0,0,0,4Z" fill="#3ca2d8"/><path d="M124,50.5c0-.66.06-1.33.06-2s0-1.33-.06-2h12.24a7.34,7.34,0,0,0,0,4Z" fill="#3ca2d8"/><path d="M120,29.3c-.4-.92-.82-1.83-1.27-2.72a2,2,0,0,0-.21-.4c-.15-.3-.32-.59-.48-.88h10.25a7.34,7.34,0,0,0,0,4Z" fill="#3ca2d8"/></symbol>
<symbol id="thin-optimisation" viewBox="0 0 120.9 96.91"><title>thin-optimisation</title><circle cx="15.37" cy="11.55" r="3.18" fill="#3ca2d8"/><circle cx="28.43" cy="11.55" r="3.18" fill="#3ca2d8"/><circle cx="41.49" cy="11.55" r="3.18" fill="#3ca2d8"/><rect x="4.06" y="18.67" width="96.23" height="4" fill="#3ca2d8"/><path d="M56.64,81.54a9.05,9.05,0,0,1,.26-2.13H7.38a3.36,3.36,0,0,1-3.38-3V7A3,3,0,0,1,7,4h90.2a3,3,0,0,1,3,3V31.8a8.93,8.93,0,0,1,.84,2,8.91,8.91,0,0,1,3.16-1.09V7a7,7,0,0,0-7-7H7A7,7,0,0,0,0,7V76.45c0,3.84,3.54,7,7.38,7H56.84A9.12,9.12,0,0,1,56.64,81.54Z" fill="#3ca2d8"/><path d="M92.34,96.91H84.44a4.32,4.32,0,0,1-4.32-4.32V91A2.9,2.9,0,0,0,75.44,89L74.3,90.18a4.32,4.32,0,0,1-6.1,0l-5.59-5.59a4.32,4.32,0,0,1,0-6.1l1.13-1.13a2.63,2.63,0,0,0,.42-2.89,2.68,2.68,0,0,0-2.36-1.79H60.2a4.32,4.32,0,0,1-4.32-4.31V60.45a4.31,4.31,0,0,1,4.31-4.32h1.6a2.68,2.68,0,0,0,2.36-1.79,2.63,2.63,0,0,0-.41-2.89l-1.14-1.14a4.32,4.32,0,0,1,0-6.1l5.59-5.59a4.32,4.32,0,0,1,6.1,0l1.14,1.14a2.9,2.9,0,0,0,4.68-1.94v-1.6a4.32,4.32,0,0,1,4.32-4.32h7.91a4.32,4.32,0,0,1,4.32,4.32v1.6a2.9,2.9,0,0,0,4.68,1.94l1.13-1.13a4.31,4.31,0,0,1,6.1,0l5.59,5.59a4.31,4.31,0,0,1,0,6.1L113,51.45a2.63,2.63,0,0,0-.42,2.89A2.68,2.68,0,0,0,115,56.13h1.6a4.32,4.32,0,0,1,4.32,4.31v7.91a4.32,4.32,0,0,1-4.32,4.32H115a2.68,2.68,0,0,0-2.36,1.79,2.63,2.63,0,0,0,.41,2.89l1.13,1.13a4.32,4.32,0,0,1,0,6.1l-5.59,5.59a4.31,4.31,0,0,1-6.1,0L101.34,89A2.9,2.9,0,0,0,96.66,91v1.6A4.32,4.32,0,0,1,92.34,96.91ZM77.13,84.39a7.07,7.07,0,0,1,2.73.55A6.66,6.66,0,0,1,84.12,91v1.6a.32.32,0,0,0,.32.32h7.91a.32.32,0,0,0,.32-.32V91a6.65,6.65,0,0,1,4.25-6,7.16,7.16,0,0,1,2.73-.55,6.33,6.33,0,0,1,4.52,1.83l1.13,1.13a.28.28,0,0,0,.45,0l5.59-5.59a.32.32,0,0,0,0-.45l-1.13-1.13A6.88,6.88,0,0,1,115,68.67h1.6a.31.31,0,0,0,.32-.31V60.45a.32.32,0,0,0-.32-.32H115a6.88,6.88,0,0,1-4.77-11.51l1.13-1.13a.31.31,0,0,0,0-.44l-5.59-5.6a.28.28,0,0,0-.45,0l-1.14,1.14a6.34,6.34,0,0,1-4.53,1.83,7.08,7.08,0,0,1-2.73-.55,6.65,6.65,0,0,1-4.25-6v-1.6a.32.32,0,0,0-.32-.32H84.44a.32.32,0,0,0-.32.32v1.6a6.65,6.65,0,0,1-4.25,6,7.18,7.18,0,0,1-2.73.55,6.34,6.34,0,0,1-4.52-1.83l-1.14-1.14a.28.28,0,0,0-.45,0L65.44,47a.32.32,0,0,0,0,.45l1.13,1.14A6.88,6.88,0,0,1,61.8,60.13H60.2a.31.31,0,0,0-.31.31v7.91a.32.32,0,0,0,.32.32h1.6a6.88,6.88,0,0,1,4.77,11.51l-1.13,1.13a.32.32,0,0,0,0,.45L71,87.36a.28.28,0,0,0,.45,0l1.14-1.13A6.34,6.34,0,0,1,77.13,84.39Z" fill="#3ca2d8"/><path d="M89.07,80.71a16.31,16.31,0,1,1,16.3-16.3A16.32,16.32,0,0,1,89.07,80.71Zm0-28.61a12.31,12.31,0,1,0,12.3,12.31A12.32,12.32,0,0,0,89.07,52.1Z" fill="#3ca2d8"/></symbol>
<symbol id="thin-protection" viewBox="0 0 118.98 90.09"><title>Untitled-44</title><path d="M91.57,21.2l-.76,0a31.05,31.05,0,0,0-1.37-3.5,31,31,0,0,0-57.22,2.94,30.76,30.76,0,0,0-1.66,8A28.37,28.37,0,0,0,24,28a24,24,0,1,0,0,48l.16,0,.16,0h4a2,2,0,0,0,0-4h-4l-.16,0L24,72a20,20,0,1,1,0-40,23.16,23.16,0,0,1,13.27,4l.9.54a2,2,0,0,0,2-3.45l-.86-.51A37.28,37.28,0,0,0,34.51,30,26.85,26.85,0,0,1,61.44,4,27.11,27.11,0,0,1,85.83,19.43c.34.71.64,1.45.92,2.19a27,27,0,0,0-7.45,2.48,2,2,0,1,0,1.8,3.57A23.15,23.15,0,0,1,91.57,25.2a23.4,23.4,0,1,1,0,46.81,2,2,0,0,0,0,4,27.4,27.4,0,1,0,0-54.81Z" fill="#3ca2d8"/><path d="M74.55,90.09H45.25a2,2,0,0,1-2-2V65.32a2,2,0,0,1,2-2h29.3a2,2,0,0,1,2,2V88.09A2,2,0,0,1,74.55,90.09Zm-27.3-4h25.3V67.32H47.25Z" fill="#3ca2d8"/><path d="M51.91,63.32v-6.2a8,8,0,0,1,16,0v6.2h4v-6.2a12,12,0,0,0-24,0v6.2Z" fill="#3ca2d8"/></symbol>
<symbol id="thin-server-error" viewBox="0 0 104.21 83.41"><title>thin-server-error</title><rect x="4.06" y="18.67" width="96.23" height="4" fill="#3ca2d8"/><path d="M97.18,0H7A7,7,0,0,0,0,7V76.45c0,3.84,3.54,7,7.38,7H97.63c1.87,0,3.62-1.32,4.94-2.65a6.64,6.64,0,0,0,1.64-5V7A7,7,0,0,0,97.18,0Zm2.54,78c-.56.57-1.31,1.46-2.12,1.46H7.38a3.36,3.36,0,0,1-3.38-3V7A3,3,0,0,1,7,4H97.18a3,3,0,0,1,3,3V75.83A2.73,2.73,0,0,1,99.72,78Z" fill="#3ca2d8"/><circle cx="39.84" cy="11.13" r="3.24" fill="#3ca2d8"/><circle cx="27.67" cy="11.13" r="3.24" fill="#3ca2d8"/><circle cx="15.5" cy="11.13" r="3.24" fill="#3ca2d8"/><path d="M34.84,37.17a2,2,0,0,0-2,2v9.5h-8.2v-9.5a2,2,0,0,0-4,0v11.5a2,2,0,0,0,2,2h10.2V62.74a2,2,0,0,0,4,0V39.17A2,2,0,0,0,34.84,37.17Z" fill="#3ca2d8"/><path d="M79.45,37.17a2,2,0,0,0-2,2v9.5h-8.2v-9.5a2,2,0,0,0-4,0v11.5a2,2,0,0,0,2,2h10.2V62.74a2,2,0,0,0,4,0V39.17A2,2,0,0,0,79.45,37.17Z" fill="#3ca2d8"/><path d="M58.14,64.74H44.61a2,2,0,0,1-2-2V39.17a2,2,0,0,1,2-2H58.14a2,2,0,0,1,2,2V62.74A2,2,0,0,1,58.14,64.74Zm-11.54-4h9.54V41.17H46.61Z" fill="#3ca2d8"/></symbol>
<symbol id="thin-server" viewBox="0 0 94 100.61"><title>thin-server</title><path d="M79.5,15.32H68.75a2,2,0,0,1,0-4H79.5a2,2,0,0,1,0,4Z" fill="#3ca2d8"/><path d="M79.5,46.64H68.75a2,2,0,0,1,0-4H79.5a2,2,0,0,1,0,4Z" fill="#3ca2d8"/><path d="M79.5,78H68.75a2,2,0,0,1,0-4H79.5a2,2,0,0,1,0,4Z" fill="#3ca2d8"/><path d="M11.25,18.82a2,2,0,0,1-2-2V10.07a2,2,0,1,1,4,0v6.75A2,2,0,0,1,11.25,18.82Z" fill="#3ca2d8"/><path d="M19.75,18.82a2,2,0,0,1-2-2V10.07a2,2,0,1,1,4,0v6.75A2,2,0,0,1,19.75,18.82Z" fill="#3ca2d8"/><path d="M28.25,18.82a2,2,0,0,1-2-2V10.07a2,2,0,1,1,4,0v6.75A2,2,0,0,1,28.25,18.82Z" fill="#3ca2d8"/><path d="M36.75,18.82a2,2,0,0,1-2-2V10.07a2,2,0,1,1,4,0v6.75A2,2,0,0,1,36.75,18.82Z" fill="#3ca2d8"/><path d="M11.25,50a2,2,0,0,1-2-2V41.26a2,2,0,1,1,4,0V48A2,2,0,0,1,11.25,50Z" fill="#3ca2d8"/><path d="M19.75,50a2,2,0,0,1-2-2V41.26a2,2,0,1,1,4,0V48A2,2,0,0,1,19.75,50Z" fill="#3ca2d8"/><path d="M28.25,50a2,2,0,0,1-2-2V41.26a2,2,0,1,1,4,0V48A2,2,0,0,1,28.25,50Z" fill="#3ca2d8"/><path d="M36.75,50a2,2,0,0,1-2-2V41.26a2,2,0,1,1,4,0V48A2,2,0,0,1,36.75,50Z" fill="#3ca2d8"/><path d="M11.25,81.2a2,2,0,0,1-2-2V72.45a2,2,0,1,1,4,0V79.2A2,2,0,0,1,11.25,81.2Z" fill="#3ca2d8"/><path d="M19.75,81.2a2,2,0,0,1-2-2V72.45a2,2,0,1,1,4,0V79.2A2,2,0,0,1,19.75,81.2Z" fill="#3ca2d8"/><path d="M28.25,81.2a2,2,0,0,1-2-2V72.45a2,2,0,1,1,4,0V79.2A2,2,0,0,1,28.25,81.2Z" fill="#3ca2d8"/><path d="M36.75,81.2a2,2,0,0,1-2-2V72.45a2,2,0,1,1,4,0V79.2A2,2,0,0,1,36.75,81.2Z" fill="#3ca2d8"/><rect x="79.5" y="26.65" width="4" height="4.67" fill="#3ca2d8"/><rect x="10.5" y="26.65" width="4" height="4.67" fill="#3ca2d8"/><rect x="10.5" y="57.96" width="4" height="4.67" fill="#3ca2d8"/><rect x="79.5" y="57.96" width="4" height="4.67" fill="#3ca2d8"/><path d="M92,26.65H2a2,2,0,0,1-2-2V2A2,2,0,0,1,2,0H92a2,2,0,0,1,2,2V24.65A2,2,0,0,1,92,26.65Zm-88-4H90V4H4Z" fill="#3ca2d8"/><path d="M92,89.27H2a2,2,0,0,1-2-2V64.63a2,2,0,0,1,2-2H92a2,2,0,0,1,2,2V87.27A2,2,0,0,1,92,89.27Zm-88-4H90V66.63H4Z" fill="#3ca2d8"/><path d="M92,58H2a2,2,0,0,1-2-2V33.31a2,2,0,0,1,2-2H92a2,2,0,0,1,2,2V56A2,2,0,0,1,92,58ZM4,54H90V35.31H4Z" fill="#3ca2d8"/><path d="M79.5,89.27v7.33h-65V89.27h-4v9.33a2,2,0,0,0,2,2h69a2,2,0,0,0,2-2V89.27Z" fill="#3ca2d8"/></symbol>
<symbol id="thin-settings" viewBox="0 0 97.08 97.08"><title>thin-settings</title><path d="M54.57,97.08H42.51A5.54,5.54,0,0,1,37,91.55V89.1a5.13,5.13,0,0,0-3.38-4.57,5.84,5.84,0,0,0-2.23-.45A4.65,4.65,0,0,0,28,85.4l-1.73,1.73a5.53,5.53,0,0,1-7.83,0L10,78.6a5.53,5.53,0,0,1,0-7.83L11.68,69a5.05,5.05,0,0,0,.86-5.56A5.13,5.13,0,0,0,8,60.1H5.53A5.54,5.54,0,0,1,0,54.57V42.51A5.53,5.53,0,0,1,5.53,37H8a5.13,5.13,0,0,0,4.57-3.38A5.05,5.05,0,0,0,11.69,28L10,26.31a5.54,5.54,0,0,1,0-7.83L18.48,10a5.53,5.53,0,0,1,7.82,0L28,11.68A4.65,4.65,0,0,0,31.37,13a5.85,5.85,0,0,0,2.23-.45A5.13,5.13,0,0,0,37,8V5.53A5.54,5.54,0,0,1,42.51,0H54.57a5.54,5.54,0,0,1,5.53,5.53V8a5.13,5.13,0,0,0,3.38,4.57,5.85,5.85,0,0,0,2.23.45A4.66,4.66,0,0,0,69,11.68L70.77,10a5.53,5.53,0,0,1,7.83,0l8.53,8.53a5.53,5.53,0,0,1,0,7.82L85.39,28a5.05,5.05,0,0,0-.86,5.56A5.13,5.13,0,0,0,89.11,37h2.44a5.54,5.54,0,0,1,5.54,5.53V54.57a5.53,5.53,0,0,1-5.53,5.53H89.11a5.14,5.14,0,0,0-4.57,3.38A5.06,5.06,0,0,0,85.39,69l1.73,1.73a5.54,5.54,0,0,1,0,7.82L78.6,87.13a5.53,5.53,0,0,1-7.82,0L69,85.4a4.65,4.65,0,0,0-3.33-1.31,5.86,5.86,0,0,0-2.23.45,5.13,5.13,0,0,0-3.38,4.57v2.44A5.54,5.54,0,0,1,54.57,97.08Zm-23.2-17a9.9,9.9,0,0,1,3.77.76A9.11,9.11,0,0,1,41,89.1v2.44a1.53,1.53,0,0,0,1.53,1.53H54.57a1.53,1.53,0,0,0,1.53-1.53V89.11a9.1,9.1,0,0,1,5.84-8.26,9.88,9.88,0,0,1,3.76-.76,8.62,8.62,0,0,1,6.16,2.48L73.6,84.3a1.57,1.57,0,0,0,2.16,0l8.53-8.53a1.54,1.54,0,0,0,0-2.17l-1.73-1.73a9.45,9.45,0,0,1,6.54-15.77h2.44a1.53,1.53,0,0,0,1.53-1.53V42.51A1.54,1.54,0,0,0,91.54,41H89.11a9.11,9.11,0,0,1-8.26-5.84,9,9,0,0,1,1.72-9.92l1.73-1.73a1.53,1.53,0,0,0,0-2.16l-8.53-8.53a1.57,1.57,0,0,0-2.17,0l-1.73,1.73A8.63,8.63,0,0,1,65.71,17a9.89,9.89,0,0,1-3.76-.76A9.11,9.11,0,0,1,56.11,8V5.53A1.53,1.53,0,0,0,54.57,4H42.51A1.53,1.53,0,0,0,41,5.53V8a9.11,9.11,0,0,1-5.84,8.26,9.89,9.89,0,0,1-3.76.76,8.62,8.62,0,0,1-6.16-2.48l-1.73-1.73a1.57,1.57,0,0,0-2.17,0l-8.53,8.53a1.54,1.54,0,0,0,0,2.17l1.73,1.73a9,9,0,0,1,1.72,9.92A9.1,9.1,0,0,1,8,41H5.53A1.53,1.53,0,0,0,4,42.51V54.57A1.54,1.54,0,0,0,5.53,56.1H8a9.11,9.11,0,0,1,8.26,5.84,9,9,0,0,1-1.72,9.92L12.78,73.6a1.53,1.53,0,0,0,0,2.17l8.53,8.53a1.57,1.57,0,0,0,2.17,0l1.73-1.73A8.62,8.62,0,0,1,31.37,80.09Z" fill="#3ca2d8"/><path d="M49.57,72.46a23.92,23.92,0,1,1,12-44.61,2,2,0,1,1-2,3.46,19.91,19.91,0,1,0,8.35,9.48,2,2,0,1,1,3.68-1.56,23.93,23.93,0,0,1-22,33.23Z" fill="#3ca2d8"/><path d="M49.57,58.53a10,10,0,1,1,10-10A10,10,0,0,1,49.57,58.53Zm0-16a6,6,0,1,0,6,6A6,6,0,0,0,49.57,42.55Z" fill="#3ca2d8"/></symbol>
<symbol id="thin-speed" viewBox="0 0 97.08 97.08"><title>thin-speed</title><path d="M64,32.84a2,2,0,0,0-2.83-.06l-8.45,8.1a8.76,8.76,0,1,0,3,2.68l8.23-7.88A2,2,0,0,0,64,32.84ZM48.54,53.26a4.72,4.72,0,1,1,4.72-4.72A4.72,4.72,0,0,1,48.54,53.26Z" fill="#3ca2d8"/><path d="M17.91,46.51h-7c0,.67-.06,1.35-.06,2a37.45,37.45,0,0,0,3.11,15A2,2,0,1,0,17.6,62a33.39,33.39,0,0,1-2.72-11.43h3a2,2,0,0,0,2-2A2,2,0,0,0,17.91,46.51Z" fill="#3ca2d8"/><path d="M28.34,25.56l-2.2-2.2h0l-2.83-2.83A37.72,37.72,0,0,0,11.43,41.82H15.5a33.59,33.59,0,0,1,7.84-15.61l2.18,2.18a2,2,0,1,0,2.83-2.83Z" fill="#3ca2d8"/><path d="M27,17.6l2.88,2.88A33.5,33.5,0,0,1,46.54,14.9v3a2,2,0,0,0,4,0v-7c-.66,0-1.33-.05-2-.05A37.48,37.48,0,0,0,27,17.6Z" fill="#3ca2d8"/><path d="M55.23,11.43v4.06a33.59,33.59,0,0,1,15.66,7.87l-2.11,2.11a2,2,0,1,0,2.83,2.83l2.13-2.12h0l2.83-2.83A37.71,37.71,0,0,0,55.23,11.43Z" fill="#3ca2d8"/><path d="M86.26,48.54h0A37.48,37.48,0,0,0,79.5,27l-2.88,2.88a33.5,33.5,0,0,1,5.56,16.62h-3a2,2,0,0,0,0,4h7c0-.66.05-1.32.05-2Z" fill="#3ca2d8"/><path d="M81.59,55.23a33.36,33.36,0,0,1-2.29,7.15A2,2,0,0,0,82.94,64a37.38,37.38,0,0,0,2.72-8.8Z" fill="#3ca2d8"/><path d="M48.54,97.08A48.54,48.54,0,1,1,85.77,79.69a2,2,0,0,1-3.07-2.57,44.52,44.52,0,1,0-7.62,7.19,2,2,0,0,1,2.39,3.21A48.14,48.14,0,0,1,48.54,97.08Z" fill="#3ca2d8"/><path d="M62.81,68.9a2,2,0,0,0-1.6.79c-2.14,2.83-7.11,4.66-12.68,4.66S38,72.53,35.86,69.7a2,2,0,0,0-1.6-.79H8.95a44.39,44.39,0,0,0,2.33,4h22c3.13,3.44,8.71,5.46,15.21,5.46s12.08-2,15.21-5.46H85.82a44.37,44.37,0,0,0,2.33-4Z" fill="#3ca2d8"/></symbol>
<symbol id="thin-ssd" viewBox="0 0 70.94 97"><title>thin-ssd</title><path d="M16.06,48.9a15,15,0,0,1-2.86-1V44.84a12,12,0,0,0,5.57,1.68,3.39,3.39,0,0,0,2-.53,1.71,1.71,0,0,0,.76-1.49,1.65,1.65,0,0,0-.42-1.14,3.33,3.33,0,0,0-1-.77q-.62-.3-1.78-.73a20.49,20.49,0,0,1-2.54-1.1A4.9,4.9,0,0,1,14,39.26a4.21,4.21,0,0,1-.7-2.51,4.27,4.27,0,0,1,1.56-3.52A6.61,6.61,0,0,1,19.18,32a11.34,11.34,0,0,1,2.5.28,9.54,9.54,0,0,1,2.26.8v3a9.65,9.65,0,0,0-4.68-1.34,3.66,3.66,0,0,0-2,.44,1.41,1.41,0,0,0-.71,1.26,1.45,1.45,0,0,0,.73,1.28,11.91,11.91,0,0,0,2.27,1,22.3,22.3,0,0,1,2.64,1.15A5.29,5.29,0,0,1,24,41.47a4.74,4.74,0,0,1,.8,2.7,4.62,4.62,0,0,1-1.61,3.73,6.45,6.45,0,0,1-4.3,1.36A12.39,12.39,0,0,1,16.06,48.9Z" fill="#3ca2d8"/><path d="M31.42,48.9a15,15,0,0,1-2.86-1V44.84a12,12,0,0,0,5.57,1.68,3.39,3.39,0,0,0,2-.53,1.71,1.71,0,0,0,.76-1.49,1.65,1.65,0,0,0-.42-1.14,3.33,3.33,0,0,0-1-.77q-.62-.3-1.78-.73a20.49,20.49,0,0,1-2.54-1.1,4.9,4.9,0,0,1-1.68-1.5,4.21,4.21,0,0,1-.7-2.51,4.27,4.27,0,0,1,1.56-3.52A6.61,6.61,0,0,1,34.54,32a11.34,11.34,0,0,1,2.5.28,9.54,9.54,0,0,1,2.26.8v3a9.65,9.65,0,0,0-4.68-1.34,3.66,3.66,0,0,0-2,.44,1.41,1.41,0,0,0-.71,1.26,1.45,1.45,0,0,0,.73,1.28,11.91,11.91,0,0,0,2.27,1,22.29,22.29,0,0,1,2.64,1.15,5.29,5.29,0,0,1,1.79,1.6,4.74,4.74,0,0,1,.8,2.7,4.62,4.62,0,0,1-1.61,3.73,6.45,6.45,0,0,1-4.3,1.36A12.39,12.39,0,0,1,31.42,48.9Z" fill="#3ca2d8"/><path d="M55,33.28a6.75,6.75,0,0,1,2.81,2.9,9.63,9.63,0,0,1,1,4.43,9.63,9.63,0,0,1-1,4.43A6.74,6.74,0,0,1,55,47.95a9,9,0,0,1-4.42,1H44.45V32.26h6.17A9,9,0,0,1,55,33.28Zm-.85,11.46a6,6,0,0,0,1.28-4.13,6,6,0,0,0-1.28-4.13,4.57,4.57,0,0,0-3.56-1.42h-3V46.16h3A4.57,4.57,0,0,0,54.18,44.75Z" fill="#3ca2d8"/><circle cx="13.43" cy="13.62" r="3.24" fill="#3ca2d8"/><circle cx="57.7" cy="13.62" r="3.24" fill="#3ca2d8"/><path d="M58.7,82.27H47.25a2,2,0,0,0,0,4H58.7a2,2,0,0,0,0-4Z" fill="#3ca2d8"/><path d="M63.94,0H7A7,7,0,0,0,0,7V88.72A8.28,8.28,0,0,0,8.28,97H62.66a8.28,8.28,0,0,0,8.28-8.28V7A7,7,0,0,0,63.94,0ZM7,4H63.94a3,3,0,0,1,3,3V72.75a8.22,8.22,0,0,0-4.28-1.2H8.28A8.22,8.22,0,0,0,4,72.75V7A3,3,0,0,1,7,4ZM66.94,88.72A4.28,4.28,0,0,1,62.66,93H8.28A4.28,4.28,0,0,1,4,88.72V79.82a4.28,4.28,0,0,1,4.28-4.28H62.66a4.28,4.28,0,0,1,4.28,4.28v8.91Z" fill="#3ca2d8"/></symbol>
<symbol id="thin-ssl" viewBox="0 0 85.59 108.38"><title>thin-ssl</title><path d="M46.45,97H2a2,2,0,0,1-2-2V23.42A2,2,0,0,1,.59,22L22,.59A2,2,0,0,1,23.42,0H68.94a2,2,0,0,1,2,2V57.3a2,2,0,1,1-4,0V4H24.25L4,24.25V93H46.45a2,2,0,0,1,0,4Z" fill="#3ca2d8"/><path d="M19.06,55.15a15.06,15.06,0,0,1-2.86-1V51.09a12,12,0,0,0,5.57,1.68,3.39,3.39,0,0,0,2-.53,1.71,1.71,0,0,0,.76-1.49,1.65,1.65,0,0,0-.42-1.14,3.33,3.33,0,0,0-1-.77q-.63-.3-1.78-.73A20.49,20.49,0,0,1,18.72,47,4.9,4.9,0,0,1,17,45.51a4.21,4.21,0,0,1-.7-2.51,4.26,4.26,0,0,1,1.56-3.52,6.61,6.61,0,0,1,4.27-1.26,11.34,11.34,0,0,1,2.5.28,9.52,9.52,0,0,1,2.26.8v3A9.65,9.65,0,0,0,22.25,41a3.66,3.66,0,0,0-2,.44,1.41,1.41,0,0,0-.71,1.26A1.45,1.45,0,0,0,20.32,44a11.89,11.89,0,0,0,2.27,1,22.29,22.29,0,0,1,2.64,1.15A5.29,5.29,0,0,1,27,47.72a4.75,4.75,0,0,1,.8,2.7,4.62,4.62,0,0,1-1.61,3.73,6.45,6.45,0,0,1-4.3,1.36A12.4,12.4,0,0,1,19.06,55.15Z" fill="#3ca2d8"/><path d="M34.42,55.15a15,15,0,0,1-2.86-1V51.09a12,12,0,0,0,5.57,1.68,3.39,3.39,0,0,0,2-.53,1.71,1.71,0,0,0,.76-1.49,1.65,1.65,0,0,0-.42-1.14,3.32,3.32,0,0,0-1-.77q-.63-.3-1.78-.73A20.53,20.53,0,0,1,34.08,47a4.89,4.89,0,0,1-1.68-1.5A4.2,4.2,0,0,1,31.7,43a4.27,4.27,0,0,1,1.56-3.52,6.61,6.61,0,0,1,4.27-1.26,11.33,11.33,0,0,1,2.5.28,9.52,9.52,0,0,1,2.26.8v3A9.65,9.65,0,0,0,37.61,41a3.65,3.65,0,0,0-2,.44,1.41,1.41,0,0,0-.71,1.26A1.45,1.45,0,0,0,35.68,44a12,12,0,0,0,2.27,1,22.31,22.31,0,0,1,2.64,1.15,5.29,5.29,0,0,1,1.79,1.6,4.74,4.74,0,0,1,.8,2.7,4.62,4.62,0,0,1-1.61,3.73,6.45,6.45,0,0,1-4.3,1.36A12.38,12.38,0,0,1,34.42,55.15Z" fill="#3ca2d8"/><path d="M47.45,38.51h3.17V52.43h7v2.78H47.45Z" fill="#3ca2d8"/><path d="M23.42,25.42H11a2,2,0,0,1,0-4H21.42V11a2,2,0,1,1,4,0V23.42A2,2,0,0,1,23.42,25.42Z" fill="#3ca2d8"/><path d="M83.59,108.38H54.29a2,2,0,0,1-2-2V83.62a2,2,0,0,1,2-2h29.3a2,2,0,0,1,2,2v22.77A2,2,0,0,1,83.59,108.38Zm-27.3-4h25.3V85.62H56.29Z" fill="#3ca2d8"/><path d="M61,81.62v-6.2a8,8,0,0,1,16,0v6.2h4v-6.2a12,12,0,0,0-24,0v6.2Z" fill="#3ca2d8"/></symbol>
<symbol id="thin-web-tools" viewBox="0 0 97.09 96"><title>thin-web-tools</title><path d="M83.84,96a8,8,0,0,1-5.72-2.37L33.93,49.44a25.45,25.45,0,0,1-32-33.73,2,2,0,0,1,3.26-.65L19.1,29,29,19.09,15.08,5.19a2,2,0,0,1,.65-3.26A25.43,25.43,0,0,1,50,32.26L94.72,77a8.1,8.1,0,0,1,0,11.44l-5.17,5.17A8,8,0,0,1,83.84,96ZM34.42,45.11a2,2,0,0,1,1.41.59L80.94,90.81a4.1,4.1,0,0,0,5.79,0l5.17-5.17a4.1,4.1,0,0,0,0-5.78L46.28,34.24a2,2,0,0,1-.48-2A21.44,21.44,0,0,0,20.2,4.65l13,13a2,2,0,0,1,0,2.83L20.52,33.21a2,2,0,0,1-2.83,0l-13-13a21.46,21.46,0,0,0,29,25.08A2,2,0,0,1,34.42,45.11Z" fill="#3ca2d8"/><path d="M95.73.83a2,2,0,0,0-2-.49l-21.78,7-.06,0a1.91,1.91,0,0,0-.34.16l-.08,0a2,2,0,0,0-.32.26L57.64,21.31a32.27,32.27,0,0,1,.23,5.43L72.53,12.08,84.47,24,68,40.45l2.83,2.83L88.72,25.44a1.94,1.94,0,0,0,.26-.33l0-.06a1.86,1.86,0,0,0,.17-.36l0-.05,7-21.78A2,2,0,0,0,95.73.83ZM86.4,20.29,76.26,10.15l15-4.81Z" fill="#3ca2d8"/><path d="M17.57,90.93,5.62,79,26.76,57.86c-.44,0-.87,0-1.31,0a32.88,32.88,0,0,1-4.12-.27l-20,20a2,2,0,0,0,0,2.83L16.15,95.17a2,2,0,0,0,2.83,0L44.37,69.79,41.54,67Z" fill="#3ca2d8"/><rect x="20.82" y="65.29" width="4" height="16.89" transform="translate(-45.45 37.72) rotate(-44.99)" fill="#3ca2d8"/><polygon points="31.61 82.54 31.62 82.53 31.63 82.52 31.61 82.54" fill="#3ca2d8"/><polygon points="14.03 64.92 14.02 64.93 14.02 64.94 14.03 64.92" fill="#3ca2d8"/></symbol>
<symbol id="thin-wireless-antenna" viewBox="0 0 70.05 102"><title>thin-wireless-antenna</title><path d="M12.21,61.59a2,2,0,1,0,2.61-3,31,31,0,1,1,40.26.12,2,2,0,0,0,2.59,3,35,35,0,1,0-45.46-.14Z" fill="#3ca2d8"/><path d="M48.56,50a2,2,0,0,0,2.82-.14,22.05,22.05,0,1,0-32.73,0,2,2,0,1,0,3-2.68,18.05,18.05,0,1,1,26.79,0A2,2,0,0,0,48.56,50Z" fill="#3ca2d8"/><path d="M40.25,42.95a9.5,9.5,0,1,0-10.45,0h0L7.92,99.28a2,2,0,1,0,3.73,1.45l5-12.91a2,2,0,0,0,.31,0H53.08a2,2,0,0,0,.31,0l5,12.91a2,2,0,1,0,3.73-1.45ZM35,29.53a5.5,5.5,0,1,1-5.5,5.5A5.5,5.5,0,0,1,35,29.53Zm4.38,13.91-.07,0Zm-.91.41,0,0Zm-1,.32h0Zm-5.92-.31h0Zm-.89-.4-.07,0Zm2.82.92a8.69,8.69,0,0,0,3,0l7.75,19.95H25.78ZM18.2,83.84l6-15.54a2,2,0,0,0,.33,0H45.48a2,2,0,0,0,.33,0l6,15.54Z" fill="#3ca2d8"/></symbol>
<symbol id="tools" viewBox="0 0 30.63 30.63"><title>tools</title><path d="M12.2,13.6l.8-.8v0l1.71,1.71,1.58-1.58L15,11.57h0L9.69,6.31A4.62,4.62,0,0,0,4,.72L6.54,3.29A2.3,2.3,0,1,1,3.29,6.54L.72,4A4.62,4.62,0,0,0,6.31,9.69l5.77,5.77a1.18,1.18,0,0,0,.1-.46Z" fill="#fff" stroke="#fff" stroke-linecap="round" stroke-linejoin="round" stroke-width="1.1"/><path d="M28.6,21.45a5,5,0,0,0-5-1.25l-6.08-6.08L15.93,15.7l1.71,1.71h0l-.8.8-1.41,0a1.18,1.18,0,0,0-.46.1l3,3h0l2.25,2.25a5,5,0,1,0,8.4-2.14Z" fill="#fff" stroke="#fff" stroke-linecap="round" stroke-linejoin="round" stroke-width="1.1"/><circle cx="25.02" cy="25.02" r="2.58" transform="translate(-10.36 25.02) rotate(-45)" fill="#a7d0ef" stroke="#a7d0ef" stroke-linecap="round" stroke-linejoin="round" stroke-width="1.1"/><path d="M15.93,15.7l1.58-1.58,8.55-8.55h0l1-.5a2.82,2.82,0,0,0,1.3-1.27l1.18-2.34-.16-.16L29.11,1,28.94.85,26.61,2a2.82,2.82,0,0,0-1.27,1.3l-.5,1h0L16.29,12.9l-1.58,1.58Z" fill="#a7d0ef" stroke="#a7d0ef" stroke-linecap="round" stroke-linejoin="round" stroke-width="1.1"/><path d="M16.81,18.21l.8-.8h0L15.93,15.7l-1.22-1.22L13,12.77v0l-.8.8,0,1.41a1.21,1.21,0,0,1-1.08,1.18l-1.37.13a.75.75,0,0,0-.46.22L1.85,23.95a.75.75,0,0,0,0,1.07L5.4,28.56a.75.75,0,0,0,1.07,0l7.41-7.42a.75.75,0,0,0,.22-.46l.13-1.37a1.21,1.21,0,0,1,1.18-1.08Z" fill="#a7d0ef" stroke="#a7d0ef" stroke-linecap="round" stroke-linejoin="round" stroke-width="1.1"/><line x1="10.46" y1="18.48" x2="4.15" y2="24.8" fill="none" stroke="#fff" stroke-linecap="round" stroke-linejoin="round" stroke-width="1.1"/><line x1="12.06" y1="20.08" x2="5.74" y2="26.39" fill="none" stroke="#fff" stroke-linecap="round" stroke-linejoin="round" stroke-width="1.1"/></symbol>
</svg>