<svg xmlns="http://www.w3.org/2000/svg" xmlns:xlink="http://www.w3.org/1999/xlink" viewBox="0 0 1455 903"><defs><filter id="a" x="6.6" y="-0.7" width="100.8" height="101.3" name="filter-2"><feMorphology result="shadowSpreadInner1" radius="1" in="SourceAlpha"/><feGaussianBlur result="shadowBlurInner1" stdDeviation="5" in="shadowSpreadInner1"/><feOffset result="shadowOffsetInner1" dy="1" in="shadowBlurInner1"/><feComposite result="shadowInnerInner1" operator="arithmetic" k2="-1" k3="1" in="shadowOffsetInner1" in2="SourceAlpha"/><feColorMatrix values="0 0 0 0 0 0 0 0 0 0 0 0 0 0 0 0 0 0 0.16 0" in="shadowInnerInner1"/></filter></defs><title>bg-blog-hero</title><path d="M-6,797.54Q199.8,903.12,335.73,903t357.88-61.54q226.43-57.68,414.63-6.75T1448,814.58V18.37q-160,70.89-308.87,70.89T854.73,46.09Q693.62-6.1,464.68,22.8T-7,0Z" transform="translate(7)" fill="#fff"/><g filter="url(#a)"><path d="M-6,797.54Q199.8,903.12,335.73,903t357.88-61.54q226.43-57.68,414.63-6.75T1448,814.58V18.37q-160,70.89-308.87,70.89T854.73,46.09Q693.62-6.1,464.68,22.8T-7,0Z" transform="translate(7)"/></g></svg>