<svg xmlns="http://www.w3.org/2000/svg" width="440.27" height="291.02" viewBox="0 0 440.27 291.02"><defs><style>.a{fill:#cee1f4;}</style></defs><title>bg-cloud</title><path class="a" d="M110.4,125c3.69-71.38,57.33-124,114-125,39.49-.73,77.5,23.64,100,61,10.4-.77,35.93-1.21,62,14,35.15,20.49,46.06,54.73,49.06,64.67,17.06,56.56-16.55,103-19.06,106.33-24.46,32.6-58.26,42.36-69,45H65.4c-9.44-4.08-35.85-17-52-47-5-9.23-21.09-39.2-9-73A80.51,80.51,0,0,1,37.61,130.3C70.82,110.21,106,123.28,110.4,125Z"/></svg>