<?xml version="1.0" encoding="UTF-8"?>
<svg width="1440px" height="903px" viewBox="0 0 1440 903" version="1.1" xmlns="http://www.w3.org/2000/svg" xmlns:xlink="http://www.w3.org/1999/xlink">
    <!-- Generator: Sketch 53.2 (72643) - https://sketchapp.com -->
    <title>Desktop HD</title>
    <desc>Created with Sketch.</desc>
    <defs>
        <path d="M-5.98907827,797.536512 C131.203573,867.928728 245.110764,903.083174 335.732496,902.999852 C426.354229,902.91653 545.649161,882.403659 693.617294,841.46124 C844.571944,803.010673 982.780611,800.759673 1108.24329,834.70824 C1233.70598,868.656807 1346.95821,861.948635 1448,814.583723 L1448,18.3680276 C1341.35569,65.6269666 1238.39839,89.2564361 1139.1281,89.2564361 C1039.8578,89.2564361 945.057292,74.8662699 854.726563,46.0859375 C747.320383,11.2942708 617.304533,3.53172553 464.679012,22.7983016 C312.05349,42.0648776 154.827153,34.4654438 -7,0 L-5.98907827,797.536512 Z" id="path-1"></path>
        <filter x="-0.4%" y="-0.7%" width="100.8%" height="101.3%" filterUnits="objectBoundingBox" id="filter-2">
            <feMorphology radius="1" operator="erode" in="SourceAlpha" result="shadowSpreadInner1"></feMorphology>
            <feGaussianBlur stdDeviation="5" in="shadowSpreadInner1" result="shadowBlurInner1"></feGaussianBlur>
            <feOffset dx="0" dy="1" in="shadowBlurInner1" result="shadowOffsetInner1"></feOffset>
            <feComposite in="shadowOffsetInner1" in2="SourceAlpha" operator="arithmetic" k2="-1" k3="1" result="shadowInnerInner1"></feComposite>
            <feColorMatrix values="0 0 0 0 0   0 0 0 0 0   0 0 0 0 0  0 0 0 0.161986451 0" type="matrix" in="shadowInnerInner1"></feColorMatrix>
        </filter>
    </defs>
    <g id="Desktop-HD" stroke="none" stroke-width="1" fill="none" fill-rule="evenodd">
        <g id="Path">
            <use fill="#D9E7F6" fill-rule="evenodd" xlink:href="#path-1"></use>
            <use fill="black" fill-opacity="1" filter="url(#filter-2)" xlink:href="#path-1"></use>
        </g>
        <path d="M1,797.683969 C136.778341,867.977764 249.511271,903.083058 339.198789,902.999852 C428.886308,902.916647 546.951437,882.432457 693.394176,841.547282 C842.792644,803.150476 979.576527,800.902623 1103.74582,834.803724 C1227.91512,868.704825 1339.99985,862.006032 1440,814.707345 L1439.9995,627.034146 C1344.1351,680.485025 1241.63648,704.517982 1132.50364,699.133017 C968.804389,691.055569 978.685841,676.9266 721.53735,627.034146 C638.687513,610.959459 577.485734,612.49526 414.034742,638.362992 C253.271688,663.805332 115.593441,654.351001 1,610 L1,797.683969 Z" id="Path-Copy-2" fill="#B7D4F0"></path>
        <path d="M-5.98907827,797.484872 C131.203573,867.911555 245.110764,903.083215 335.732496,902.999852 C426.354229,902.916489 545.649161,882.393574 693.617294,841.431107 C844.571944,802.961714 982.780611,800.709612 1108.24329,834.674801 C1233.70598,868.639991 1346.95821,861.928534 1448,814.540431 L1447.99949,776.87105 C1374.03375,751.860685 1319.22797,738.66134 1283.58214,737.273016 C1188.26829,733.560759 1097.31426,763.586515 1014.4719,773.731279 C885.157008,789.567008 765.636115,780.553389 655.909225,746.690424 C577.232902,718.221978 467.3917,700.023483 326.385619,692.094937 C185.379539,684.166392 74.2509988,719.29637 -7,797.484872 L-5.98907827,797.484872 Z" id="Path-Copy" fill="#C1DAF2"></path>
    </g>
</svg>