<svg xmlns="http://www.w3.org/2000/svg" xmlns:xlink="http://www.w3.org/1999/xlink" width="1440" height="120" viewBox="0 0 1440 120"><defs><style>.a{fill:#d9e7f6;}.a,.c{fill-rule:evenodd;}.b{filter:url(#a);}</style><filter id="a" x="-0.4" y="-0.7" width="100.8" height="101.3" name="filter-2"><feMorphology result="shadowSpreadInner1" radius="1" in="SourceAlpha"/><feGaussianBlur result="shadowBlurInner1" stdDeviation="5" in="shadowSpreadInner1"/><feOffset result="shadowOffsetInner1" dy="1" in="shadowBlurInner1"/><feComposite result="shadowInnerInner1" operator="arithmetic" k2="-1" k3="1" in="shadowOffsetInner1" in2="SourceAlpha"/><feColorMatrix values="0 0 0 0 0 0 0 0 0 0 0 0 0 0 0 0 0 0 0.16 0" in="shadowInnerInner1"/></filter></defs><title>bg-project-hero-top</title><path class="a" d="M-6,797.54Q199.8,903.13,335.73,903t357.89-61.54q226.43-57.68,414.62-6.75T1448,814.58V18.37q-160,70.89-308.87,70.89T854.73,46.09q-161.11-52.2-390-23.29T-7,0Z"/><g class="b"><path class="c" d="M-6,797.54Q199.8,903.13,335.73,903t357.89-61.54q226.43-57.68,414.62-6.75T1448,814.58V18.37q-160,70.89-308.87,70.89T854.73,46.09q-161.11-52.2-390-23.29T-7,0Z"/></g></svg>