<svg xmlns="http://www.w3.org/2000/svg" xmlns:xlink="http://www.w3.org/1999/xlink" width="1440" height="298" viewBox="0 0 1440 298"><defs><style>.a{fill:#d9e7f6;}.a,.c,.d,.e{fill-rule:evenodd;}.b{filter:url(#a);}.d{fill:#b7d4f0;}.e{fill:#c1daf2;}</style><filter id="a" x="-0.4" y="-0.7" width="100.8" height="101.3" name="filter-2"><feMorphology result="shadowSpreadInner1" radius="1" in="SourceAlpha"/><feGaussianBlur result="shadowBlurInner1" stdDeviation="5" in="shadowSpreadInner1"/><feOffset result="shadowOffsetInner1" dy="1" in="shadowBlurInner1"/><feComposite result="shadowInnerInner1" operator="arithmetic" k2="-1" k3="1" in="shadowOffsetInner1" in2="SourceAlpha"/><feColorMatrix values="0 0 0 0 0 0 0 0 0 0 0 0 0 0 0 0 0 0 0.16 0" in="shadowInnerInner1"/></filter></defs><title>bg-project-hero-bottom</title><path class="a" d="M-6,187.54Q199.8,293.13,335.73,293t357.89-61.54q226.43-57.68,414.62-6.75T1448,204.58V-591.63q-160,70.89-308.87,70.89t-284.4-43.17q-161.11-52.2-390-23.29T-7-610Z"/><g class="b"><path class="c" d="M-6,187.54Q199.8,293.13,335.73,293t357.89-61.54q226.43-57.68,414.62-6.75T1448,204.58V-591.63q-160,70.89-308.87,70.89t-284.4-43.17q-161.11-52.2-390-23.29T-7-610Z"/></g><path class="d" d="M1,187.68Q204.67,293.13,339.2,293t354.19-61.45q224.1-57.6,410.36-6.75T1440,204.71V17q-143.79,80.19-307.5,72.1c-163.7-8.07-153.81-22.2-411-72.1C638.69,1,577.49,2.5,414,28.36Q172.89,66.54,1,0Z"/><path class="e" d="M-6,187.48Q199.8,293.13,335.73,293t357.89-61.57q226.43-57.7,414.62-6.76T1448,204.54V166.87q-111-37.51-164.42-39.6c-95.31-3.71-186.27,26.32-269.11,36.46q-194,23.76-358.56-27-118-42.7-329.52-54.6T-7,187.48Z"/></svg>