<svg xmlns="http://www.w3.org/2000/svg" xmlns:xlink="http://www.w3.org/1999/xlink" viewBox="0 0 546.37 499.68"><defs><mask id="a" x="0" y="384.28" width="240.57" height="115.4" maskUnits="userSpaceOnUse"><g transform="translate(0)"><polygon points="0 384.28 240.57 384.28 240.57 499.68 0 499.68 0 384.28" fill="#fff"/></g></mask></defs><title>clouds-top</title><path d="M546,80.44c0-.84.06-1.68.06-2.53v-.67l-.52,0A57.35,57.35,0,0,0,477.61,31,69,69,0,0,0,351.28,63.44a43.28,43.28,0,0,0-64.54,37.72v.43a42.86,42.86,0,0,0,42.86,42.86H479.51c1.65,0,3.27-.08,4.89-.2,1.54.12,3.09.2,4.65.2a57.24,57.24,0,0,0,56.92-64" transform="translate(0)" fill="#e2ecf8"/><g mask="url(#a)"><path d="M205,428.56a35.4,35.4,0,0,0-16.47,4,33.43,33.43,0,0,0-42.95-14.69,48.72,48.72,0,0,0-94.28,6.49A38.7,38.7,0,1,0,38.7,499.68H205a35.56,35.56,0,0,0,0-71.12" transform="translate(0)" fill="#e2ecf8"/></g></svg>