<svg xmlns="http://www.w3.org/2000/svg" xmlns:xlink="http://www.w3.org/1999/xlink" viewBox="0 0 599.57 397"><defs><mask id="a" x="0" y="249" width="281" height="148" maskUnits="userSpaceOnUse"><g transform="translate(0 0)"><polygon points="0 249 281 249 281 397 0 397 0 249" fill="#fff"/></g></mask><mask id="b" x="359" y="0" width="240.57" height="115.4" maskUnits="userSpaceOnUse"><g transform="translate(0 0)"><polygon points="359 0 599.57 0 599.57 115.4 359 115.4 359 0" fill="#fff"/></g></mask></defs><title>clouds-middle</title><g mask="url(#a)"><path d="M134.51,363.56h-3.18c.83-.4,1.65-.82,2.45-1.26.23.43.48.84.72,1.26m113.11-33.44a33.15,33.15,0,0,0-14.34,3.28,53,53,0,0,0-72.22-46.25A60.17,60.17,0,0,0,44.93,307.11h-.06a44.95,44.95,0,0,0,0,89.9H247.62a33.44,33.44,0,0,0,0-66.87" transform="translate(0 0)" fill="#74b4e0"/></g><g mask="url(#b)"><path d="M564,44.28a35.4,35.4,0,0,0-16.47,4,33.43,33.43,0,0,0-42.95-14.69,48.72,48.72,0,0,0-94.28,6.49A38.7,38.7,0,1,0,397.7,115.4H564a35.56,35.56,0,0,0,0-71.12" transform="translate(0 0)" fill="#4ca6da"/></g></svg>