<svg xmlns="http://www.w3.org/2000/svg" width="954" height="106" viewBox="0 0 954 106">
  <path fill="#3CA2D8" d="M0,13.8993342 C69.8799481,45.3686135 134.762679,61.1032532 194.648194,61.1032532 C254.533708,61.1032532 330.521078,47.5247525 422.610303,20.3677511 C505.529769,-6.78925038 593.23942,-6.78925038 685.739261,20.3677511 C778.239095,47.5247525 867.659343,42.6182427 954,5.64822162 L954,456.144996 C871.356577,501.406666 794.434112,524.0375 723.232621,524.0375 C616.430371,524.0375 525.825733,483.814297 461.110352,477.045745 C428.069292,473.589996 380.783228,466.627014 329.793017,468.623866 C280.91201,470.538119 228.746848,481.143117 177.016894,490.210267 C106.555534,502.560631 47.5499023,495.365164 0,468.623866 L0,13.8993342 Z"/>
</svg>
