<svg xmlns="http://www.w3.org/2000/svg" width="954" height="202" viewBox="0 0 954 202">
  <g fill="none" transform="translate(0 -322)">
    <path fill="#3CA2D8" d="M0,13.8993342 C69.8799481,45.3686135 134.762679,61.1032532 194.648194,61.1032532 C254.533708,61.1032532 330.521078,47.5247525 422.610303,20.3677511 C505.529769,-6.78925038 593.23942,-6.78925038 685.739261,20.3677511 C778.239095,47.5247525 867.659343,42.6182427 954,5.64822162 L954,456.144996 C871.356577,501.406666 794.434112,524.0375 723.232621,524.0375 C616.430371,524.0375 525.825733,483.814297 461.110352,477.045745 C428.069292,473.589996 380.783228,466.627014 329.793017,468.623866 C280.91201,470.538119 228.746848,481.143117 177.016894,490.210267 C106.555534,502.560631 47.5499023,495.365164 0,468.623866 L0,13.8993342 Z"/>
    <path fill="#4AA7DB" d="M0,387.974151 C25.632194,370.238968 68.3910483,361.371376 128.276563,361.371376 C218.104834,361.371376 246.706201,379.329671 275.825147,383.474886 C304.944092,387.620102 379.239844,396.075929 477.33125,374.305793 C575.422656,352.535657 643.662744,329.008198 755.350925,333.026783 C794.904083,334.449921 861.120442,356.220057 954,398.337191 L954,456.225491 C871.356577,501.433497 794.434112,524.0375 723.232621,524.0375 C616.430371,524.0375 525.825733,483.861986 461.110352,477.101459 C428.069292,473.649808 380.783228,466.695081 329.793017,468.689566 C280.91201,470.601549 228.746848,481.193973 177.016895,490.250373 C106.555534,502.586095 47.5499023,495.399159 0,468.689566 L0,387.974151 Z"/>
    <path fill="#71B3DF" d="M0.6625,407.551367 C27.0969401,426.080664 70.2569173,435.345312 130.142431,435.345312 C219.970703,435.345312 252.386621,415.126123 284.510108,411.79292 C316.633594,408.459717 395.163135,403.247705 488.989697,422.315283 C582.81626,441.382861 607.455082,462.836475 723.232621,462.836475 C794.344403,462.836475 871.266861,441.278483 954,398.1625 L954,456.13125 C871.356577,501.402083 794.434112,524.0375 723.232621,524.0375 C616.430371,524.0375 525.825733,483.806153 461.110352,477.036231 C428.069292,473.579781 380.783228,466.61539 329.793017,468.612647 C280.91201,470.527287 228.746848,481.134432 177.016895,490.203418 C106.555534,502.556283 47.5499023,495.359359 0,468.612647 L0.6625,407.551367 Z"/>
  </g>
</svg>
