<svg xmlns="http://www.w3.org/2000/svg" viewBox="0 0 1440 791"><title>contact-bg</title><path d="M0,21Q158.22,92.23,293.81,92.23T637.9,30.74q187.74-61.49,397.18,0T1440,8.53v680Q1252.88,791,1091.67,791c-161.21,0-298-60.71-395.66-70.93-49.87-5.22-121.25-15.73-198.21-12.71-73.78,2.89-152.52,18.9-230.61,32.58Q107.66,767.9,0,707.36Z" fill="#3ca2d8"/><path d="M0,585.62q58-40.16,193.63-40.16c135.59,0,178.76,27.11,222.71,33.36s156.1,19,304.16-13.84,251.07-68.37,419.65-62.31q89.55,3.22,299.85,98.58v87.38Q1252.88,791,1091.67,791c-161.21,0-298-60.64-395.66-70.85-49.87-5.21-121.25-15.71-198.21-12.7C424,710.34,345.28,726.33,267.2,740Q107.66,767.93,0,707.46Z" fill="#4aa7db"/><path d="M1,615.17q59.85,42,195.44,42c135.59,0,184.52-30.52,233-35.55s167-12.9,308.65,15.88,178.82,61.16,353.57,61.16q161,0,348.33-97.62v87.5Q1252.88,791,1091.67,791c-161.21,0-298-60.73-395.66-70.95-49.87-5.22-121.25-15.73-198.21-12.71-73.78,2.89-152.52,18.9-230.61,32.59Q107.66,767.9,0,707.34Z" fill="#71b3df"/></svg>