<svg xmlns="http://www.w3.org/2000/svg" viewBox="0 0 1440 577.67"><title>footer-bg</title><path d="M.75,17.22C60.38,41.9,196.51,92.11,331.42,84.85c67.86-3.65,142.5-18.75,142.5-18.75,42.63-8.59,81.43-19.22,122.68-30.49,69.63-19,82.87-25.48,121.61-30.5C760.18-.33,800.63,0,807.78,0c11.53.12,23.1.07,38.73,1.63C868,3.81,885.29,8,920.33,13.68c12.3,2,27.45,4.19,57.81,8.3C1089.87,37.13,1145.73,44.7,1179,44.86c83,.4,152.34-14.82,196.95-24.57,26.51-5.8,49.05-11.64,64.05-16.1V577.67H1Z" fill="#3ba4dc"/><path d="M0,379.43c36,17.66,91.48,40,161.55,43.31,38.75,1.84,63.66-2.93,132.45-13.52,116.73-18,175.22-26.92,209.45-28.79C564.31,377.1,628,389,755.21,412.64c140.51,26.16,150.85,37.18,236.47,45.77,61.7,6.19,124.72,12.57,202.91,0,53.47-8.59,144.41-31,245.41-99.15V577.67H0Z" fill="#7bb8e4" opacity="0.19"/><path d="M.75,425.7c29-16.24,73.91-36.41,130.67-41.69,39.9-3.71,69.12,1.32,106,7.54,126.39,21.32,189.62,31.94,221.22,34.7,71.8,6.28,125.85-2,233.91-18.66,79.26-12.19,82.57-18.2,209.33-41.54,106.7-19.65,160.06-29.48,195.77-28.82,119.34,2.2,211,43.62,247,60.17a638.4,638.4,0,0,1,95.4,54.23v126H1Z" fill="#62afe1" opacity="0.53"/></svg>