<svg xmlns="http://www.w3.org/2000/svg" width="1440" height="1668" viewBox="0 0 1440 1668"><defs><style>.a{fill:#3ba4dc;}.b{fill:#60aee1;}</style></defs><title>hero-home-bg</title><path class="a" d="M0,1556.5c23.6-2.8,55.8-5.1,101.8-1.1,79.8,7,127.7,30,216.1,58.5,91.5,29.5,137.2,44.2,181.4,48.3,139.2,12.8,260-36.3,322.9-61.9,33.6-13.6,33.2-15.9,67.8-30.5,55.5-23.5,155.2-62.8,284.7-72,60.3-4.3,153.7-3.9,265.3,26.3V0H0Z"/><path class="b" d="M277.9,1162.5a57.78,57.78,0,0,0-26.6,6.5,54,54,0,0,0-47.6-28.4,55,55,0,0,0-21.9,4.6,78.74,78.74,0,0,0-152.4,10.5A62.61,62.61,0,1,0,9,1277.5H278a57.5,57.5,0,1,0-.1-115Z"/><path class="b" d="M1478.5,1251.5c0-1.3.1-2.6.1-4v-1.1l-.8.1a89.76,89.76,0,0,0-88.5-74.4,88.37,88.37,0,0,0-17.9,1.8,108.14,108.14,0,0,0-198,50.9,66.92,66.92,0,0,0-33.3-8.7,67.79,67.79,0,0,0-67.8,67.8v.7a67.22,67.22,0,0,0,67.2,67.2h234.9c2.6,0,5.1-.1,7.7-.3,2.4.2,4.8.3,7.3.3a89.79,89.79,0,0,0,89.8-89.8C1479.1,1258.5,1478.9,1255,1478.5,1251.5Z"/><path class="b" d="M870.4,1489.3c.1-1.6.2-3.2.2-4.9a81,81,0,0,0-105.2-77.2v-.8a100.09,100.09,0,0,0-194.9-32.1,76.7,76.7,0,0,0-39.8-11,77.5,77.5,0,0,0-77.5,77.5,76.41,76.41,0,0,0,1.4,14.4A77.29,77.29,0,0,0,465.8,1609H799.3c7.2-2,13.8-5.4,19.9-7.9,33.6-13.6,33.2-15.8,67.8-30.4q10.95-4.65,24-9.9a63.55,63.55,0,0,0,1.4-13.2A61.57,61.57,0,0,0,870.4,1489.3Z"/></svg>