<svg xmlns="http://www.w3.org/2000/svg" viewBox="0 0 1441 561.16"><title>row-bg-large</title><path d="M0,21.9s114.54,61,282.34,70.3S673.86,17.6,673.86,17.6s161-50.86,383.9,20.33c0,0,161.93,40.67,382.24-29.67v357.8s-231.39,167.63-544.95,79.49S414.54,393,414.54,393,118.51,472.66,0,387.07Z" fill="#3ba4dc"/><path d="M896.05,296.61c-313.56,88.14-480.51,52.54-480.51,52.54S120,269.49,1,355.09v122C119.51,562.66,415.54,483,415.54,483s166.95-35.59,480.51,52.54S1441,456.05,1441,456.05v-80S1209.61,208.48,896.05,296.61Z" fill="#49a8de"/><path d="M895.05,445.55C581.49,357.41,414.54,393,414.54,393S118.51,472.66,0,387.07v90C118.51,562.66,414.54,483,414.54,483s166.95-35.59,480.51,52.54S1440,456.05,1440,456.05v-90S1208.61,533.68,895.05,445.55Z" fill="#6fb3e3"/></svg>