<svg xmlns="http://www.w3.org/2000/svg" width="441" height="291" viewBox="0 0 441 291">
  <path fill="#C6C95B" d="M111.4,126 C115.09,54.62 168.73,2 225.4,1 C264.89,0.27 302.9,24.64 325.4,62 C335.8,61.23 361.33,60.79 387.4,76 C422.55,96.49 433.46,130.73 436.46,140.67 C453.52,197.23 419.91,243.67 417.4,247 C392.94,279.6 359.14,289.36 348.4,292 L66.4,292 C56.96,287.92 30.55,275 14.4,245 C9.4,235.77 -6.69,205.8 5.4,172 C11.6082995,155.101929 23.300977,140.772149 38.61,131.3 C71.82,111.21 107,124.28 111.4,126 Z" transform="translate(-1 -1)"/>
</svg>
