<svg xmlns="http://www.w3.org/2000/svg" width="886" height="201" viewBox="0 0 886 201">
  <g fill="none" fill-rule="evenodd" transform="translate(-5 -349)">
    <path fill="#F1F3CB" d="M5.60893471,485.649787 C89.1547766,528.514731 158.518529,549.920816 213.700192,549.868041 C268.881856,549.815267 341.525737,537.323986 431.631835,512.394199 C523.552559,488.97863 607.711395,487.608527 684.108344,508.28389 C760.505292,528.959253 829.469178,524.873301 891,496.026034 L891,11.1861306 C826.046964,39.9643849 763.353077,54.353512 702.918337,54.353512 C642.483597,54.353512 584.756586,45.5909416 529.737306,28.0658007 C464.333659,6.87487285 385.172147,2.14750974 292.25277,13.8837113 C199.333393,25.6199129 103.58247,20.9920092 5,0 L5.60893471,485.649787 Z"/>
    <path fill="#B5B845" d="M0.128522337,485.735038 C84.766924,528.543148 155.039196,549.920816 210.94534,549.868041 C266.851483,549.815267 340.446208,537.342254 431.729516,512.449003 C524.857939,489.065911 610.123845,487.695808 687.527237,508.338694 C764.930628,528.981581 834.797723,524.903748 897.128522,496.105196 L897.128522,381.802062 C837.374235,414.355711 773.480906,428.990442 705.448536,425.706254 C603.406215,420.792151 609.571142,412.187904 449.251872,381.802062 C397.632296,372.059107 359.483303,372.972509 257.571886,388.71956 C157.374679,404.218978 71.5602249,398.462515 0.128522337,371.450172 L0.128522337,485.735038 Z"/>
    <path fill="#C6C95B" d="M5.60893471,485.613251 C89.1547766,528.502552 158.518529,549.920816 213.700192,549.868041 C268.881856,549.815267 341.525737,537.317897 431.631835,512.375931 C523.552559,488.952243 607.711395,487.58011 684.108344,508.259533 C760.505292,528.938955 829.469178,524.853003 891,496.001677 L891,473.063107 C845.938832,457.835679 812.56515,449.797741 790.878955,448.949292 C732.841388,446.690144 677.452687,464.976454 627.008536,471.151052 C548.252981,480.796577 475.473104,475.316165 408.668907,454.709814 C360.766044,437.375473 293.880655,426.292861 208.012742,421.461979 C122.144829,416.631097 54.4739152,438.014855 5,485.613251 L5.60893471,485.613251 Z"/>
  </g>
</svg>
