<svg xmlns="http://www.w3.org/2000/svg" xmlns:xlink="http://www.w3.org/1999/xlink" width="547" height="500" viewBox="0 0 547 500">
  <defs>
    <polygon id="clouds-top-a" points="0 .28 240.57 .28 240.57 115.68 0 115.68"/>
  </defs>
  <g fill="none" fill-rule="evenodd">
    <path fill="#CACB8F" fill-rule="nonzero" d="M546,80.44 C546,79.6 546.06,78.76 546.06,77.91 L546.06,77.24 L545.54,77.24 C542.853894,62.0008391 534.123612,48.4938157 521.331853,39.7864564 C508.540095,31.0790972 492.772506,27.9104017 477.61,31 C461.385466,6.45865939 431.384891,-5.09631107 402.889777,2.22088594 C374.394663,9.53808294 353.673058,34.1178894 351.28,63.44 C337.876349,55.8810167 321.467066,56.0074742 308.181506,63.7721369 C294.895946,71.5367996 286.732326,85.7718215 286.74,101.16 L286.74,101.59 C286.74,125.260924 305.929076,144.45 329.6,144.45 L479.51,144.45 C481.16,144.45 482.78,144.37 484.4,144.25 C485.94,144.37 487.49,144.45 489.05,144.45 C505.42257,144.47305 521.021292,137.483926 531.901968,125.249856 C542.782644,113.015786 547.903606,96.7080056 545.97,80.45"/>
    <g transform="translate(0 384)">
      <mask id="clouds-top-b" fill="#fff">
        <use xlink:href="#clouds-top-a"/>
      </mask>
      <path fill="#CACB8F" fill-rule="nonzero" d="M205,44.56 C199.267097,44.5400264 193.615113,45.9127002 188.53,48.56 C180.24151,33.2042149 161.536427,26.8065974 145.58,33.87 C138.663007,12.6331779 118.19158,-1.1805093 95.909419,0.353339098 C73.6272576,1.8871875 55.2417579,18.3756886 51.3,40.36 C36.7792003,35.3969487 20.6975898,39.4824922 10.3063867,50.7744539 C-0.0848164596,62.0664156 -2.82246564,78.431474 3.32784856,92.4906041 C9.47816275,106.549734 23.354499,115.64683 38.7,115.68 L205,115.68 C224.639246,115.68 240.56,99.7592457 240.56,80.12 C240.56,60.4807543 224.639246,44.56 205,44.56" mask="url(#clouds-top-b)"/>
    </g>
  </g>
</svg>
