<svg xmlns="http://www.w3.org/2000/svg" xmlns:xlink="http://www.w3.org/1999/xlink" width="241" height="116" viewBox="0 0 241 116">
  <defs>
    <polygon id="clouds-bottom-a" points="0 0 240.57 0 240.57 115.4 0 115.4"/>
  </defs>
  <g fill="none" fill-rule="evenodd">
    <mask id="clouds-bottom-b" fill="#fff">
      <use xlink:href="#clouds-bottom-a"/>
    </mask>
    <path fill="#CACB8F" fill-rule="nonzero" d="M205,44.28 C199.267097,44.2600264 193.615113,45.6327002 188.53,48.28 C180.24151,32.9242149 161.536427,26.5265974 145.58,33.59 C138.663007,12.3531779 118.19158,-1.4605093 95.909419,0.0733390985 C73.6272576,1.6071875 55.2417579,18.0956886 51.3,40.08 C36.7792003,35.1169487 20.6975898,39.2024922 10.3063867,50.4944539 C-0.0848164596,61.7864156 -2.82246564,78.151474 3.32784856,92.2106041 C9.47816275,106.269734 23.354499,115.36683 38.7,115.4 L205,115.4 C224.639246,115.4 240.56,99.4792457 240.56,79.84 C240.56,60.2007543 224.639246,44.28 205,44.28" mask="url(#clouds-bottom-b)"/>
  </g>
</svg>
