<svg xmlns="http://www.w3.org/2000/svg" xmlns:xlink="http://www.w3.org/1999/xlink" width="600" height="397" viewBox="0 0 600 397">
  <defs>
    <polygon id="clouds-middle-a" points="0 0 281 0 281 148 0 148"/>
    <polygon id="clouds-middle-c" points="0 0 240.57 0 240.57 115.4 0 115.4"/>
  </defs>
  <g fill="none" fill-rule="evenodd">
    <g transform="translate(0 249)">
      <mask id="clouds-middle-b" fill="#fff">
        <use xlink:href="#clouds-middle-a"/>
      </mask>
      <path fill="#B0B167" fill-rule="nonzero" d="M134.51,114.56 L131.33,114.56 C132.16,114.16 132.98,113.74 133.78,113.3 C134.01,113.73 134.26,114.14 134.5,114.56 M247.61,81.12 C242.644677,81.1255874 237.744032,82.246516 233.27,84.4 C232.275466,67.4623249 223.231843,52.0246152 208.943776,42.8744751 C194.655708,33.724335 176.85051,31.9679436 161.05,38.15 C150.603609,11.6200246 122.971122,-3.93554657 94.8706655,0.894673119 C66.7702091,5.7248928 45.9180077,29.6145528 44.93,58.11 L44.87,58.11 C20.0448012,58.110001 -0.0799981055,78.2348012 -0.0799981055,103.06 C-0.0799981055,127.885199 20.0448012,148.009999 44.87,148.01 L247.62,148.01 C265.860244,147.694539 280.481748,132.817972 280.481748,114.575 C280.481748,96.3320283 265.860244,81.4554614 247.62,81.14" mask="url(#clouds-middle-b)"/>
    </g>
    <g transform="translate(359)">
      <mask id="clouds-middle-d" fill="#fff">
        <use xlink:href="#clouds-middle-c"/>
      </mask>
      <path fill="#B0B167" fill-rule="nonzero" d="M205,44.28 C199.267097,44.2600264 193.615113,45.6327002 188.53,48.28 C180.24151,32.9242149 161.536427,26.5265974 145.58,33.59 C138.663007,12.3531779 118.19158,-1.4605093 95.909419,0.0733390985 C73.6272576,1.6071875 55.2417579,18.0956886 51.3,40.08 C36.7792003,35.1169487 20.6975898,39.2024922 10.3063867,50.4944539 C-0.0848164596,61.7864156 -2.82246564,78.151474 3.32784856,92.2106041 C9.47816275,106.269734 23.354499,115.36683 38.7,115.4 L205,115.4 C224.639246,115.4 240.56,99.4792457 240.56,79.84 C240.56,60.2007543 224.639246,44.28 205,44.28" mask="url(#clouds-middle-d)"/>
    </g>
  </g>
</svg>
