<svg xmlns="http://www.w3.org/2000/svg" width="886" height="110" viewBox="0 0 886 110">
  <path fill="#CED400" d="M0,12.908606 C64.8989874,42.134792 125.156953,56.747885 180.773899,56.747885 C236.390844,56.747885 306.961924,44.1372439 392.487137,18.9159617 C469.496201,-6.30532058 550.954011,-6.30532058 636.860572,18.9159617 C722.767126,44.1372439 805.813604,39.5804644 886,5.24562301 L886,423.631516 C809.247303,465.666988 737.807781,486.684722 671.681449,486.684722 C572.491938,486.684722 488.345492,449.328582 428.242947,443.042484 C397.557015,439.833057 353.641447,433.366388 306.285758,435.220907 C260.888932,436.998714 212.442041,446.8478 164.399338,455.268655 C98.9603806,466.738699 44.1606011,460.056117 0,435.220907 L0,12.908606 Z"/>
</svg>
