<svg xmlns="http://www.w3.org/2000/svg" width="886" height="189" viewBox="0 0 886 189">
  <g fill="none" transform="translate(0 -298)">
    <path fill="#CED400" d="M0,12.908606 C64.8989874,42.134792 125.156953,56.747885 180.773899,56.747885 C236.390844,56.747885 306.961924,44.1372439 392.487137,18.9159617 C469.496201,-6.30532058 550.954011,-6.30532058 636.860572,18.9159617 C722.767126,44.1372439 805.813604,39.5804644 886,5.24562301 L886,423.631516 C809.247303,465.666988 737.807781,486.684722 671.681449,486.684722 C572.491938,486.684722 488.345492,449.328582 428.242947,443.042484 C397.557015,439.833057 353.641447,433.366388 306.285758,435.220907 C260.888932,436.998714 212.442041,446.8478 164.399338,455.268655 C98.9603806,466.738699 44.1606011,460.056117 0,435.220907 L0,12.908606 Z"/>
    <path fill="#B6B844" d="M0,360.319809 C23.8051613,343.848769 63.5162147,335.613249 119.13316,335.613249 C202.558577,335.613249 229.121273,352.291497 256.164654,356.141246 C283.208035,359.990996 352.208073,367.844102 443.307639,347.625716 C534.407205,327.407329 597.783219,305.55688 701.510398,309.289025 C738.244253,310.610723 799.740788,330.82911 886,369.944184 L886,423.706274 C809.247303,465.691906 737.807781,486.684722 671.681449,486.684722 C572.491938,486.684722 488.345492,449.372872 428.242947,443.094227 C397.557015,439.888606 353.641447,433.429604 306.285758,435.281924 C260.888932,437.057623 212.442041,446.895032 164.399339,455.305902 C98.9603806,466.762348 44.1606011,460.087689 0,435.281924 L0,360.319809 Z"/>
    <path fill="#CACB8F" d="M0.615277778,378.501584 C25.165502,395.710134 65.2490867,404.314409 120.866031,404.314409 C204.29145,404.314409 234.396799,385.53642 264.230562,382.440804 C294.064323,379.345188 366.996371,374.504682 454.135085,392.213145 C541.273801,409.921609 564.156397,429.846034 671.681449,429.846034 C737.724467,429.846034 809.163982,409.824671 886,369.781944 L886,423.61875 C809.247303,465.662731 737.807781,486.684722 671.681449,486.684722 C572.491938,486.684722 488.345492,449.321018 428.242947,443.033648 C397.557015,439.82357 353.641447,433.355593 306.285758,435.210488 C260.888932,436.988654 212.442041,446.839735 164.399339,455.262294 C98.9603806,466.734661 44.1606011,460.050725 0,435.210488 L0.615277778,378.501584 Z"/>
  </g>
</svg>
