<svg xmlns="http://www.w3.org/2000/svg" width="879" height="554" viewBox="0 0 879 554">
  <g fill="none" transform="translate(-7 -1)">
    <path fill="#CACB8F" d="M1.84072022,1.20424205 C25.8687457,7.9100096 50.2430699,13.3010366 74.8559557,17.3579917 C100.392881,21.5548338 143.379834,28.402313 196.410983,26.2548061 C238.133975,24.5797507 238.133975,19.2907479 339.44108,7.11131579 C387.618864,1.31304709 398.822715,1.16578947 406.185596,1.20873961 C454.817424,1.65051247 488.13446,12.921856 518.365222,21.5671053 C590.429418,42.1831717 641.871413,56.9027978 709.800125,54.4423684 C784.969003,51.7242382 843.276884,29.2858587 859.855637,22.5979086 C870.562493,18.2722161 879.281371,14.2164958 885.417105,11.2161219 L885.417105,497.927091 C864.47587,510.022121 841.566151,518.330269 817.739958,522.470028 C763.365083,531.784072 729.790346,514.107022 650.350997,503.559695 C618.601147,499.36992 586.615539,497.218009 554.590596,497.117175 C504.167133,502.541163 463.505623,509.431593 435.686205,514.708324 C373.54349,526.495069 336.115512,537.778684 266.08838,546.712313 C242.410582,549.73723 222.929626,551.473643 210.290014,552.467632 C173.407617,550.576213 136.920727,543.956855 101.724335,532.771925 C66.5853671,521.576891 33.0194665,505.941396 1.84072022,486.244654 L1.84072022,1.20424205 Z"/>
    <path fill="#BBBC7F" d="M1.84072022,375.574418 C27.5197822,384.636884 53.9870489,391.288107 80.8996537,395.441925 C109.275757,399.809692 138.014379,401.359354 166.695623,400.068269 C179.010042,399.779889 197.730166,398.969972 220.371025,396.485 C248.595402,393.380319 268.628573,389.238698 279.887645,387.085055 C305.044155,382.268504 342.349418,376.654307 393.012175,374.101842 C417.270089,373.663962 441.505714,375.809236 465.309529,380.501413 C489.281842,385.28115 501.725111,390.551745 540.208435,400.645028 C563.579446,406.780762 582.710665,411.075776 594.816468,413.628241 C617.603728,419.693469 640.863457,423.819135 664.346607,425.961066 C709.695726,430.031867 755.404678,426.749922 799.707036,416.242064 C830.069717,411.385266 859.181471,400.606996 885.386427,384.520319 L885.386427,497.657119 C875.520809,503.350558 865.238667,508.289597 854.627992,512.431967 C842.788385,517.064609 830.588428,520.717414 818.151053,523.353573 C806.223186,523.408795 788.270028,523.163366 766.426814,521.512853 C749.289709,520.23662 732.066704,518.285457 672.249432,508.768934 C655.977465,506.179654 634.349003,502.682285 608.744584,498.368864 C596.436302,497.577355 577.845028,496.755166 555.271662,497.313518 C484.563463,499.049931 433.13374,512.830789 402.921385,520.205942 C359.228823,530.869848 295.14108,543.957368 210.872909,552.443089 C185.668304,551.386346 160.64051,547.72635 136.188753,541.521482 C114.830263,536.103629 99.0859695,530.102881 82.9980748,523.844432 C55.1579715,512.966444 28.0491488,500.302544 1.84072022,485.931731 L1.84072022,375.574418 Z"/>
    <path fill="#C4C57E" d="M795.350665,453.344848 C779.517424,451.528353 763.538682,451.355632 747.669875,452.829446 C725.194681,454.927867 715.831551,459.173795 690.987964,464.787992 C659.27849,471.948393 634.790776,473.991593 608.315083,476.231136 C589.705402,477.795748 565.315859,479.145609 536.526994,478.826551 C508.101873,478.725947 479.741016,476.118383 451.7741,471.034169 C415.677576,464.419848 408.474224,458.725886 348.288809,445.018657 C324.880983,439.686704 303.902909,434.962188 275.500596,430.992368 C251.878498,427.687962 228.101569,425.605177 204.264723,424.752327 C164.820178,427.220471 125.995589,435.781005 89.1706233,450.129723 C74.9295845,455.03831 57.2095845,461.302895 36.8266759,468.954155 C19.2293906,475.562341 8.89067867,479.728504 3.69371191,488.459654 C29.4997923,502.562843 56.1765685,515.010776 83.5625623,525.728102 C99.6504571,531.986551 115.394751,537.999571 136.753241,543.405152 C159.342801,549.135722 182.427926,552.696288 205.694349,554.03838 L214.235291,554.03838 C297.153601,545.546524 360.327119,532.630803 403.534958,522.083476 C433.753449,514.720596 485.183172,500.927465 555.885235,499.191053 C578.458601,498.638837 597.049875,499.454889 609.358158,500.246399 C634.962576,504.541413 656.60331,508.057188 672.863006,510.646468 C732.710956,520.169127 749.903283,522.120291 767.040388,523.390388 C788.883601,525.016357 805.934806,523.083601 817.862673,523.02838 C828.557258,520.770429 841.792036,519.531011 855.241565,514.284958 C865.63273,510.223838 875.708615,505.398159 885.386427,499.847576 L885.386427,476.72813 C870.898449,471.228768 856.114948,466.541966 841.104834,462.689571 C826.028228,458.772909 810.755651,455.653674 795.350665,453.344848 Z"/>
  </g>
</svg>
