<svg xmlns="http://www.w3.org/2000/svg" width="886" height="356" viewBox="0 0 886 356">
  <g fill="none" transform="translate(-3 .001)">
    <path fill="#B4B906" d="M0.465025907,11.2970294 C37.4376857,26.5994819 121.842988,57.7314162 205.491848,53.2299655 C247.567392,50.9668394 293.84677,41.6043178 293.84677,41.6043178 C320.278843,36.2782211 344.336183,29.6872539 369.912608,22.6994646 C413.085613,10.9188083 421.29487,6.90098446 445.315009,3.78841105 C471.337858,0.415423143 496.418256,0.620034542 500.851503,0.620034542 C508.000501,0.694438687 515.174301,0.66343696 524.86544,1.63069085 C538.189983,2.98236615 548.91038,5.58031088 570.63639,9.10210708 C578.262815,10.3421762 587.656339,11.7000518 606.480587,14.2483938 C675.757047,23.6419171 710.392176,28.3355786 731.020725,28.4347841 C782.483592,28.6827979 825.476788,19.2458722 853.136528,13.2005354 C869.573644,9.60433506 883.549223,5.98333333 892.849741,3.21797927 L892.849741,358.795389 L0.620034542,358.795389 L0.465025907,11.2970294 Z"/>
    <path fill="#C6C95B" d="M0,235.879741 C22.3212435,246.829551 56.7207599,260.681123 100.16658,262.733437 C124.192919,263.874301 139.637979,260.916736 182.290155,254.35057 C254.666788,243.189948 290.932608,237.65924 312.15639,236.499775 C349.891693,234.43506 389.381693,241.813472 468.256287,256.471088 C555.37734,272.691192 561.788497,279.523972 614.875855,284.850069 C653.131986,288.688083 692.206563,292.643903 740.687064,284.850069 C773.840311,279.523972 830.226252,265.628998 892.849741,223.373644 L892.849741,358.795389 L0,358.795389 L0,235.879741 Z" opacity=".19"/>
    <path fill="#C6C95B" d="M0.465025907,264.568739 C18.4460276,254.499378 46.2917789,241.993282 81.4849396,238.719499 C106.224318,236.419171 124.341727,239.537945 147.208601,243.39456 C225.574767,256.613696 264.779551,263.198463 284.372642,264.909758 C328.891123,268.803575 362.40399,263.669689 429.404922,253.339914 C478.54886,245.781693 480.601174,242.055285 559.196753,227.583679 C625.354439,215.4 658.439482,209.30506 680.580915,209.714283 C754.575838,211.078359 811.408204,236.76019 833.729447,247.021762 C854.375085,256.511391 874.165276,267.761098 892.880743,280.646235 L892.880743,358.770587 L0.620034542,358.770587 L0.465025907,264.568739 Z" opacity=".53"/>
  </g>
</svg>
