<svg xmlns="http://www.w3.org/2000/svg" width="886" height="1024" viewBox="0 0 886 1024">
  <g fill="none" transform="translate(-33)">
    <path fill="#B4B906" d="M33.2108108,957.270871 C47.7251652,955.548829 67.5286486,954.134294 95.8193393,956.594354 C144.897538,960.899459 174.356757,975.044805 228.724084,992.572733 C284.997958,1010.71568 313.104144,1019.7564 340.287808,1022.27796 C425.897898,1030.15015 500.191712,999.952913 538.876156,984.208529 C559.540661,975.844324 559.294655,974.42979 580.574174,965.450571 C614.707508,950.997718 676.024505,926.827628 755.668949,921.169489 C792.754354,918.524925 850.196757,918.770931 918.832432,937.344384 L918.832432,0 L33.2108108,0 L33.2108108,957.270871 Z"/>
    <path fill="#C5C878" d="M204.123483,714.954955 C198.428811,714.957419 192.818131,716.32845 187.764084,718.952553 C181.966212,708.184307 170.719262,701.473942 158.489369,701.486126 C153.853327,701.496189 149.26884,702.45914 145.020541,704.315195 C138.155255,683.189373 117.797347,669.443308 95.6365419,670.970136 C73.4757364,672.496963 55.1953829,688.905112 51.2922523,710.772853 C36.8355132,705.787928 20.7989713,709.830097 10.4323636,721.071993 C0.0657559943,732.31389 -2.66612494,748.624826 3.47173888,762.631018 C9.6096027,776.63721 23.4538964,785.684051 38.7459459,785.681682 L204.184985,785.681682 C216.819098,785.670696 228.487639,778.920326 234.795182,767.97337 C241.102724,757.026413 241.091002,743.545975 234.764431,732.610005 C228.43786,721.674035 216.757597,714.943968 204.123483,714.954955 Z"/>
    <path fill="#C6C95B" d="M942.510511 769.691291C942.510511 768.891772 942.572012 768.092252 942.572012 767.231231L942.572012 766.554715 942.08 766.616216C937.483929 740.154053 914.509495 720.839953 887.651171 720.859099 883.953477 720.852649 880.264778 721.22358 876.642402 721.966126 861.001083 698.303114 832.073282 687.164498 804.601232 694.226757 777.129182 701.289016 757.159605 724.997716 754.869429 753.27039 748.626009 749.731809 741.565835 747.887259 734.389429 747.91976 723.329927 747.918128 712.722925 752.310776 704.902676 760.131025 697.082427 767.951274 692.68978 778.558276 692.691411 789.617778L692.691411 790.048288C692.698201 812.870857 711.197852 831.370508 734.02042 831.377297L878.487447 831.377297C880.086486 831.377297 881.624024 831.315796 883.223063 831.192793 884.699099 831.315796 886.175135 831.377297 887.712673 831.377297 902.360641 831.378929 916.409136 825.560768 926.766814 815.20309 937.124492 804.845412 942.942652 790.796918 942.941021 776.148949 942.87952 773.996396 942.756517 771.843844 942.510511 769.691291zM568.51988 915.941862C568.581381 914.957838 568.642883 913.973814 568.642883 912.928288 568.623241 897.087214 561.070687 882.199775 548.299444 872.827723 535.528201 863.45567 519.060869 860.716348 503.943303 865.449129L503.943303 864.957117C503.949583 834.8163 482.130235 809.103923 452.390084 804.205725 422.649934 799.307527 393.7371 816.664321 384.076877 845.215135 376.689514 840.764896 368.223497 838.425042 359.599279 838.44997 333.275365 838.44997 311.935616 859.789719 311.935616 886.113634 311.941867 889.086294 312.230166 892.051655 312.796637 894.96985 288.076246 898.507772 270.308345 920.570982 272.122069 945.477306 273.935794 970.383631 294.712659 989.639939 319.684805 989.559159L524.792312 989.559159C529.22042 988.329129 533.27952 986.238078 537.031111 984.700541 557.695616 976.336336 557.44961 974.983303 578.729129 966.004084 583.218739 964.097538 588.138859 962.067988 593.489489 959.915435 594.0591 957.246845 594.347681 954.52594 594.350511 951.797237 594.330161 935.539626 583.934406 921.109328 568.51988 915.941862L568.51988 915.941862z"/>
  </g>
</svg>
