<svg xmlns="http://www.w3.org/2000/svg" width="886" height="291" viewBox="0 0 886 291">
  <g fill="none">
    <path fill="#CED400" d="M0,14.0800833 C0,14.0800833 70.4250104,51.585982 173.596974,57.3040944 C276.768938,63.0222068 414.323359,11.4362248 414.323359,11.4362248 C414.323359,11.4362248 513.314337,-19.8350867 650.36458,23.9361416 C650.36458,23.9361416 749.92737,48.9421235 885.385149,5.69351839 L885.385149,225.687134 C885.385149,225.687134 743.114823,328.754573 550.322207,274.561624 C357.529591,220.368675 254.88025,242.251214 254.88025,242.251214 C254.88025,242.251214 72.8659681,291.230229 0,238.605149 L0,14.0800833 Z"/>
    <path fill="#D4DA0B" d="M550.937058,127.649174 C358.144441,181.842124 255.495101,159.953435 255.495101,159.953435 C255.495101,159.953435 73.7820958,110.974421 0.614850798,163.605649 L0.614850798,238.617446 C73.4808189,291.230229 255.495101,242.251214 255.495101,242.251214 C255.495101,242.251214 358.144441,220.368675 550.937058,274.555475 C743.729674,328.742276 886,225.680985 886,225.680985 L886,176.492922 C886,176.492922 743.729674,73.4623734 550.937058,127.649174 Z"/>
    <path fill="#DAE00E" d="M550.322207,219.225052 C357.529591,165.032103 254.88025,186.914643 254.88025,186.914643 C254.88025,186.914643 72.8659681,235.893657 0,183.268577 L0,238.605149 C72.8659681,291.230229 254.88025,242.251214 254.88025,242.251214 C254.88025,242.251214 357.529591,220.368675 550.322207,274.555475 C743.114823,328.742276 885.385149,225.680985 885.385149,225.680985 L885.385149,170.344414 C885.385149,170.344414 743.114823,273.411853 550.322207,219.225052 Z"/>
  </g>
</svg>
