<svg xmlns="http://www.w3.org/2000/svg" width="886" height="346" viewBox="0 0 886 346">
  <g fill="none">
    <path fill="#CED400" d="M0,14.0800833 C0,14.0800833 70.4250104,51.585982 173.596974,57.3040944 C276.768938,63.0222068 414.323359,11.4362248 414.323359,11.4362248 C414.323359,11.4362248 513.314337,-19.8350867 650.36458,23.9361416 C650.36458,23.9361416 749.92737,48.9421235 885.385149,5.69351839 L885.385149,225.687134 C885.385149,225.687134 743.114823,328.754573 550.322207,274.561624 C357.529591,220.368675 254.88025,242.251214 254.88025,242.251214 C254.88025,242.251214 72.8659681,291.230229 0,238.605149 L0,14.0800833 Z"/>
    <path fill="#D4DA0B" d="M550.937058,182.985746 C358.144441,237.178695 255.495101,215.290007 255.495101,215.290007 C255.495101,215.290007 73.7820958,166.310992 0.614850798,218.942221 L0.614850798,293.954018 C73.4808189,346.566801 255.495101,297.587786 255.495101,297.587786 C255.495101,297.587786 358.144441,275.705246 550.937058,329.892047 C743.729674,384.078848 886,281.017557 886,281.017557 L886,231.829493 C886,231.829493 743.729674,128.798945 550.937058,182.985746 Z"/>
    <path fill="#DAE00E" d="M550.322207,274.561624 C357.529591,220.368675 254.88025,242.251214 254.88025,242.251214 C254.88025,242.251214 72.8659681,291.230229 0,238.605149 L0,293.941721 C72.8659681,346.566801 254.88025,297.587786 254.88025,297.587786 C254.88025,297.587786 357.529591,275.705246 550.322207,329.892047 C743.114823,384.078848 885.385149,281.017557 885.385149,281.017557 L885.385149,225.680985 C885.385149,225.680985 743.114823,328.748425 550.322207,274.561624 Z"/>
  </g>
</svg>
