<svg xmlns="http://www.w3.org/2000/svg" viewBox="0 0 1440 665.31"><title>bg-hero</title><path d="M0,558.52c23.63-2.81,55.76-5.11,101.83-1.07,79.82,7,127.73,30,216.1,58.46,91.48,29.49,137.22,44.23,181.36,48.3,139.19,12.83,260-36.3,322.88-61.87,33.55-13.64,33.21-15.85,67.8-30.51,55.53-23.54,155.18-62.77,284.75-72,60.29-4.31,153.71-3.89,265.29,26.27V1H0Z" transform="translate(0 -1)" fill="#3ba4dc"/><path d="M870.4,491.26c.1-1.61.16-3.23.16-4.87a80.94,80.94,0,0,0-105.23-77.17c0-.28,0-.56,0-.85a100.12,100.12,0,0,0-195-32.09,77.48,77.48,0,0,0-115.94,80.9A77.3,77.3,0,0,0,465.68,611H799.22c7.17-2,13.84-5.37,19.95-7.85,33.55-13.64,33.21-15.75,67.8-30.41q10.88-4.61,24-9.88a61.61,61.61,0,0,0-40.56-71.59Z" transform="translate(0 -1)" fill="#60aee1"/><path d="M277.86,164.51a57.24,57.24,0,0,0-26.63,6.54,54.07,54.07,0,0,0-69.46-23.77A78.79,78.79,0,0,0,29.31,157.78,62.44,62.44,0,0,0,0,155V278.89A63.14,63.14,0,0,0,8.91,280h269a57.74,57.74,0,0,0,0-115.49Z" transform="translate(0 -1)" fill="#60aee1"/><path d="M1440,189.89a89.34,89.34,0,0,0-50.73-15.72,90.24,90.24,0,0,0-17.94,1.8,108.13,108.13,0,0,0-198,50.91A68,68,0,0,0,1072,286v.68A67.48,67.48,0,0,0,1139.37,354h234.94c2.58,0,5.13-.21,7.67-.39,2.41.19,4.83.27,7.29.27A89.44,89.44,0,0,0,1440,338.15Z" transform="translate(0 -1)" fill="#60aee1"/></svg>