<svg xmlns="http://www.w3.org/2000/svg" viewBox="0 0 31.22 30.95"><title>chip</title><path d="M27.51,3.33H3.71a.25.25,0,0,0-.25.25v23.8a.25.25,0,0,0,.25.25h23.8a.25.25,0,0,0,.25-.25V3.58A.25.25,0,0,0,27.51,3.33ZM20.23,20.09H11V10.86h9.23Z" fill="#a5d2fa" stroke="#a7d0ef" stroke-linecap="round" stroke-linejoin="round" stroke-width="1.1"/><line x1="3.17" y1="7.23" x2="0.55" y2="7.23" fill="none" stroke="#a7d0ef" stroke-linecap="round" stroke-miterlimit="10" stroke-width="1.1"/><line x1="3.17" y1="10.53" x2="0.55" y2="10.53" fill="none" stroke="#a7d0ef" stroke-linecap="round" stroke-miterlimit="10" stroke-width="1.1"/><line x1="3.17" y1="13.83" x2="0.55" y2="13.83" fill="none" stroke="#a7d0ef" stroke-linecap="round" stroke-miterlimit="10" stroke-width="1.1"/><line x1="3.17" y1="17.13" x2="0.55" y2="17.13" fill="none" stroke="#a7d0ef" stroke-linecap="round" stroke-miterlimit="10" stroke-width="1.1"/><line x1="3.17" y1="20.43" x2="0.55" y2="20.43" fill="none" stroke="#a7d0ef" stroke-linecap="round" stroke-miterlimit="10" stroke-width="1.1"/><line x1="3.17" y1="23.73" x2="0.55" y2="23.73" fill="none" stroke="#a7d0ef" stroke-linecap="round" stroke-miterlimit="10" stroke-width="1.1"/><line x1="30.67" y1="7.23" x2="28.05" y2="7.23" fill="none" stroke="#a7d0ef" stroke-linecap="round" stroke-miterlimit="10" stroke-width="1.1"/><line x1="30.67" y1="10.53" x2="28.05" y2="10.53" fill="none" stroke="#a7d0ef" stroke-linecap="round" stroke-miterlimit="10" stroke-width="1.1"/><line x1="30.67" y1="13.83" x2="28.05" y2="13.83" fill="none" stroke="#a7d0ef" stroke-linecap="round" stroke-miterlimit="10" stroke-width="1.1"/><line x1="30.67" y1="17.13" x2="28.05" y2="17.13" fill="none" stroke="#a7d0ef" stroke-linecap="round" stroke-miterlimit="10" stroke-width="1.1"/><line x1="30.67" y1="20.43" x2="28.05" y2="20.43" fill="none" stroke="#a7d0ef" stroke-linecap="round" stroke-miterlimit="10" stroke-width="1.1"/><line x1="30.67" y1="23.73" x2="28.05" y2="23.73" fill="none" stroke="#a7d0ef" stroke-linecap="round" stroke-miterlimit="10" stroke-width="1.1"/><line x1="23.86" y1="3.15" x2="23.86" y2="0.55" fill="none" stroke="#a7d0ef" stroke-linecap="round" stroke-miterlimit="10" stroke-width="1.1"/><line x1="20.56" y1="3.15" x2="20.56" y2="0.55" fill="none" stroke="#a7d0ef" stroke-linecap="round" stroke-miterlimit="10" stroke-width="1.1"/><line x1="17.26" y1="3.15" x2="17.26" y2="0.55" fill="none" stroke="#a7d0ef" stroke-linecap="round" stroke-miterlimit="10" stroke-width="1.1"/><line x1="13.96" y1="3.15" x2="13.96" y2="0.55" fill="none" stroke="#a7d0ef" stroke-linecap="round" stroke-miterlimit="10" stroke-width="1.1"/><line x1="10.66" y1="3.15" x2="10.66" y2="0.55" fill="none" stroke="#a7d0ef" stroke-linecap="round" stroke-miterlimit="10" stroke-width="1.1"/><line x1="7.36" y1="3.15" x2="7.36" y2="0.55" fill="none" stroke="#a7d0ef" stroke-linecap="round" stroke-miterlimit="10" stroke-width="1.1"/><line x1="23.86" y1="30.4" x2="23.86" y2="27.8" fill="none" stroke="#a7d0ef" stroke-linecap="round" stroke-miterlimit="10" stroke-width="1.1"/><line x1="20.56" y1="30.4" x2="20.56" y2="27.8" fill="none" stroke="#a7d0ef" stroke-linecap="round" stroke-miterlimit="10" stroke-width="1.1"/><line x1="17.26" y1="30.4" x2="17.26" y2="27.8" fill="none" stroke="#a7d0ef" stroke-linecap="round" stroke-miterlimit="10" stroke-width="1.1"/><line x1="13.96" y1="30.4" x2="13.96" y2="27.8" fill="none" stroke="#a7d0ef" stroke-linecap="round" stroke-miterlimit="10" stroke-width="1.1"/><line x1="10.66" y1="30.4" x2="10.66" y2="27.8" fill="none" stroke="#a7d0ef" stroke-linecap="round" stroke-miterlimit="10" stroke-width="1.1"/><line x1="7.36" y1="30.4" x2="7.36" y2="27.8" fill="none" stroke="#a7d0ef" stroke-linecap="round" stroke-miterlimit="10" stroke-width="1.1"/><rect x="13.35" y="13.21" width="4.53" height="4.53" fill="#a5d2fa" stroke="#a7d0ef" stroke-linecap="round" stroke-linejoin="round" stroke-width="1.1"/><rect x="22.28" y="15.31" width="0.32" height="0.32" transform="translate(37.92 -6.97) rotate(90)" fill="#9bd2fa" stroke="#fff" stroke-linecap="round" stroke-miterlimit="10" stroke-width="1.1"/><rect x="22.28" y="12.19" width="0.32" height="0.32" transform="translate(34.8 -10.09) rotate(90)" fill="#9bd2fa" stroke="#fff" stroke-linecap="round" stroke-miterlimit="10" stroke-width="1.1"/><rect x="22.28" y="18.43" width="0.32" height="0.32" transform="translate(41.04 -3.85) rotate(90)" fill="#9bd2fa" stroke="#fff" stroke-linecap="round" stroke-miterlimit="10" stroke-width="1.1"/><rect x="8.61" y="15.31" width="0.32" height="0.32" transform="translate(24.25 6.7) rotate(90)" fill="#9bd2fa" stroke="#fff" stroke-linecap="round" stroke-miterlimit="10" stroke-width="1.1"/><rect x="8.61" y="12.19" width="0.32" height="0.32" transform="translate(21.13 3.58) rotate(90)" fill="#9bd2fa" stroke="#fff" stroke-linecap="round" stroke-miterlimit="10" stroke-width="1.1"/><rect x="8.61" y="18.43" width="0.32" height="0.32" transform="translate(27.37 9.82) rotate(90)" fill="#9bd2fa" stroke="#fff" stroke-linecap="round" stroke-miterlimit="10" stroke-width="1.1"/><rect x="15.45" y="22.15" width="0.32" height="0.32" transform="translate(31.22 44.62) rotate(180)" fill="#9bd2fa" stroke="#fff" stroke-linecap="round" stroke-miterlimit="10" stroke-width="1.1"/><rect x="18.57" y="22.15" width="0.32" height="0.32" transform="translate(37.46 44.62) rotate(180)" fill="#9bd2fa" stroke="#fff" stroke-linecap="round" stroke-miterlimit="10" stroke-width="1.1"/><rect x="12.33" y="22.15" width="0.32" height="0.32" transform="translate(24.98 44.62) rotate(180)" fill="#9bd2fa" stroke="#fff" stroke-linecap="round" stroke-miterlimit="10" stroke-width="1.1"/><rect x="15.45" y="8.48" width="0.32" height="0.32" transform="translate(31.22 17.28) rotate(180)" fill="#9bd2fa" stroke="#fff" stroke-linecap="round" stroke-miterlimit="10" stroke-width="1.1"/><rect x="18.57" y="8.48" width="0.32" height="0.32" transform="translate(37.46 17.28) rotate(180)" fill="#9bd2fa" stroke="#fff" stroke-linecap="round" stroke-miterlimit="10" stroke-width="1.1"/><rect x="12.33" y="8.48" width="0.32" height="0.32" transform="translate(24.98 17.28) rotate(180)" fill="#9bd2fa" stroke="#fff" stroke-linecap="round" stroke-miterlimit="10" stroke-width="1.1"/></svg>