<svg xmlns="http://www.w3.org/2000/svg" viewBox="0 0 40.02 25.78"><title>clouds</title><path d="M13.65,14.68s0,0,0,0A6.17,6.17,0,0,1,22.26,9a7.34,7.34,0,0,1,4.11-2A7.35,7.35,0,0,0,14,2.59,6.17,6.17,0,0,0,5.39,8.26s0,0,0,0a5.29,5.29,0,0,0,.44,10.55H8.93A5.28,5.28,0,0,1,13.65,14.68Z" fill="none" stroke="#fff" stroke-linecap="round" stroke-linejoin="round" stroke-width="1.1"/><path d="M34.87,16l-.41,0A7.35,7.35,0,0,0,22.26,9a6.17,6.17,0,0,0-8.61,5.67s0,0,0,0a5.29,5.29,0,0,0,.44,10.55H34.87a4.6,4.6,0,0,0,0-9.2Z" fill="#a7d0ef" stroke="#a7d0ef" stroke-linecap="round" stroke-linejoin="round" stroke-width="1.1"/><rect x="23.65" y="17.75" width="0.97" height="0.97" fill="#9bd2fa" stroke="#fff" stroke-linecap="round" stroke-linejoin="round" stroke-width="1.1"/><rect x="18.08" y="17.75" width="0.97" height="0.97" fill="#9bd2fa" stroke="#fff" stroke-linecap="round" stroke-linejoin="round" stroke-width="1.1"/><rect x="29.22" y="17.75" width="0.97" height="0.97" fill="#9bd2fa" stroke="#fff" stroke-linecap="round" stroke-linejoin="round" stroke-width="1.1"/><rect x="8.7" y="11.44" width="0.97" height="0.97" fill="#9bd2fa" stroke="#a7d0ef" stroke-linecap="round" stroke-linejoin="round" stroke-width="1.1"/></svg>