<svg xmlns="http://www.w3.org/2000/svg" viewBox="0 0 33.24 30.82"><title>cloud-computing</title><circle cx="15.74" cy="25.93" r="2.11" fill="#fff" stroke="#a7d0ef" stroke-linecap="round" stroke-miterlimit="10" stroke-width="1.1"/><polyline points="15.74 23.81 15.74 21.37 17.38 19.74" fill="none" stroke="#a7d0ef" stroke-linecap="round" stroke-linejoin="round" stroke-width="1.1"/><circle cx="3.23" cy="24.75" r="2.11" fill="#fff" stroke="#a7d0ef" stroke-linecap="round" stroke-miterlimit="10" stroke-width="1.1"/><circle cx="23.24" cy="28.16" r="2.11" fill="#fff" stroke="#a7d0ef" stroke-linecap="round" stroke-miterlimit="10" stroke-width="1.1"/><polyline points="21.04 19.73 21.04 21.41 23.24 23.61 23.24 26.05" fill="none" stroke="#a7d0ef" stroke-linecap="round" stroke-linejoin="round" stroke-width="1.1"/><circle cx="9.29" cy="27.91" r="2.11" fill="#fff" stroke="#a7d0ef" stroke-linecap="round" stroke-miterlimit="10" stroke-width="1.1"/><polyline points="11.55 19.74 11.55 21.16 9.35 23.36 9.35 25.8" fill="none" stroke="#a7d0ef" stroke-linecap="round" stroke-linejoin="round" stroke-width="1.1"/><polyline points="4.61 23.27 6.81 21.07 6.81 19.74" fill="none" stroke="#a7d0ef" stroke-linecap="round" stroke-linejoin="round" stroke-width="1.1"/><circle cx="29.47" cy="25.2" r="2.11" fill="#fff" stroke="#a7d0ef" stroke-linecap="round" stroke-miterlimit="10" stroke-width="1.1"/><polyline points="25.81 19.73 25.81 21.5 28.01 23.7" fill="none" stroke="#a7d0ef" stroke-linecap="round" stroke-linejoin="round" stroke-width="1.1"/><path d="M27.87,10.1l-.43,0A7.7,7.7,0,0,0,14.65,2.68a6.47,6.47,0,0,0-9,5.95s0,0,0,0a5.54,5.54,0,0,0,.47,11.06H27.87a4.82,4.82,0,0,0,0-9.64Z" fill="#a5d2fa" stroke="#a7d0ef" stroke-linecap="round" stroke-linejoin="round" stroke-width="1.1"/><path d="M11.19,11.36A5.92,5.92,0,0,0,4.95,8.78" fill="none" stroke="#a7d0ef" stroke-linecap="round" stroke-linejoin="round" stroke-width="1.1"/><path d="M27.58,7a5.91,5.91,0,0,1-2,5.78" fill="none" stroke="#a7d0ef" stroke-linecap="round" stroke-linejoin="round" stroke-width="1.1"/></svg>