<svg xmlns="http://www.w3.org/2000/svg" viewBox="0 0 104.21 83.41"><title>code</title><rect x="4.06" y="18.67" width="96.23" height="4" fill="#3ca2d8"/><path d="M97.18,0H7A7,7,0,0,0,0,7V76.45c0,3.84,3.54,7,7.38,7H97.63c1.87,0,3.62-1.32,4.94-2.65a6.64,6.64,0,0,0,1.64-5V7A7,7,0,0,0,97.18,0Zm2.54,78c-.56.57-1.31,1.46-2.12,1.46H7.38a3.36,3.36,0,0,1-3.38-3V7A3,3,0,0,1,7,4H97.18a3,3,0,0,1,3,3V75.83A2.73,2.73,0,0,1,99.72,78Z" fill="#3ca2d8"/><path d="M22.74,50.73,36.85,36.62A2,2,0,0,0,34,33.79L18.5,49.31a2,2,0,0,0,0,2.83L34,67.66a2,2,0,0,0,2.83-2.83Z" fill="#3ca2d8"/><path d="M86.48,49.31,71,33.79a2,2,0,0,0-2.83,2.83L82.24,50.73,68.13,64.84A2,2,0,1,0,71,67.66L86.48,52.14A2,2,0,0,0,86.48,49.31Z" fill="#3ca2d8"/><path d="M45.67,72.47a2,2,0,0,1-1.91-2.59l11.9-38.49a2,2,0,1,1,3.82,1.18L47.58,71.06A2,2,0,0,1,45.67,72.47Z" fill="#3ca2d8"/><circle cx="39.84" cy="11.13" r="3.24" fill="#3ca2d8"/><circle cx="27.67" cy="11.13" r="3.24" fill="#3ca2d8"/><circle cx="15.5" cy="11.13" r="3.24" fill="#3ca2d8"/></svg>