<svg xmlns="http://www.w3.org/2000/svg" viewBox="0 0 28.19 27.7"><title>encryption</title><path d="M1.26,1.89H6.54A1.57,1.57,0,0,1,8.11,3.46V4.67A1.57,1.57,0,0,0,9.68,6.25h6.06" fill="none" stroke="#a7d0ef" stroke-linecap="round" stroke-linejoin="round" stroke-width="1.1"/><circle cx="17.61" cy="6.38" r="1.84" fill="#a7d0ef" stroke="#a7d0ef" stroke-linecap="round" stroke-linejoin="round" stroke-width="1.1"/><line x1="10.22" y1="27.15" x2="10.22" y2="22.92" fill="none" stroke="#a7d0ef" stroke-linecap="round" stroke-linejoin="round" stroke-width="1.1"/><circle cx="10.3" cy="20.78" r="1.84" fill="#fff" stroke="#a7d0ef" stroke-linecap="round" stroke-linejoin="round" stroke-width="1.1"/><path d="M26.93,26.83V14.48a1.57,1.57,0,0,0-1.57-1.57h-.84" fill="none" stroke="#a7d0ef" stroke-linecap="round" stroke-linejoin="round" stroke-width="1.1"/><circle cx="22.34" cy="12.98" r="1.84" fill="#a7d0ef" stroke="#a7d0ef" stroke-linecap="round" stroke-linejoin="round" stroke-width="1.1"/><path d="M1.42,14.17V23.8A1.57,1.57,0,0,0,3,25.37h.84" fill="none" stroke="#a7d0ef" stroke-linecap="round" stroke-linejoin="round" stroke-width="1.1"/><circle cx="6.01" cy="25.3" r="1.84" fill="#a7d0ef" stroke="#a7d0ef" stroke-linecap="round" stroke-linejoin="round" stroke-width="1.1"/><path d="M21.24,21.38H16.19a1.57,1.57,0,0,0-1.57,1.57v.52" fill="none" stroke="#a7d0ef" stroke-linecap="round" stroke-linejoin="round" stroke-width="1.1"/><circle cx="14.63" cy="25.3" r="1.84" fill="#fff" stroke="#a7d0ef" stroke-linecap="round" stroke-linejoin="round" stroke-width="1.1"/><path d="M22.4,7.54V3.91a1.57,1.57,0,0,0-1.57-1.57H15.75" fill="none" stroke="#a7d0ef" stroke-linecap="round" stroke-linejoin="round" stroke-width="1.1"/><circle cx="13.67" cy="2.46" r="1.84" fill="#fff" stroke="#a7d0ef" stroke-linecap="round" stroke-linejoin="round" stroke-width="1.1"/><path d="M11.24,14.2l0,2.22A1.57,1.57,0,0,0,12.79,18H16.7" fill="none" stroke="#a7d0ef" stroke-linecap="round" stroke-linejoin="round" stroke-width="1.1"/><circle cx="18.87" cy="17.91" r="1.84" fill="#fff" stroke="#a7d0ef" stroke-linecap="round" stroke-linejoin="round" stroke-width="1.1"/><circle cx="23.08" cy="21.38" r="1.84" fill="#a7d0ef" stroke="#a7d0ef" stroke-linecap="round" stroke-linejoin="round" stroke-width="1.1"/><path d="M18.91,14.39V11a1.57,1.57,0,0,1,1.57-1.57h3.83a1.57,1.57,0,0,0,1.57-1.57V4.44" fill="none" stroke="#a7d0ef" stroke-linecap="round" stroke-linejoin="round" stroke-width="1.1"/><circle cx="25.81" cy="2.39" r="1.84" fill="#fff" stroke="#a7d0ef" stroke-linecap="round" stroke-linejoin="round" stroke-width="1.1"/><line x1="1.22" y1="11.39" x2="11.96" y2="11.39" fill="none" stroke="#a7d0ef" stroke-linecap="round" stroke-linejoin="round" stroke-width="1.1"/><circle cx="14.02" cy="11.39" r="1.84" fill="#fff" stroke="#a7d0ef" stroke-linecap="round" stroke-linejoin="round" stroke-width="1.1"/><line x1="5.42" y1="14.17" x2="5.42" y2="16.51" fill="none" stroke="#a7d0ef" stroke-linecap="round" stroke-linejoin="round" stroke-width="1.1"/><circle cx="5.42" cy="18.56" r="1.84" fill="#a7d0ef" stroke="#a7d0ef" stroke-linecap="round" stroke-linejoin="round" stroke-width="1.1"/><line x1="12.44" y1="8.05" x2="4.64" y2="8.05" fill="none" stroke="#a7d0ef" stroke-linecap="round" stroke-linejoin="round" stroke-width="1.1"/><circle cx="2.39" cy="8.05" r="1.84" fill="#fff" stroke="#a7d0ef" stroke-linecap="round" stroke-linejoin="round" stroke-width="1.1"/></svg>