<svg xmlns="http://www.w3.org/2000/svg" viewBox="0 0 31.68 31.62"><title>network</title><line x1="15.88" y1="21.43" x2="15.88" y2="17.29" fill="none" stroke="#a7d0ef" stroke-linecap="round" stroke-linejoin="round" stroke-width="1.1"/><line x1="0.55" y1="15.55" x2="4.6" y2="15.55" fill="none" stroke="#a7d0ef" stroke-linecap="round" stroke-linejoin="round" stroke-width="1.1"/><line x1="7.8" y1="15.64" x2="14.16" y2="15.64" fill="none" stroke="#a7d0ef" stroke-linecap="round" stroke-linejoin="round" stroke-width="1.1"/><line x1="17.55" y1="15.64" x2="23.9" y2="15.64" fill="none" stroke="#a7d0ef" stroke-linecap="round" stroke-linejoin="round" stroke-width="1.1"/><line x1="27.32" y1="15.55" x2="30.68" y2="15.55" fill="none" stroke="#a7d0ef" stroke-linecap="round" stroke-linejoin="round" stroke-width="1.1"/><circle cx="15.86" cy="15.59" r="1.7" fill="#fff" stroke="#a7d0ef" stroke-linecap="round" stroke-linejoin="round" stroke-width="1.1"/><rect x="10.37" y="21.42" width="10.99" height="8.13" rx="0.43" ry="0.43" fill="#a5d2fa" stroke="#a7d0ef" stroke-linecap="round" stroke-linejoin="round" stroke-width="1.1"/><line x1="12.74" y1="31.07" x2="18.97" y2="31.07" fill="none" stroke="#a7d0ef" stroke-linecap="round" stroke-linejoin="round" stroke-width="1.1"/><line x1="6.1" y1="13.82" x2="6.1" y2="10.23" fill="none" stroke="#a7d0ef" stroke-linecap="round" stroke-linejoin="round" stroke-width="1.1"/><line x1="25.66" y1="13.88" x2="25.66" y2="10.23" fill="none" stroke="#a7d0ef" stroke-linecap="round" stroke-linejoin="round" stroke-width="1.1"/><circle cx="6.1" cy="15.54" r="1.7" fill="#a5d2fa" stroke="#a7d0ef" stroke-linecap="round" stroke-linejoin="round" stroke-width="1.1"/><rect x="0.67" y="0.55" width="10.99" height="8.13" rx="0.43" ry="0.43" fill="#fff" stroke="#a7d0ef" stroke-linecap="round" stroke-linejoin="round" stroke-width="1.1"/><line x1="3.05" y1="10.2" x2="9.28" y2="10.2" fill="#fff" stroke="#a7d0ef" stroke-linecap="round" stroke-linejoin="round" stroke-width="1.1"/><circle cx="25.61" cy="15.54" r="1.7" fill="#a5d2fa" stroke="#a7d0ef" stroke-linecap="round" stroke-linejoin="round" stroke-width="1.1"/><rect x="20.14" y="0.55" width="10.99" height="8.13" rx="0.43" ry="0.43" fill="#fff" stroke="#a7d0ef" stroke-linecap="round" stroke-linejoin="round" stroke-width="1.1"/><line x1="22.52" y1="10.2" x2="28.75" y2="10.2" fill="none" stroke="#a7d0ef" stroke-linecap="round" stroke-linejoin="round" stroke-width="1.1"/></svg>