<svg xmlns="http://www.w3.org/2000/svg" viewBox="0 0 36.27 34.1"><title>preferences</title><path d="M14.81,26.05l.82-2-1.27-.53a6.39,6.39,0,0,0,0-2.89l1.27-.52-.8-2-1.27.52a6.39,6.39,0,0,0-2-2.05l.53-1.27-2-.82-.53,1.27a6.39,6.39,0,0,0-2.89,0l-.52-1.27-2,.8.52,1.27a6.4,6.4,0,0,0-2.05,2l-1.27-.53-.82,2,1.27.53a6.39,6.39,0,0,0,0,2.89L.55,24l.8,2,1.27-.52a6.4,6.4,0,0,0,2,2.05l-.53,1.27,2,.82.53-1.27a6.4,6.4,0,0,0,2.89,0L10,29.63l2-.8-.52-1.27a6.39,6.39,0,0,0,2.05-2Z" fill="#fff" stroke="#fff" stroke-linecap="round" stroke-linejoin="round" stroke-width="1.1"/><circle cx="8.1" cy="22.09" r="3.62" transform="translate(-15.4 21.01) rotate(-67.24)" fill="none" stroke="#fff" stroke-linecap="round" stroke-linejoin="round" stroke-width="1.1"/><circle cx="25.38" cy="15.38" r="4.84" transform="translate(-3.5 22.22) rotate(-44.53)" fill="none" stroke="#a7d0ef" stroke-linecap="round" stroke-linejoin="round" stroke-width="1.1"/><path d="M17.54,28A8.3,8.3,0,0,1,7,33.09" fill="none" stroke="#fff" stroke-linecap="round" stroke-linejoin="round" stroke-width="1.1"/><path d="M12.72,8.88A12.35,12.35,0,0,1,28.45,1.23" fill="none" stroke="#a7d0ef" stroke-linecap="round" stroke-linejoin="round" stroke-width="1.1"/><circle cx="8.1" cy="22.09" r="3.62" transform="translate(-15.4 21.01) rotate(-67.24)" fill="#a5d2fa" stroke="#fff" stroke-linecap="round" stroke-linejoin="round" stroke-width="1.1"/><path d="M33.86,16.87l1.84,0,0-2.84-1.84,0a8.55,8.55,0,0,0-1.45-3.58l1.31-1.29-2-2L30.43,8.42a8.56,8.56,0,0,0-3.56-1.51l0-1.84L24,5l0,1.84a8.56,8.56,0,0,0-3.58,1.45L19.15,7l-2,2,1.29,1.31a8.55,8.55,0,0,0-1.51,3.56l-1.84,0,0,2.84,1.84,0a8.55,8.55,0,0,0,1.45,3.58L17,21.61l2,2,1.31-1.29a8.56,8.56,0,0,0,3.56,1.51l0,1.84,2.84,0,0-1.84a8.56,8.56,0,0,0,3.58-1.45l1.29,1.31,2-2-1.29-1.31A8.55,8.55,0,0,0,33.86,16.87Zm-5.08,2A4.84,4.84,0,1,1,28.84,12,4.84,4.84,0,0,1,28.78,18.84Z" fill="#a7d0ef" stroke="#a7d0ef" stroke-linecap="round" stroke-linejoin="round" stroke-width="1.1"/><circle cx="25.38" cy="15.38" r="0.82" fill="none" stroke="#a7d0ef" stroke-linecap="round" stroke-linejoin="round" stroke-width="1.1"/><circle cx="8.1" cy="22.09" r="0.82" fill="#fff" stroke="#fff" stroke-linecap="round" stroke-linejoin="round" stroke-width="1.1"/></svg>