<svg xmlns="http://www.w3.org/2000/svg" viewBox="0 0 22.93 31.62"><title>server</title><rect x="3.01" y="15.9" width="17.01" height="1.55" rx="0.62" ry="0.62" fill="none" stroke="#fff" stroke-linecap="round" stroke-linejoin="round" stroke-width="1.1"/><rect x="3.01" y="7.18" width="17.01" height="1.56" rx="0.62" ry="0.62" fill="none" stroke="#fff" stroke-linecap="round" stroke-linejoin="round" stroke-width="1.1"/><line x1="11.51" y1="24.61" x2="11.51" y2="26.23" fill="none" stroke="#fff" stroke-linecap="round" stroke-linejoin="round" stroke-width="1.1"/><line x1="0.55" y1="28.58" x2="9" y2="28.58" fill="none" stroke="#fff" stroke-linecap="round" stroke-linejoin="round" stroke-width="1.1"/><line x1="13.93" y1="28.58" x2="22.38" y2="28.58" fill="none" stroke="#fff" stroke-linecap="round" stroke-linejoin="round" stroke-width="1.1"/><circle cx="11.51" cy="28.65" r="2.42" fill="none" stroke="#fff" stroke-linecap="round" stroke-linejoin="round" stroke-width="1.1"/><path d="M21.59,17.45H1.43a.49.49,0,0,0-.49.49v6.19a.49.49,0,0,0,.49.49H21.59a.49.49,0,0,0,.49-.49V17.94A.49.49,0,0,0,21.59,17.45Zm-3.37,5a1.39,1.39,0,1,1,1.39-1.39A1.39,1.39,0,0,1,18.22,22.5Z" fill="#a7d0ef"/><path d="M21.59,8.73H1.43a.49.49,0,0,0-.49.49V15.4a.49.49,0,0,0,.49.49H21.59a.49.49,0,0,0,.49-.49V9.21A.49.49,0,0,0,21.59,8.73Zm-3.37,4.93a1.39,1.39,0,1,1,1.39-1.39A1.39,1.39,0,0,1,18.22,13.66Z" fill="#a7d0ef"/><path d="M21.59,0H1.44A.49.49,0,0,0,.95.49V6.67a.49.49,0,0,0,.49.49H21.59a.49.49,0,0,0,.49-.49V.49A.49.49,0,0,0,21.59,0ZM18.22,5a1.39,1.39,0,1,1,1.39-1.39A1.39,1.39,0,0,1,18.22,5Z" fill="#a7d0ef"/><rect x="7.63" y="3.49" width="0.35" height="0.35" transform="translate(15.62 7.34) rotate(180)" fill="#fff" stroke="#fff" stroke-linecap="round" stroke-miterlimit="10" stroke-width="1.1"/><rect x="4.23" y="3.49" width="0.35" height="0.35" transform="translate(8.81 7.34) rotate(180)" fill="#fff" stroke="#fff" stroke-linecap="round" stroke-miterlimit="10" stroke-width="1.1"/><rect x="7.63" y="12.19" width="0.35" height="0.35" transform="translate(15.62 24.73) rotate(180)" fill="#fff" stroke="#fff" stroke-linecap="round" stroke-miterlimit="10" stroke-width="1.1"/><rect x="4.23" y="12.19" width="0.35" height="0.35" transform="translate(8.81 24.73) rotate(180)" fill="#fff" stroke="#fff" stroke-linecap="round" stroke-miterlimit="10" stroke-width="1.1"/><rect x="7.63" y="21.06" width="0.35" height="0.35" transform="translate(15.62 42.47) rotate(180)" fill="#fff" stroke="#fff" stroke-linecap="round" stroke-miterlimit="10" stroke-width="1.1"/><rect x="4.23" y="21.06" width="0.35" height="0.35" transform="translate(8.81 42.47) rotate(180)" fill="#fff" stroke="#fff" stroke-linecap="round" stroke-miterlimit="10" stroke-width="1.1"/></svg>