<svg xmlns="http://www.w3.org/2000/svg" viewBox="0 0 104.98 97.48"><title>thin-24hour</title><path d="M31.12,50.75a2,2,0,0,1,0-4H46.74V22.2a2,2,0,1,1,4,0V48.74a2,2,0,0,1-2,2H31.12Z" fill="#3ca2d8"/><path d="M104,41.8a2,2,0,0,0-2.73.73l-3.78,6.54c0-.11,0-.23,0-.34A48.74,48.74,0,1,0,48.74,97.48a2,2,0,1,0,0-4A44.74,44.74,0,1,1,93.48,48.74c0,.1,0,.21,0,.31l-3.76-6.51a2,2,0,1,0-3.46,2l7.5,13a2,2,0,0,0,3.46,0l7.5-13A2,2,0,0,0,104,41.8Z" fill="#3ca2d8"/><path d="M75.49,65.71H63.85a2,2,0,0,0,0,4h9.63v7.64H63.85a2,2,0,0,0-2,2V91a2,2,0,0,0,2,2H75.49a2,2,0,0,0,0-4H65.85V81.35h9.63a2,2,0,0,0,2-2V67.71A2,2,0,0,0,75.49,65.71Z" fill="#3ca2d8"/><path d="M96.4,65.71a2,2,0,0,0-2,2v9.64H86.76V67.71a2,2,0,1,0-4,0V79.35a2,2,0,0,0,2,2H94.4V91a2,2,0,1,0,4,0V67.71A2,2,0,0,0,96.4,65.71Z" fill="#3ca2d8"/></svg>