<svg xmlns="http://www.w3.org/2000/svg" viewBox="0 0 118.98 90.09"><title>Untitled-44</title><path d="M91.57,21.2l-.76,0a31.05,31.05,0,0,0-1.37-3.5,31,31,0,0,0-57.22,2.94,30.76,30.76,0,0,0-1.66,8A28.37,28.37,0,0,0,24,28a24,24,0,1,0,0,48l.16,0,.16,0h4a2,2,0,0,0,0-4h-4l-.16,0L24,72a20,20,0,1,1,0-40,23.16,23.16,0,0,1,13.27,4l.9.54a2,2,0,0,0,2-3.45l-.86-.51A37.28,37.28,0,0,0,34.51,30,26.85,26.85,0,0,1,61.44,4,27.11,27.11,0,0,1,85.83,19.43c.34.71.64,1.45.92,2.19a27,27,0,0,0-7.45,2.48,2,2,0,1,0,1.8,3.57A23.15,23.15,0,0,1,91.57,25.2a23.4,23.4,0,1,1,0,46.81,2,2,0,0,0,0,4,27.4,27.4,0,1,0,0-54.81Z" fill="#3ca2d8"/><path d="M74.55,90.09H45.25a2,2,0,0,1-2-2V65.32a2,2,0,0,1,2-2h29.3a2,2,0,0,1,2,2V88.09A2,2,0,0,1,74.55,90.09Zm-27.3-4h25.3V67.32H47.25Z" fill="#3ca2d8"/><path d="M51.91,63.32v-6.2a8,8,0,0,1,16,0v6.2h4v-6.2a12,12,0,0,0-24,0v6.2Z" fill="#3ca2d8"/></svg>