<svg xmlns="http://www.w3.org/2000/svg" viewBox="0 0 108 97"><title>thin-data-structure</title><circle cx="39.18" cy="64" r="3.24" fill="#3ca2d8"/><circle cx="27.01" cy="64" r="3.24" fill="#3ca2d8"/><circle cx="14.84" cy="64" r="3.24" fill="#3ca2d8"/><circle cx="93.17" cy="33" r="3.24" fill="#3ca2d8"/><circle cx="80.99" cy="33" r="3.24" fill="#3ca2d8"/><circle cx="68.82" cy="33" r="3.24" fill="#3ca2d8"/><path d="M41.25,86.66,53.75,65a2,2,0,0,0,0-2L41.25,41.34a2,2,0,0,0-1.73-1h-25a2,2,0,0,0-1.73,1L.27,63a2,2,0,0,0,0,2L12.77,86.66a2,2,0,0,0,1.73,1h25A2,2,0,0,0,41.25,86.66Zm-25.58-3L4.31,64,15.66,44.34h22.7L49.71,64,38.36,83.66Z" fill="#3ca2d8"/><path d="M107.74,32,95.23,10.34a2,2,0,0,0-1.73-1h-25a2,2,0,0,0-1.73,1L54.25,32a2,2,0,0,0,0,2l12.5,21.66a2,2,0,0,0,1.73,1h25a2,2,0,0,0,1.73-1L107.74,34A2,2,0,0,0,107.74,32ZM92.34,52.66H69.64L58.29,33,69.64,13.34h22.7L103.69,33Z" fill="#3ca2d8"/><path d="M82,66a2,2,0,0,0,0-4H64.51L47.63,33,64.51,4H82a2,2,0,0,0,0-4H63.36a2,2,0,0,0-1.73,1L44.16,31H26.63a2,2,0,0,0,0,4H44.16L61,64,44.16,93H26.63a2,2,0,0,0,0,4H45.31A2,2,0,0,0,47,96L64.51,66Z" fill="#3ca2d8"/><path d="M13.16,35h6.72a2,2,0,1,0,0-4H13.16a2,2,0,0,0,0,4Z" fill="#3ca2d8"/><path d="M96.4,62H89.68a2,2,0,0,0,0,4H96.4a2,2,0,0,0,0-4Z" fill="#3ca2d8"/><path d="M85.6,74H70.11a2,2,0,0,0,0,4H85.6a2,2,0,0,0,0-4Z" fill="#3ca2d8"/><path d="M79.81,85.66H64.32a2,2,0,0,0,0,4h15.5a2,2,0,0,0,0-4Z" fill="#3ca2d8"/><path d="M22.14,23.24h15.5a2,2,0,0,0,0-4H22.14a2,2,0,0,0,0,4Z" fill="#3ca2d8"/><path d="M30.44,10.34h15.5a2,2,0,0,0,0-4H30.44a2,2,0,0,0,0,4Z" fill="#3ca2d8"/></svg>