<svg xmlns="http://www.w3.org/2000/svg" viewBox="0 0 97 97"><title>thin-hardware</title><path d="M80.1,82.1H16.9a2,2,0,0,1-2-2V16.9a2,2,0,0,1,2-2H80.1a2,2,0,0,1,2,2V80.1A2,2,0,0,1,80.1,82.1Zm-61.2-4H78.1V18.9H18.9Z" fill="#3ca2d8"/><path d="M64.33,66.33H32.67a2,2,0,0,1-2-2V32.67a2,2,0,0,1,2-2H64.33a2,2,0,0,1,2,2V64.33A2,2,0,0,1,64.33,66.33Zm-29.65-4H62.33V34.67H34.67Z" fill="#3ca2d8"/><path d="M42.33,11.48a2,2,0,0,1-2-2V2a2,2,0,0,1,4,0V9.48A2,2,0,0,1,42.33,11.48Z" fill="#3ca2d8"/><path d="M67,11.48a2,2,0,0,1-2-2V2a2,2,0,1,1,4,0V9.48A2,2,0,0,1,67,11.48Z" fill="#3ca2d8"/><path d="M54.67,11.48a2,2,0,0,1-2-2V2a2,2,0,0,1,4,0V9.48A2,2,0,0,1,54.67,11.48Z" fill="#3ca2d8"/><path d="M30,11.48a2,2,0,0,1-2-2V2a2,2,0,0,1,4,0V9.48A2,2,0,0,1,30,11.48Z" fill="#3ca2d8"/><path d="M9.48,56.67H2a2,2,0,0,1,0-4H9.48a2,2,0,0,1,0,4Z" fill="#3ca2d8"/><path d="M9.48,32H2a2,2,0,0,1,0-4H9.48a2,2,0,0,1,0,4Z" fill="#3ca2d8"/><path d="M9.48,44.33H2a2,2,0,0,1,0-4H9.48a2,2,0,0,1,0,4Z" fill="#3ca2d8"/><path d="M9.48,69H2a2,2,0,0,1,0-4H9.48a2,2,0,0,1,0,4Z" fill="#3ca2d8"/><path d="M54.67,97a2,2,0,0,1-2-2V87.52a2,2,0,0,1,4,0V95A2,2,0,0,1,54.67,97Z" fill="#3ca2d8"/><path d="M30,97a2,2,0,0,1-2-2V87.52a2,2,0,0,1,4,0V95A2,2,0,0,1,30,97Z" fill="#3ca2d8"/><path d="M42.33,97a2,2,0,0,1-2-2V87.52a2,2,0,0,1,4,0V95A2,2,0,0,1,42.33,97Z" fill="#3ca2d8"/><path d="M67,97a2,2,0,0,1-2-2V87.52a2,2,0,1,1,4,0V95A2,2,0,0,1,67,97Z" fill="#3ca2d8"/><path d="M95,44.33H87.52a2,2,0,0,1,0-4H95a2,2,0,0,1,0,4Z" fill="#3ca2d8"/><path d="M95,69H87.52a2,2,0,0,1,0-4H95a2,2,0,0,1,0,4Z" fill="#3ca2d8"/><path d="M95,56.67H87.52a2,2,0,0,1,0-4H95a2,2,0,0,1,0,4Z" fill="#3ca2d8"/><path d="M95,32H87.52a2,2,0,0,1,0-4H95a2,2,0,0,1,0,4Z" fill="#3ca2d8"/></svg>