<svg xmlns="http://www.w3.org/2000/svg" viewBox="0 0 104.21 83.41"><title>thin-server-error</title><rect x="4.06" y="18.67" width="96.23" height="4" fill="#3ca2d8"/><path d="M97.18,0H7A7,7,0,0,0,0,7V76.45c0,3.84,3.54,7,7.38,7H97.63c1.87,0,3.62-1.32,4.94-2.65a6.64,6.64,0,0,0,1.64-5V7A7,7,0,0,0,97.18,0Zm2.54,78c-.56.57-1.31,1.46-2.12,1.46H7.38a3.36,3.36,0,0,1-3.38-3V7A3,3,0,0,1,7,4H97.18a3,3,0,0,1,3,3V75.83A2.73,2.73,0,0,1,99.72,78Z" fill="#3ca2d8"/><circle cx="39.84" cy="11.13" r="3.24" fill="#3ca2d8"/><circle cx="27.67" cy="11.13" r="3.24" fill="#3ca2d8"/><circle cx="15.5" cy="11.13" r="3.24" fill="#3ca2d8"/><path d="M34.84,37.17a2,2,0,0,0-2,2v9.5h-8.2v-9.5a2,2,0,0,0-4,0v11.5a2,2,0,0,0,2,2h10.2V62.74a2,2,0,0,0,4,0V39.17A2,2,0,0,0,34.84,37.17Z" fill="#3ca2d8"/><path d="M79.45,37.17a2,2,0,0,0-2,2v9.5h-8.2v-9.5a2,2,0,0,0-4,0v11.5a2,2,0,0,0,2,2h10.2V62.74a2,2,0,0,0,4,0V39.17A2,2,0,0,0,79.45,37.17Z" fill="#3ca2d8"/><path d="M58.14,64.74H44.61a2,2,0,0,1-2-2V39.17a2,2,0,0,1,2-2H58.14a2,2,0,0,1,2,2V62.74A2,2,0,0,1,58.14,64.74Zm-11.54-4h9.54V41.17H46.61Z" fill="#3ca2d8"/></svg>