<svg xmlns="http://www.w3.org/2000/svg" viewBox="0 0 118.96 100.43"><title>thin-cloud</title><circle cx="71.8" cy="62.24" r="3.24" fill="#3ca2d8"/><circle cx="59.63" cy="62.24" r="3.24" fill="#3ca2d8"/><circle cx="47.46" cy="62.24" r="3.24" fill="#3ca2d8"/><path d="M91.56,21.2l-.76,0a30.87,30.87,0,0,0-1.37-3.5,31,31,0,0,0-57.21,2.94,30.75,30.75,0,0,0-1.66,8A28.37,28.37,0,0,0,24,28a24,24,0,1,0,0,48H91.56a27.4,27.4,0,1,0,0-54.8Zm0,50.8H24a20,20,0,1,1,0-40,23.17,23.17,0,0,1,13.27,4l.9.54a2,2,0,1,0,2-3.45l-.87-.52A37.12,37.12,0,0,0,34.5,30,26.85,26.85,0,0,1,61.43,4,27.11,27.11,0,0,1,85.81,19.43c.34.71.64,1.45.91,2.19a27,27,0,0,0-7.45,2.48,2,2,0,1,0,1.79,3.57A23.15,23.15,0,0,1,91.56,25.2a23.4,23.4,0,1,1,0,46.8Z" fill="#3ca2d8"/><path d="M59.63,100.43a9.5,9.5,0,1,1,9.5-9.5A9.51,9.51,0,0,1,59.63,100.43Zm0-15a5.5,5.5,0,1,0,5.5,5.5A5.51,5.51,0,0,0,59.63,85.43Z" fill="#3ca2d8"/><path d="M54.21,91.84a1.88,1.88,0,0,0,0-.21,2,2,0,0,0-.1-.59A5.53,5.53,0,0,0,54.21,91.84Z" fill="#3ca2d8"/><path d="M50.13,90.93a9.48,9.48,0,0,1,.1-1.29H15.45a2,2,0,0,0,0,4H50.53A9.47,9.47,0,0,1,50.13,90.93Z" fill="#3ca2d8"/><path d="M103.51,89.63H69a9.1,9.1,0,0,1-.3,4h34.78a2,2,0,0,0,0-4Z" fill="#3ca2d8"/><path d="M59.63,81.43a9.51,9.51,0,0,1,2,.22V76h-4v5.64A9.51,9.51,0,0,1,59.63,81.43Z" fill="#3ca2d8"/></svg>