<svg xmlns="http://www.w3.org/2000/svg" viewBox="0 0 89.44 97.08"><title>thin-network-protection</title><path d="M44.72,69.75A21.21,21.21,0,1,1,65.93,48.54,21.24,21.24,0,0,1,44.72,69.75Zm0-38.42A17.21,17.21,0,1,0,61.93,48.54,17.23,17.23,0,0,0,44.72,31.33Z" fill="#3ca2d8"/><path d="M42.42,58.53A2,2,0,0,1,41,57.95l-6.83-6.84A2,2,0,0,1,37,48.28l5.42,5.42L53.54,42.59a2,2,0,1,1,2.83,2.83L43.83,57.95A2,2,0,0,1,42.42,58.53Z" fill="#3ca2d8"/><path d="M44.74,97.08a9.8,9.8,0,0,1-5.67-1.8C28,87.45,1.91,64.37,0,19.23a5.94,5.94,0,0,1,1.67-4.4,6.7,6.7,0,0,1,5.64-2,60.45,60.45,0,0,0,7.28.45c8.41,0,19.74-1.93,26-11.11a5,5,0,0,1,8.35,0c6.22,9.18,17.54,11.11,26,11.11a60.42,60.42,0,0,0,7.28-.45,6.64,6.64,0,0,1,5.61,2,6,6,0,0,1,1.69,4.47c-1.93,45.15-28,68.21-39.14,76A9.6,9.6,0,0,1,44.74,97.08ZM6.48,16.82a2.65,2.65,0,0,0-1.92.78A2,2,0,0,0,4,19.06C5.83,62.42,30.75,84.52,41.38,92a5.85,5.85,0,0,0,6.61,0c10.64-7.48,35.59-29.55,37.44-72.92a2,2,0,0,0-.58-1.53,2.64,2.64,0,0,0-2.24-.76,64.46,64.46,0,0,1-7.77.48c-9.38,0-22.06-2.23-29.26-12.86a1,1,0,0,0-1.72,0C36.66,15.09,24,17.32,14.59,17.32a64.46,64.46,0,0,1-7.77-.48Z" fill="#3ca2d8"/><circle cx="12.23" cy="24.49" r="2.29" fill="#3ca2d8"/><circle cx="44.72" cy="15.35" r="2.29" fill="#3ca2d8"/><circle cx="44.72" cy="85.3" r="2.29" fill="#3ca2d8"/><circle cx="77.2" cy="24.49" r="2.29" fill="#3ca2d8"/></svg>