<svg xmlns="http://www.w3.org/2000/svg" viewBox="0 0 89.17 97"><title>thin-export</title><circle cx="56.76" cy="48.5" r="3.24" fill="#3ca2d8"/><circle cx="44.59" cy="48.5" r="3.24" fill="#3ca2d8"/><circle cx="32.41" cy="48.5" r="3.24" fill="#3ca2d8"/><path d="M44,97a48.19,48.19,0,0,1-15.82-2.66,49.58,49.58,0,0,1-20.91-14L3,82.81A2,2,0,0,1,0,81.1V53.43a2,2,0,0,1,3-1.71l24,13.83a2,2,0,0,1,0,3.43l-4.08,2.36A33.35,33.35,0,0,0,34,80.53c5.82,3,13.17,3.76,21.86,2.26a2,2,0,1,1,.67,3.9c-9.56,1.65-17.75.76-24.34-2.64A37.3,37.3,0,0,1,18.31,71.83,2,2,0,0,1,19,69l3-1.74L4,56.85V77.67l2.77-1.6a2,2,0,0,1,2.51.45A45.74,45.74,0,0,0,29.48,90.6,44.26,44.26,0,0,0,57.35,91,42.24,42.24,0,0,0,78.94,75.24a40.22,40.22,0,0,0,6.33-13.75,2,2,0,1,1,3.84,1,44.2,44.2,0,0,1-6.95,15.08A46.22,46.22,0,0,1,58.56,94.75,47.82,47.82,0,0,1,44,97Z" fill="#3ca2d8"/><path d="M87.19,45.55a2,2,0,0,1-1-.27l-24-13.83a2,2,0,0,1,0-3.43l4.08-2.36a33.35,33.35,0,0,0-11.13-9.2c-5.82-3-13.17-3.76-21.86-2.26a2,2,0,0,1-.67-3.9C42.23,8.65,50.42,9.54,57,12.95A37.32,37.32,0,0,1,70.86,25.17,2,2,0,0,1,70.21,28l-3,1.74,18,10.41V19.33l-2.77,1.6a2,2,0,0,1-2.51-.45A45.73,45.73,0,0,0,59.69,6.4,44.26,44.26,0,0,0,31.81,6,42.26,42.26,0,0,0,10.23,21.76,40.24,40.24,0,0,0,3.9,35.51a2,2,0,1,1-3.84-1A44.18,44.18,0,0,1,7,19.47,46.22,46.22,0,0,1,30.61,2.26,48.2,48.2,0,0,1,61,2.66a49.59,49.59,0,0,1,20.91,14l4.31-2.49a2,2,0,0,1,3,1.71V43.57a2,2,0,0,1-2,2Z" fill="#3ca2d8"/></svg>