<svg xmlns="http://www.w3.org/2000/svg" viewBox="0 0 120.9 96.91"><title>thin-optimisation</title><circle cx="15.37" cy="11.55" r="3.18" fill="#3ca2d8"/><circle cx="28.43" cy="11.55" r="3.18" fill="#3ca2d8"/><circle cx="41.49" cy="11.55" r="3.18" fill="#3ca2d8"/><rect x="4.06" y="18.67" width="96.23" height="4" fill="#3ca2d8"/><path d="M56.64,81.54a9.05,9.05,0,0,1,.26-2.13H7.38a3.36,3.36,0,0,1-3.38-3V7A3,3,0,0,1,7,4h90.2a3,3,0,0,1,3,3V31.8a8.93,8.93,0,0,1,.84,2,8.91,8.91,0,0,1,3.16-1.09V7a7,7,0,0,0-7-7H7A7,7,0,0,0,0,7V76.45c0,3.84,3.54,7,7.38,7H56.84A9.12,9.12,0,0,1,56.64,81.54Z" fill="#3ca2d8"/><path d="M92.34,96.91H84.44a4.32,4.32,0,0,1-4.32-4.32V91A2.9,2.9,0,0,0,75.44,89L74.3,90.18a4.32,4.32,0,0,1-6.1,0l-5.59-5.59a4.32,4.32,0,0,1,0-6.1l1.13-1.13a2.63,2.63,0,0,0,.42-2.89,2.68,2.68,0,0,0-2.36-1.79H60.2a4.32,4.32,0,0,1-4.32-4.31V60.45a4.31,4.31,0,0,1,4.31-4.32h1.6a2.68,2.68,0,0,0,2.36-1.79,2.63,2.63,0,0,0-.41-2.89l-1.14-1.14a4.32,4.32,0,0,1,0-6.1l5.59-5.59a4.32,4.32,0,0,1,6.1,0l1.14,1.14a2.9,2.9,0,0,0,4.68-1.94v-1.6a4.32,4.32,0,0,1,4.32-4.32h7.91a4.32,4.32,0,0,1,4.32,4.32v1.6a2.9,2.9,0,0,0,4.68,1.94l1.13-1.13a4.31,4.31,0,0,1,6.1,0l5.59,5.59a4.31,4.31,0,0,1,0,6.1L113,51.45a2.63,2.63,0,0,0-.42,2.89A2.68,2.68,0,0,0,115,56.13h1.6a4.32,4.32,0,0,1,4.32,4.31v7.91a4.32,4.32,0,0,1-4.32,4.32H115a2.68,2.68,0,0,0-2.36,1.79,2.63,2.63,0,0,0,.41,2.89l1.13,1.13a4.32,4.32,0,0,1,0,6.1l-5.59,5.59a4.31,4.31,0,0,1-6.1,0L101.34,89A2.9,2.9,0,0,0,96.66,91v1.6A4.32,4.32,0,0,1,92.34,96.91ZM77.13,84.39a7.07,7.07,0,0,1,2.73.55A6.66,6.66,0,0,1,84.12,91v1.6a.32.32,0,0,0,.32.32h7.91a.32.32,0,0,0,.32-.32V91a6.65,6.65,0,0,1,4.25-6,7.16,7.16,0,0,1,2.73-.55,6.33,6.33,0,0,1,4.52,1.83l1.13,1.13a.28.28,0,0,0,.45,0l5.59-5.59a.32.32,0,0,0,0-.45l-1.13-1.13A6.88,6.88,0,0,1,115,68.67h1.6a.31.31,0,0,0,.32-.31V60.45a.32.32,0,0,0-.32-.32H115a6.88,6.88,0,0,1-4.77-11.51l1.13-1.13a.31.31,0,0,0,0-.44l-5.59-5.6a.28.28,0,0,0-.45,0l-1.14,1.14a6.34,6.34,0,0,1-4.53,1.83,7.08,7.08,0,0,1-2.73-.55,6.65,6.65,0,0,1-4.25-6v-1.6a.32.32,0,0,0-.32-.32H84.44a.32.32,0,0,0-.32.32v1.6a6.65,6.65,0,0,1-4.25,6,7.18,7.18,0,0,1-2.73.55,6.34,6.34,0,0,1-4.52-1.83l-1.14-1.14a.28.28,0,0,0-.45,0L65.44,47a.32.32,0,0,0,0,.45l1.13,1.14A6.88,6.88,0,0,1,61.8,60.13H60.2a.31.31,0,0,0-.31.31v7.91a.32.32,0,0,0,.32.32h1.6a6.88,6.88,0,0,1,4.77,11.51l-1.13,1.13a.32.32,0,0,0,0,.45L71,87.36a.28.28,0,0,0,.45,0l1.14-1.13A6.34,6.34,0,0,1,77.13,84.39Z" fill="#3ca2d8"/><path d="M89.07,80.71a16.31,16.31,0,1,1,16.3-16.3A16.32,16.32,0,0,1,89.07,80.71Zm0-28.61a12.31,12.31,0,1,0,12.3,12.31A12.32,12.32,0,0,0,89.07,52.1Z" fill="#3ca2d8"/></svg>