<svg xmlns="http://www.w3.org/2000/svg" viewBox="0 0 30.63 30.63"><title>tools</title><path d="M12.2,13.6l.8-.8v0l1.71,1.71,1.58-1.58L15,11.57h0L9.69,6.31A4.62,4.62,0,0,0,4,.72L6.54,3.29A2.3,2.3,0,1,1,3.29,6.54L.72,4A4.62,4.62,0,0,0,6.31,9.69l5.77,5.77a1.18,1.18,0,0,0,.1-.46Z" fill="#fff" stroke="#fff" stroke-linecap="round" stroke-linejoin="round" stroke-width="1.1"/><path d="M28.6,21.45a5,5,0,0,0-5-1.25l-6.08-6.08L15.93,15.7l1.71,1.71h0l-.8.8-1.41,0a1.18,1.18,0,0,0-.46.1l3,3h0l2.25,2.25a5,5,0,1,0,8.4-2.14Z" fill="#fff" stroke="#fff" stroke-linecap="round" stroke-linejoin="round" stroke-width="1.1"/><circle cx="25.02" cy="25.02" r="2.58" transform="translate(-10.36 25.02) rotate(-45)" fill="#a7d0ef" stroke="#a7d0ef" stroke-linecap="round" stroke-linejoin="round" stroke-width="1.1"/><path d="M15.93,15.7l1.58-1.58,8.55-8.55h0l1-.5a2.82,2.82,0,0,0,1.3-1.27l1.18-2.34-.16-.16L29.11,1,28.94.85,26.61,2a2.82,2.82,0,0,0-1.27,1.3l-.5,1h0L16.29,12.9l-1.58,1.58Z" fill="#a7d0ef" stroke="#a7d0ef" stroke-linecap="round" stroke-linejoin="round" stroke-width="1.1"/><path d="M16.81,18.21l.8-.8h0L15.93,15.7l-1.22-1.22L13,12.77v0l-.8.8,0,1.41a1.21,1.21,0,0,1-1.08,1.18l-1.37.13a.75.75,0,0,0-.46.22L1.85,23.95a.75.75,0,0,0,0,1.07L5.4,28.56a.75.75,0,0,0,1.07,0l7.41-7.42a.75.75,0,0,0,.22-.46l.13-1.37a1.21,1.21,0,0,1,1.18-1.08Z" fill="#a7d0ef" stroke="#a7d0ef" stroke-linecap="round" stroke-linejoin="round" stroke-width="1.1"/><line x1="10.46" y1="18.48" x2="4.15" y2="24.8" fill="none" stroke="#fff" stroke-linecap="round" stroke-linejoin="round" stroke-width="1.1"/><line x1="12.06" y1="20.08" x2="5.74" y2="26.39" fill="none" stroke="#fff" stroke-linecap="round" stroke-linejoin="round" stroke-width="1.1"/></svg>