<svg xmlns="http://www.w3.org/2000/svg" viewBox="0 0 30.5 31.65"><title>backup</title><path d="M28.4,4.66H16.07A1.55,1.55,0,0,1,15,4.21L11.77,1A1.55,1.55,0,0,0,10.67.55H2.1A1.55,1.55,0,0,0,.55,2.1V22.73A1.55,1.55,0,0,0,2.1,24.27H28.4a1.55,1.55,0,0,0,1.55-1.55V6.21A1.55,1.55,0,0,0,28.4,4.66Z" fill="#fff" stroke="#a7d0ef" stroke-linecap="round" stroke-linejoin="round" stroke-width="1.1"/><line x1="14.96" y1="24.55" x2="14.96" y2="26.51" fill="none" stroke="#a7d0ef" stroke-linecap="round" stroke-linejoin="round" stroke-width="1.1"/><path d="M12.82,28.8" fill="none" stroke="#a7d0ef" stroke-linecap="round" stroke-miterlimit="10" stroke-width="1.1"/><line x1="17.25" y1="28.8" x2="24.35" y2="28.8" fill="none" stroke="#a7d0ef" stroke-linecap="round" stroke-miterlimit="10" stroke-width="1.1"/><line x1="5.53" y1="28.8" x2="12.62" y2="28.8" fill="none" stroke="#a7d0ef" stroke-linecap="round" stroke-miterlimit="10" stroke-width="1.1"/><circle cx="14.96" cy="28.8" r="2.29" fill="none" stroke="#a7d0ef" stroke-linecap="round" stroke-linejoin="round" stroke-width="1.1"/><path d="M28.58,8H1.91A1.36,1.36,0,0,0,.55,9.36V22.73A1.55,1.55,0,0,0,2.1,24.27H28.4a1.55,1.55,0,0,0,1.55-1.55V9.36A1.36,1.36,0,0,0,28.58,8Zm-8,13.1H9.16a2.91,2.91,0,0,1-.24-5.81v0a3.4,3.4,0,0,1,4.74-3.12A4,4,0,0,1,20.37,16h.22a2.53,2.53,0,0,1,0,5.06Z" fill="#9bd2fa" stroke="#a7d0ef" stroke-linecap="round" stroke-linejoin="round" stroke-width="1.1"/><path d="M20.6,16h-.22a4,4,0,0,0-6.72-3.91,3.4,3.4,0,0,0-4.74,3.12v0a2.91,2.91,0,0,0,.24,5.81H20.6a2.53,2.53,0,0,0,0-5.06Z" fill="#fff" stroke="#fff" stroke-linecap="round" stroke-linejoin="round" stroke-width="1.1"/><line x1="27.4" y1="19.2" x2="29.95" y2="19.2" fill="none" stroke="#fff" stroke-linecap="round" stroke-linejoin="round" stroke-width="1.1"/><line x1="25.46" y1="21.3" x2="29.66" y2="21.3" fill="none" stroke="#fff" stroke-linecap="round" stroke-linejoin="round" stroke-width="1.1"/></svg>