<svg xmlns="http://www.w3.org/2000/svg" viewBox="0 0 36.7 29.94"><title>cloud-security</title><path d="M32.11,14.18a13,13,0,0,1-7.73-3.87,13,13,0,0,1-7.73,3.87s-2.51,8.48,7.73,15.21C34.62,22.66,32.11,14.18,32.11,14.18Z" fill="#fff" stroke="#a7d0ef" stroke-linecap="round" stroke-linejoin="round" stroke-width="1.1"/><path d="M25.37,26c5.1-4.49,4.41-9.74,4.41-9.74a11.1,11.1,0,0,1-4.2-2.18" fill="none" stroke="#a7d0ef" stroke-linecap="round" stroke-linejoin="round" stroke-width="1.1"/><path d="M36.15,15.67a6.14,6.14,0,0,0-5.62-6.11s0,0,0-.05a7.17,7.17,0,0,0-10-6.59A8.53,8.53,0,0,0,6.36,11.15l-.47,0a5.34,5.34,0,1,0,0,10.68H17.52a11.93,11.93,0,0,1-.87-7.63,13,13,0,0,0,7.73-3.87,13,13,0,0,0,7.73,3.87,11.89,11.89,0,0,1-.82,7.52,5.29,5.29,0,0,0,3-1.61A6.24,6.24,0,0,0,36.15,15.67Z" fill="#9bd2fa" stroke="#a7d0ef" stroke-linecap="round" stroke-linejoin="round" stroke-width="1.1"/></svg>