<svg xmlns="http://www.w3.org/2000/svg" viewBox="0 0 39.47 25.94"><title>cloud-access</title><path d="M33.66.55H5.81A2.37,2.37,0,0,0,3.44,2.92V23.32H5.29V3.16a.57.57,0,0,1,.57-.57h27.6a.57.57,0,0,1,.57.57V23.32h2V2.92A2.37,2.37,0,0,0,33.66.55Z" fill="#a7d0ef" stroke="#a7d0ef" stroke-linecap="round" stroke-linejoin="round" stroke-width="1.1"/><path d="M33.45,2.59H5.85a.57.57,0,0,0-.57.57V23.32H34V3.16A.57.57,0,0,0,33.45,2.59Z" fill="#fff" stroke="#a7d0ef" stroke-linecap="round" stroke-linejoin="round" stroke-width="1.1"/><path d="M22.68,23.32l-.5.52h-5.5l-.5-.52H.55v.52A1.52,1.52,0,0,0,2,25.39H37.44a1.52,1.52,0,0,0,1.48-1.56v-.52Z" fill="#a5d2fa" stroke="#a7d0ef" stroke-linecap="round" stroke-linejoin="round" stroke-width="1.1"/><path d="M13.58,12.58h.23a4.66,4.66,0,0,1-.13-1.07,4.34,4.34,0,0,1,4.23-4.45,4.11,4.11,0,0,1,2.92,1.23,3.39,3.39,0,0,1,1.4-.3,3.64,3.64,0,0,1,3.55,3.73v0a3.2,3.2,0,0,1-.26,6.38h-12a2.78,2.78,0,0,1,0-5.56Z" fill="#a7d0ef" stroke="#a7d0ef" stroke-linecap="round" stroke-linejoin="round" stroke-width="1.1"/><line x1="14.21" y1="23.32" x2="25.1" y2="23.32" fill="none" stroke="#fff" stroke-linecap="round" stroke-linejoin="round" stroke-width="1.1"/><line x1="29.02" y1="2.59" x2="27.16" y2="4.46" fill="none" stroke="#a7d0ef" stroke-linecap="round" stroke-linejoin="round" stroke-width="1.1"/><line x1="9.78" y1="21.45" x2="7.92" y2="23.32" fill="none" stroke="#a7d0ef" stroke-linecap="round" stroke-linejoin="round" stroke-width="1.1"/><line x1="32.78" y1="2.59" x2="27.75" y2="7.62" fill="none" stroke="#a7d0ef" stroke-linecap="round" stroke-linejoin="round" stroke-width="1.1"/></svg>