<svg xmlns="http://www.w3.org/2000/svg" viewBox="0 0 37.93 31.14"><title>connection</title><path d="M21.2,17.06c.1,0,.2,0,.3,0a5,5,0,0,1,2,.4,5.92,5.92,0,0,1,4.1-1.65h.06a13.55,13.55,0,0,0,.11-1.65H21.37A25.19,25.19,0,0,1,21.2,17.06Z" fill="none" stroke="#a7d0ef" stroke-linecap="round" stroke-linejoin="round" stroke-width="1.1"/><path d="M6.91,14.14a23.54,23.54,0,0,1,.87-6.46A12.33,12.33,0,0,1,4.17,4.93,13.53,13.53,0,0,0,.55,14.14H6.91Z" fill="none" stroke="#a7d0ef" stroke-linecap="round" stroke-linejoin="round" stroke-width="1.1"/><path d="M7.78,20.6a23.54,23.54,0,0,1-.87-6.46H.55a13.53,13.53,0,0,0,3.62,9.21A12.33,12.33,0,0,1,7.78,20.6Z" fill="none" stroke="#a7d0ef" stroke-linecap="round" stroke-linejoin="round" stroke-width="1.1"/><path d="M20.5,7.69a23.55,23.55,0,0,1,.87,6.46h6.36a13.53,13.53,0,0,0-3.62-9.21A12.33,12.33,0,0,1,20.5,7.69Z" fill="none" stroke="#a7d0ef" stroke-linecap="round" stroke-linejoin="round" stroke-width="1.1"/><path d="M14.14,14.14H6.91a23.54,23.54,0,0,0,.87,6.46,13.9,13.9,0,0,1,6.36-1.53Z" fill="none" stroke="#a7d0ef" stroke-linecap="round" stroke-linejoin="round" stroke-width="1.1"/><path d="M15.5,14.14h5.87a23.55,23.55,0,0,0-.87-6.46,13.9,13.9,0,0,1-6.36,1.53v4.93Z" fill="none" stroke="#a7d0ef" stroke-linecap="round" stroke-linejoin="round" stroke-width="1.1"/><path d="M14.14,9.21A13.89,13.89,0,0,1,7.78,7.69a23.54,23.54,0,0,0-.87,6.46h7.23Z" fill="none" stroke="#a7d0ef" stroke-linecap="round" stroke-linejoin="round" stroke-width="1.1"/><path d="M14.14,14.14v4.93a14.31,14.31,0,0,1,3.11.35,5,5,0,0,1,3.94-2.36,25.19,25.19,0,0,0,.17-2.92H14.14Z" fill="none" stroke="#a7d0ef" stroke-linecap="round" stroke-linejoin="round" stroke-width="1.1"/><path d="M20.5,7.69a12.33,12.33,0,0,0,3.61-2.76,13.54,13.54,0,0,0-10-4.38C16.89.55,19.28,3.44,20.5,7.69Z" fill="none" stroke="#a7d0ef" stroke-linecap="round" stroke-linejoin="round" stroke-width="1.1"/><path d="M7.78,7.69C9,3.44,11.39.55,14.14.55a13.54,13.54,0,0,0-10,4.38A12.33,12.33,0,0,0,7.78,7.69Z" fill="none" stroke="#a7d0ef" stroke-linecap="round" stroke-linejoin="round" stroke-width="1.1"/><path d="M7.78,7.69a13.89,13.89,0,0,0,6.36,1.53V.55C11.39.55,9,3.44,7.78,7.69Z" fill="none" stroke="#a7d0ef" stroke-linecap="round" stroke-linejoin="round" stroke-width="1.1"/><path d="M20.5,7.69C19.28,3.44,16.89.55,14.14.55V9.21A13.9,13.9,0,0,0,20.5,7.69Z" fill="none" stroke="#a7d0ef" stroke-linecap="round" stroke-linejoin="round" stroke-width="1.1"/><path d="M7.78,20.6a12.33,12.33,0,0,0-3.61,2.76,13.55,13.55,0,0,0,8.66,4.31l-.06-.18C10.62,26.71,8.8,24.12,7.78,20.6Z" fill="none" stroke="#a7d0ef" stroke-linecap="round" stroke-linejoin="round" stroke-width="1.1"/><path d="M14.14,23a4.24,4.24,0,0,1,2.37-1s0,0,0,0a5,5,0,0,1,.75-2.6,14.31,14.31,0,0,0-3.11-.35Z" fill="none" stroke="#a7d0ef" stroke-linecap="round" stroke-linejoin="round" stroke-width="1.1"/><path d="M14.14,23v-4A13.9,13.9,0,0,0,7.78,20.6c1,3.53,2.83,6.11,5,6.89A4.13,4.13,0,0,1,14.14,23Z" fill="none" stroke="#a7d0ef" stroke-linecap="round" stroke-linejoin="round" stroke-width="1.1"/><path d="M12.78,27.48l.06.18c.43,0,.87.07,1.31.07A4,4,0,0,1,12.78,27.48Z" fill="#a5d2fa" stroke="#a7d0ef" stroke-linecap="round" stroke-linejoin="round" stroke-width="1.1"/><path d="M33.66,23.15l-.33,0a5.94,5.94,0,0,0-9.86-5.74,5,5,0,0,0-7,4.59s0,0,0,0a4.27,4.27,0,0,0,.36,8.53H33.66a3.72,3.72,0,0,0,0-7.43Z" fill="#a5d2fa" stroke="#a7d0ef" stroke-linecap="round" stroke-linejoin="round" stroke-width="1.1"/><path d="M31.09,21.68a4.39,4.39,0,0,0-.6-1.44,4,4,0,0,0-4.42-1.7" fill="none" stroke="#fff" stroke-linecap="round" stroke-linejoin="round" stroke-width="1.1"/></svg>