<svg xmlns="http://www.w3.org/2000/svg" viewBox="0 0 32.64 30.03"><title>data-sharing</title><line x1="13.45" y1="5.01" x2="19.2" y2="5.01" fill="none" stroke="#a7d0ef" stroke-linecap="round" stroke-linejoin="round" stroke-width="1.1"/><line x1="13.45" y1="25.02" x2="19.2" y2="25.02" fill="none" stroke="#a7d0ef" stroke-linecap="round" stroke-linejoin="round" stroke-width="1.1"/><line x1="5.6" y1="12.14" x2="5.6" y2="17.89" fill="none" stroke="#a7d0ef" stroke-linecap="round" stroke-linejoin="round" stroke-width="1.1"/><line x1="27.04" y1="12.14" x2="27.04" y2="17.89" fill="none" stroke="#a7d0ef" stroke-linecap="round" stroke-linejoin="round" stroke-width="1.1"/><rect x="0.55" y="20.57" width="10.14" height="7.5" rx="0.4" ry="0.4" fill="#fff" stroke="#a7d0ef" stroke-linecap="round" stroke-linejoin="round" stroke-width="1.1"/><line x1="2.75" y1="29.48" x2="8.5" y2="29.48" fill="none" stroke="#a7d0ef" stroke-linecap="round" stroke-linejoin="round" stroke-width="1.1"/><rect x="21.95" y="20.57" width="10.14" height="7.5" rx="0.4" ry="0.4" fill="#9bd2fa" stroke="#a7d0ef" stroke-linecap="round" stroke-linejoin="round" stroke-width="1.1"/><line x1="24.15" y1="29.48" x2="29.9" y2="29.48" fill="none" stroke="#a7d0ef" stroke-linecap="round" stroke-linejoin="round" stroke-width="1.1"/><rect x="21.95" y="0.55" width="10.14" height="7.5" rx="0.4" ry="0.4" fill="#fff" stroke="#a7d0ef" stroke-linecap="round" stroke-linejoin="round" stroke-width="1.1"/><line x1="24.15" y1="9.46" x2="29.9" y2="9.46" fill="none" stroke="#a7d0ef" stroke-linecap="round" stroke-linejoin="round" stroke-width="1.1"/><rect x="0.55" y="0.55" width="10.14" height="7.5" rx="0.4" ry="0.4" fill="#9bd2fa" stroke="#a7d0ef" stroke-linecap="round" stroke-linejoin="round" stroke-width="1.1"/><line x1="2.75" y1="9.46" x2="8.5" y2="9.46" fill="none" stroke="#a7d0ef" stroke-linecap="round" stroke-linejoin="round" stroke-width="1.1"/><path d="M21.13,14h-.18a3.29,3.29,0,0,0-5.47-3.18,2.77,2.77,0,0,0-3.86,2.54v0a2.37,2.37,0,0,0,.2,4.73h9.31a2.06,2.06,0,0,0,0-4.12Z" fill="#a5d2fa" stroke="#a7d0ef" stroke-linecap="round" stroke-linejoin="round" stroke-width="1.1"/></svg>