<svg xmlns="http://www.w3.org/2000/svg" viewBox="0 0 30.61 30.38"><title>information</title><path d="M17.34,8.24a2.8,2.8,0,1,0-.11,4A2.8,2.8,0,0,0,17.34,8.24ZM16.06,11a1.1,1.1,0,1,1,0-1.55A1.1,1.1,0,0,1,16.06,11Z" fill="#a5d2fa" stroke="#30567d" stroke-linecap="round" stroke-linejoin="round" stroke-width="1.1"/><circle cx="15.31" cy="10.16" r="1.1" transform="translate(-2.8 13.3) rotate(-43.4)" fill="none" stroke="#30567d" stroke-linecap="round" stroke-linejoin="round" stroke-width="1.1"/><path d="M22.81,10.53a7.76,7.76,0,0,0-7.64-7.89" fill="none" stroke="#30567d" stroke-linecap="round" stroke-linejoin="round" stroke-width="1.1"/><path d="M24.92,10.16v0A9.61,9.61,0,1,0,6.29,13.48h18A9.57,9.57,0,0,0,24.92,10.16Z" fill="none" stroke="#30567d" stroke-linecap="round" stroke-linejoin="round" stroke-width="1.1"/><path d="M1.87,13.48H6.29A9.5,9.5,0,0,1,6.64,6H2a1.5,1.5,0,0,0-1.5,1.5V14.8A1.32,1.32,0,0,1,1.87,13.48Z" fill="#30567d" stroke="#30567d" stroke-linecap="round" stroke-linejoin="round" stroke-width="1.1"/><path d="M27.38,10.14H24.92v0a9.57,9.57,0,0,1-.6,3.32h4.42a1.32,1.32,0,0,1,1.32,1.32v-2A2.68,2.68,0,0,0,27.38,10.14Z" fill="#30567d" stroke="#30567d" stroke-linecap="round" stroke-linejoin="round" stroke-width="1.1"/><path d="M28.75,13.48H1.87A1.32,1.32,0,0,0,.55,14.8V28.35a1.48,1.48,0,0,0,.1.5L.72,29a1.49,1.49,0,0,0,.22.32l.14.14a1.5,1.5,0,0,0,.32.22l.13.06a1.48,1.48,0,0,0,.5.1H28.59a1.48,1.48,0,0,0,.5-.1l.13-.06a1.49,1.49,0,0,0,.33-.22l.14-.14A1.5,1.5,0,0,0,29.9,29l.06-.13a1.49,1.49,0,0,0,.1-.5V14.8A1.32,1.32,0,0,0,28.75,13.48Z" fill="#a7d0ef" stroke="#a7d0ef" stroke-linecap="round" stroke-linejoin="round" stroke-width="1.1"/><line x1="0.55" y1="26.45" x2="7.13" y2="26.45" fill="none" stroke="#fff" stroke-linecap="round" stroke-linejoin="round" stroke-width="1.1"/><line x1="0.55" y1="24.16" x2="3.85" y2="24.16" fill="none" stroke="#fff" stroke-linecap="round" stroke-linejoin="round" stroke-width="1.1"/><line x1="30.06" y1="16.87" x2="26.73" y2="16.87" fill="none" stroke="#fff" stroke-linecap="round" stroke-linejoin="round" stroke-width="1.1"/></svg>