<svg xmlns="http://www.w3.org/2000/svg" viewBox="0 0 30.63 31.83"><title>migration</title><path d="M7.59,22.3H3V3.5H17.67V15.93a6.25,6.25,0,0,1,2-.34l.46,0V3.28A2.73,2.73,0,0,0,17.4.55H3.28A2.73,2.73,0,0,0,.55,3.28V25a2.73,2.73,0,0,0,2.73,2.73h.65A4.47,4.47,0,0,1,7.59,22.3Z" fill="#a5d2fa" stroke="#fff" stroke-linecap="round" stroke-linejoin="round" stroke-width="1.1"/><path d="M26.14,23.4l-.35,0a6.27,6.27,0,0,0-5.65-7.8l-.46,0a6.25,6.25,0,0,0-2,.34,6.32,6.32,0,0,0-2.34,1.41A5.29,5.29,0,0,0,8,22.2s0,0,0,0-.24,0-.36.06a4.52,4.52,0,0,0,.74,9h17.8a3.94,3.94,0,0,0,0-7.88Z" fill="none" stroke="#fff" stroke-linecap="round" stroke-linejoin="round" stroke-width="1.1"/><path d="M24.08,21.23a4.66,4.66,0,0,0-5.55-3.56" fill="none" stroke="#a7d0ef" stroke-linecap="round" stroke-linejoin="round" stroke-width="1.1"/><line x1="17.58" y1="8.44" x2="13.72" y2="12.29" fill="none" stroke="#a7d0ef" stroke-linecap="round" stroke-linejoin="round" stroke-width="1.1"/><line x1="6.4" y1="13.2" x2="3.04" y2="16.57" fill="none" stroke="#a7d0ef" stroke-linecap="round" stroke-linejoin="round" stroke-width="1.1"/><line x1="17.7" y1="5.03" x2="15.52" y2="7.21" fill="none" stroke="#a7d0ef" stroke-linecap="round" stroke-linejoin="round" stroke-width="1.1"/></svg>