<svg xmlns="http://www.w3.org/2000/svg" viewBox="0 0 20.12 31.46"><title>mobile</title><path d="M19.57,3.17A2.6,2.6,0,0,0,17,.57L3.19.55a2.6,2.6,0,0,0-2.6,2.6V4.4h19Z" fill="#fff" stroke="#fff" stroke-linecap="round" stroke-linejoin="round" stroke-width="1.1"/><path d="M.55,28.29a2.6,2.6,0,0,0,2.6,2.6l13.78,0a2.6,2.6,0,0,0,2.6-2.59V25.56H.55Z" fill="#fff" stroke="#fff" stroke-linecap="round" stroke-linejoin="round" stroke-width="1.1"/><line x1="7.94" y1="28.13" x2="12.18" y2="28.13" fill="none" stroke="#a7d0ef" stroke-linecap="round" stroke-linejoin="round" stroke-width="1.1"/><path d="M.58,4.4l0,21.14h19l0-21.15ZM15.21,19.26H5.48a2.48,2.48,0,0,1-.21-4.94v0a2.89,2.89,0,0,1,4-2.66A3.44,3.44,0,0,1,15,15h.19a2.15,2.15,0,0,1,0,4.31Z" fill="#a5d2fa" stroke="#fff" stroke-linecap="round" stroke-linejoin="round" stroke-width="1.1"/><path d="M15.21,15H15A3.44,3.44,0,0,0,9.3,11.64a2.89,2.89,0,0,0-4,2.66v0a2.48,2.48,0,0,0,.21,4.94h9.73a2.15,2.15,0,0,0,0-4.31Z" fill="none" stroke="#fff" stroke-linecap="round" stroke-linejoin="round" stroke-width="1.1"/><line x1="17.55" y1="4.41" x2="13.86" y2="8.09" fill="none" stroke="#fff" stroke-linecap="round" stroke-linejoin="round" stroke-width="1.1"/><line x1="14.02" y1="4.41" x2="12.25" y2="6.18" fill="none" stroke="#fff" stroke-linecap="round" stroke-linejoin="round" stroke-width="1.1"/><line x1="2.62" y1="25.56" x2="6.21" y2="21.97" fill="none" stroke="#fff" stroke-linecap="round" stroke-linejoin="round" stroke-width="1.1"/></svg>