<svg xmlns="http://www.w3.org/2000/svg" viewBox="0 0 34.22 28.84"><title>remote-access</title><path d="M.55,21.81A2.19,2.19,0,0,0,2.74,24H31.48a2.19,2.19,0,0,0,2.19-2.19V19.29H.55Z" fill="#fff" stroke="#fff" stroke-linecap="round" stroke-linejoin="round" stroke-width="1.1"/><path d="M31.48.55H2.74A2.19,2.19,0,0,0,.55,2.74V19.29H33.67V2.74A2.19,2.19,0,0,0,31.48.55Zm-8.78,15H11a2.72,2.72,0,0,1,0-5.44h.23a4.56,4.56,0,0,1-.13-1,4.25,4.25,0,0,1,4.14-4.35,4,4,0,0,1,2.85,1.2,3.32,3.32,0,0,1,1.37-.3A3.56,3.56,0,0,1,23,9.29v0a3.07,3.07,0,0,1,2.72,3.11A3.05,3.05,0,0,1,22.7,15.56Z" fill="#a5d2fa" stroke="#fff" stroke-linecap="round" stroke-linejoin="round" stroke-width="1.1"/><path d="M23,9.32v0a3.56,3.56,0,0,0-3.47-3.65,3.32,3.32,0,0,0-1.37.3,4,4,0,0,0-2.85-1.2,4.25,4.25,0,0,0-4.14,4.35,4.56,4.56,0,0,0,.13,1H11a2.72,2.72,0,0,0,0,5.44H22.7a3.05,3.05,0,0,0,3-3.13A3.07,3.07,0,0,0,23,9.32Z" fill="#fff" stroke="#fff" stroke-linecap="round" stroke-linejoin="round" stroke-width="1.1"/><line x1="7.83" y1="0.65" x2="5.95" y2="2.53" fill="none" stroke="#fff" stroke-linecap="round" stroke-linejoin="round" stroke-width="1.1"/><line x1="11.61" y1="0.65" x2="6.55" y2="5.71" fill="none" stroke="#fff" stroke-linecap="round" stroke-linejoin="round" stroke-width="1.1"/><line x1="30.23" y1="16.06" x2="26.99" y2="19.29" fill="none" stroke="#fff" stroke-linecap="round" stroke-linejoin="round" stroke-width="1.1"/><path d="M21.08,26.79V24H13.14v2.78a1.5,1.5,0,0,1-1.5,1.5H22.58A1.5,1.5,0,0,1,21.08,26.79Z" fill="#fff" stroke="#fff" stroke-linecap="round" stroke-linejoin="round" stroke-width="1.1"/></svg>