<svg xmlns="http://www.w3.org/2000/svg" viewBox="0 0 33.62 34.43"><title>search</title><path d="M27.93,8.78s0,0,0,0a6.55,6.55,0,0,0-9.13-6A7.79,7.79,0,0,0,5.86,10.24l-.43,0a4.88,4.88,0,1,0,0,9.75h8a6.92,6.92,0,1,1,7,0h7.08a5.61,5.61,0,0,0,.47-11.19Z" fill="#a5d2fa" stroke="#a7d0ef" stroke-linecap="round" stroke-linejoin="round" stroke-width="1.1"/><path d="M23.82,14a6.94,6.94,0,1,0-3.44,6A6.92,6.92,0,0,0,23.82,14Z" fill="#fff" stroke="#a7d0ef" stroke-linecap="round" stroke-linejoin="round" stroke-width="1.1"/><path d="M21.43,15.17a4.89,4.89,0,0,0-3.74-5.82" fill="none" stroke="#a7d0ef" stroke-linecap="round" stroke-linejoin="round" stroke-width="1.1"/><rect x="16.36" y="20.92" width="1.06" height="2.29" fill="none" stroke="#a7d0ef" stroke-linecap="round" stroke-linejoin="round" stroke-width="1.1"/><path d="M16.9,33.88A1.06,1.06,0,0,0,18,32.81v-9.6H15.83v9.6a1.06,1.06,0,0,0,1.06,1.06Z" fill="none" stroke="#a7d0ef" stroke-linecap="round" stroke-linejoin="round" stroke-width="1.1"/><path d="M12.32,15.36a4.67,4.67,0,0,0,2.56,3" fill="none" stroke="#a7d0ef" stroke-linecap="round" stroke-linejoin="round" stroke-width="1.1"/></svg>