<svg xmlns="http://www.w3.org/2000/svg" viewBox="0 0 34.95 27.06"><title>settings</title><path d="M15.45,18.34V15.73h1.69a7.85,7.85,0,0,1,1.36-3.28l-1.19-1.2,1.84-1.84,1.2,1.19a7.85,7.85,0,0,1,3.28-1.36V7.55h2.61V9.25a7.86,7.86,0,0,1,1.9.58,7.61,7.61,0,0,0,.14-1.39A7.88,7.88,0,0,0,15,2.73,6.61,6.61,0,0,0,5.74,8.81s0,0,0,.05a5.66,5.66,0,0,0,.48,11.3H17.68a7.86,7.86,0,0,1-.54-1.83Z" fill="#a7d0ef" stroke="#a7d0ef" stroke-linecap="round" stroke-linejoin="round" stroke-width="1.1"/><path d="M15,4.93A5,5,0,0,0,8,9.54s0,0,0,0" fill="none" stroke="#fff" stroke-linecap="round" stroke-linejoin="round" stroke-width="1.1"/><path d="M29.64,10.47a4.9,4.9,0,0,0-.49-.09l.35.22Z" fill="none" stroke="#30567d" stroke-linecap="round" stroke-linejoin="round" stroke-width="1.1"/><path d="M33.35,15.73h-.64a7.85,7.85,0,0,0-1.36-3.28L32,11.8l.55-.55L30.7,9.41l-1.06,1.06-.14.14-.35-.22a7.87,7.87,0,0,0-2.93-1.13V7.55H23.62V9.25a7.85,7.85,0,0,0-3.28,1.36l-1.2-1.19L17.3,11.25l1.19,1.2a7.85,7.85,0,0,0-1.36,3.28H15.45v2.61h1.69a8,8,0,0,0,1.36,3.28l-1.19,1.2,1.84,1.84,1.2-1.19a7.85,7.85,0,0,0,3.28,1.36v1.69h2.61V24.82a7.85,7.85,0,0,0,3.28-1.36l1.2,1.19,1.84-1.84-1.19-1.2a7.85,7.85,0,0,0,1.36-3.28H34.4V15.73Z" fill="#fff" stroke="#fff" stroke-linecap="round" stroke-linejoin="round" stroke-width="1.1"/><path d="M24.92,12.59A4.44,4.44,0,1,0,29.37,17,4.44,4.44,0,0,0,24.92,12.59Zm0,6.28a1.79,1.79,0,1,1,1.78-1.79A1.79,1.79,0,0,1,24.9,18.87Z" fill="#a5d2fa" stroke="#a7d0ef" stroke-linecap="round" stroke-linejoin="round" stroke-width="1.1"/><circle cx="24.9" cy="17.08" r="1.79" fill="none" stroke="#a7d0ef" stroke-linecap="round" stroke-linejoin="round" stroke-width="1.1"/></svg>