<svg xmlns="http://www.w3.org/2000/svg" viewBox="0 0 150.6 102.5"><title>thin-local-network</title><circle cx="75.3" cy="13.75" r="3.24" fill="#3ca2d8"/><circle cx="75.3" cy="80.62" r="3.24" fill="#3ca2d8"/><circle cx="20.19" cy="80.62" r="3.24" fill="#3ca2d8"/><circle cx="129.63" cy="80.62" r="3.24" fill="#3ca2d8"/><path d="M148.6,66.87h-17V52.55a2,2,0,0,0-2-2H77.3V35.64h7.13a2,2,0,0,0,0-4H77.3V27.5h17a2,2,0,0,0,2-2V2a2,2,0,0,0-2-2H56.33a2,2,0,0,0-2,2V25.5a2,2,0,0,0,2,2h17v4.13H66.17a2,2,0,1,0,0,4H73.3V50.55H21a2,2,0,0,0-2,1.91c-.35,7.78-.4,12-.29,14.4H2a2,2,0,0,0-2,2v23.5a2,2,0,0,0,2,2H19V98.5H11.84a2,2,0,1,0,0,4H30.09a2,2,0,0,0,0-4H23V94.37h17a2,2,0,0,0,2-2V68.87a2,2,0,0,0-2-2H22.67c-.09-2.39,0-7.41.21-12.31H73.3V66.87h-17a2,2,0,0,0-2,2v23.5a2,2,0,0,0,2,2h17V98.5H66.17a2,2,0,0,0,0,4H84.42a2,2,0,0,0,0-4H77.3V94.37h17a2,2,0,0,0,2-2V68.87a2,2,0,0,0-2-2h-17V54.55h50.33V66.87h-17a2,2,0,0,0-2,2v23.5a2,2,0,0,0,2,2h17V98.5h-7.12a2,2,0,0,0,0,4h18.25a2,2,0,0,0,0-4h-7.12V94.37h17a2,2,0,0,0,2-2V68.87A2,2,0,0,0,148.6,66.87ZM58.33,4H92.26V23.5H58.33ZM37.93,90.37H4V70.87H37.93Zm54.33,0H58.33V70.87H92.26Zm54.33,0H112.67V70.87H146.6Z" fill="#3ca2d8"/></svg>