<svg xmlns="http://www.w3.org/2000/svg" viewBox="0 0 97.08 97.08"><title>thin-speed</title><path d="M64,32.84a2,2,0,0,0-2.83-.06l-8.45,8.1a8.76,8.76,0,1,0,3,2.68l8.23-7.88A2,2,0,0,0,64,32.84ZM48.54,53.26a4.72,4.72,0,1,1,4.72-4.72A4.72,4.72,0,0,1,48.54,53.26Z" fill="#3ca2d8"/><path d="M17.91,46.51h-7c0,.67-.06,1.35-.06,2a37.45,37.45,0,0,0,3.11,15A2,2,0,1,0,17.6,62a33.39,33.39,0,0,1-2.72-11.43h3a2,2,0,0,0,2-2A2,2,0,0,0,17.91,46.51Z" fill="#3ca2d8"/><path d="M28.34,25.56l-2.2-2.2h0l-2.83-2.83A37.72,37.72,0,0,0,11.43,41.82H15.5a33.59,33.59,0,0,1,7.84-15.61l2.18,2.18a2,2,0,1,0,2.83-2.83Z" fill="#3ca2d8"/><path d="M27,17.6l2.88,2.88A33.5,33.5,0,0,1,46.54,14.9v3a2,2,0,0,0,4,0v-7c-.66,0-1.33-.05-2-.05A37.48,37.48,0,0,0,27,17.6Z" fill="#3ca2d8"/><path d="M55.23,11.43v4.06a33.59,33.59,0,0,1,15.66,7.87l-2.11,2.11a2,2,0,1,0,2.83,2.83l2.13-2.12h0l2.83-2.83A37.71,37.71,0,0,0,55.23,11.43Z" fill="#3ca2d8"/><path d="M86.26,48.54h0A37.48,37.48,0,0,0,79.5,27l-2.88,2.88a33.5,33.5,0,0,1,5.56,16.62h-3a2,2,0,0,0,0,4h7c0-.66.05-1.32.05-2Z" fill="#3ca2d8"/><path d="M81.59,55.23a33.36,33.36,0,0,1-2.29,7.15A2,2,0,0,0,82.94,64a37.38,37.38,0,0,0,2.72-8.8Z" fill="#3ca2d8"/><path d="M48.54,97.08A48.54,48.54,0,1,1,85.77,79.69a2,2,0,0,1-3.07-2.57,44.52,44.52,0,1,0-7.62,7.19,2,2,0,0,1,2.39,3.21A48.14,48.14,0,0,1,48.54,97.08Z" fill="#3ca2d8"/><path d="M62.81,68.9a2,2,0,0,0-1.6.79c-2.14,2.83-7.11,4.66-12.68,4.66S38,72.53,35.86,69.7a2,2,0,0,0-1.6-.79H8.95a44.39,44.39,0,0,0,2.33,4h22c3.13,3.44,8.71,5.46,15.21,5.46s12.08-2,15.21-5.46H85.82a44.37,44.37,0,0,0,2.33-4Z" fill="#3ca2d8"/></svg>