<svg xmlns="http://www.w3.org/2000/svg" viewBox="0 0 97.08 97.08"><title>thin-settings</title><path d="M54.57,97.08H42.51A5.54,5.54,0,0,1,37,91.55V89.1a5.13,5.13,0,0,0-3.38-4.57,5.84,5.84,0,0,0-2.23-.45A4.65,4.65,0,0,0,28,85.4l-1.73,1.73a5.53,5.53,0,0,1-7.83,0L10,78.6a5.53,5.53,0,0,1,0-7.83L11.68,69a5.05,5.05,0,0,0,.86-5.56A5.13,5.13,0,0,0,8,60.1H5.53A5.54,5.54,0,0,1,0,54.57V42.51A5.53,5.53,0,0,1,5.53,37H8a5.13,5.13,0,0,0,4.57-3.38A5.05,5.05,0,0,0,11.69,28L10,26.31a5.54,5.54,0,0,1,0-7.83L18.48,10a5.53,5.53,0,0,1,7.82,0L28,11.68A4.65,4.65,0,0,0,31.37,13a5.85,5.85,0,0,0,2.23-.45A5.13,5.13,0,0,0,37,8V5.53A5.54,5.54,0,0,1,42.51,0H54.57a5.54,5.54,0,0,1,5.53,5.53V8a5.13,5.13,0,0,0,3.38,4.57,5.85,5.85,0,0,0,2.23.45A4.66,4.66,0,0,0,69,11.68L70.77,10a5.53,5.53,0,0,1,7.83,0l8.53,8.53a5.53,5.53,0,0,1,0,7.82L85.39,28a5.05,5.05,0,0,0-.86,5.56A5.13,5.13,0,0,0,89.11,37h2.44a5.54,5.54,0,0,1,5.54,5.53V54.57a5.53,5.53,0,0,1-5.53,5.53H89.11a5.14,5.14,0,0,0-4.57,3.38A5.06,5.06,0,0,0,85.39,69l1.73,1.73a5.54,5.54,0,0,1,0,7.82L78.6,87.13a5.53,5.53,0,0,1-7.82,0L69,85.4a4.65,4.65,0,0,0-3.33-1.31,5.86,5.86,0,0,0-2.23.45,5.13,5.13,0,0,0-3.38,4.57v2.44A5.54,5.54,0,0,1,54.57,97.08Zm-23.2-17a9.9,9.9,0,0,1,3.77.76A9.11,9.11,0,0,1,41,89.1v2.44a1.53,1.53,0,0,0,1.53,1.53H54.57a1.53,1.53,0,0,0,1.53-1.53V89.11a9.1,9.1,0,0,1,5.84-8.26,9.88,9.88,0,0,1,3.76-.76,8.62,8.62,0,0,1,6.16,2.48L73.6,84.3a1.57,1.57,0,0,0,2.16,0l8.53-8.53a1.54,1.54,0,0,0,0-2.17l-1.73-1.73a9.45,9.45,0,0,1,6.54-15.77h2.44a1.53,1.53,0,0,0,1.53-1.53V42.51A1.54,1.54,0,0,0,91.54,41H89.11a9.11,9.11,0,0,1-8.26-5.84,9,9,0,0,1,1.72-9.92l1.73-1.73a1.53,1.53,0,0,0,0-2.16l-8.53-8.53a1.57,1.57,0,0,0-2.17,0l-1.73,1.73A8.63,8.63,0,0,1,65.71,17a9.89,9.89,0,0,1-3.76-.76A9.11,9.11,0,0,1,56.11,8V5.53A1.53,1.53,0,0,0,54.57,4H42.51A1.53,1.53,0,0,0,41,5.53V8a9.11,9.11,0,0,1-5.84,8.26,9.89,9.89,0,0,1-3.76.76,8.62,8.62,0,0,1-6.16-2.48l-1.73-1.73a1.57,1.57,0,0,0-2.17,0l-8.53,8.53a1.54,1.54,0,0,0,0,2.17l1.73,1.73a9,9,0,0,1,1.72,9.92A9.1,9.1,0,0,1,8,41H5.53A1.53,1.53,0,0,0,4,42.51V54.57A1.54,1.54,0,0,0,5.53,56.1H8a9.11,9.11,0,0,1,8.26,5.84,9,9,0,0,1-1.72,9.92L12.78,73.6a1.53,1.53,0,0,0,0,2.17l8.53,8.53a1.57,1.57,0,0,0,2.17,0l1.73-1.73A8.62,8.62,0,0,1,31.37,80.09Z" fill="#3ca2d8"/><path d="M49.57,72.46a23.92,23.92,0,1,1,12-44.61,2,2,0,1,1-2,3.46,19.91,19.91,0,1,0,8.35,9.48,2,2,0,1,1,3.68-1.56,23.93,23.93,0,0,1-22,33.23Z" fill="#3ca2d8"/><path d="M49.57,58.53a10,10,0,1,1,10-10A10,10,0,0,1,49.57,58.53Zm0-16a6,6,0,1,0,6,6A6,6,0,0,0,49.57,42.55Z" fill="#3ca2d8"/></svg>