<svg xmlns="http://www.w3.org/2000/svg" viewBox="0 0 119.22 117.69"><title>thin-earnings</title><path d="M59.61,33.81a2,2,0,0,1-2-2V2a2,2,0,1,1,4,0V31.81A2,2,0,0,1,59.61,33.81Z" fill="#3ca2d8"/><path d="M59.61,117.69a2,2,0,0,1-2-2V85.88a2,2,0,1,1,4,0v29.81A2,2,0,0,1,59.61,117.69Z" fill="#3ca2d8"/><path d="M34.35,65.85H30.21a30.33,30.33,0,0,0,22.41,22.4V84.12A26.32,26.32,0,0,1,34.35,65.85Z" fill="#3ca2d8"/><path d="M30.21,51.85h4.14A26.33,26.33,0,0,1,52.61,33.57V29.44A30.33,30.33,0,0,0,30.21,51.85Z" fill="#3ca2d8"/><path d="M15.63,65.85H11.58a48.65,48.65,0,0,0,41,41v-4A44.64,44.64,0,0,1,15.63,65.85Z" fill="#3ca2d8"/><path d="M11.58,51.85h4.05a44.64,44.64,0,0,1,37-37v-4A48.65,48.65,0,0,0,11.58,51.85Z" fill="#3ca2d8"/><path d="M103.59,51.85h4.05a48.64,48.64,0,0,0-41-41v4A44.64,44.64,0,0,1,103.59,51.85Z" fill="#3ca2d8"/><path d="M103.59,65.85a44.64,44.64,0,0,1-37,37v4a48.65,48.65,0,0,0,41-41Z" fill="#3ca2d8"/><path d="M84.88,51.85H89a30.33,30.33,0,0,0-22.41-22.4v4.13A26.33,26.33,0,0,1,84.88,51.85Z" fill="#3ca2d8"/><path d="M84.88,65.85A26.33,26.33,0,0,1,66.61,84.12v4.13A30.33,30.33,0,0,0,89,65.85Z" fill="#3ca2d8"/><path d="M32.13,60.85H2a2,2,0,0,1,0-4H32.13a2,2,0,0,1,0,4Z" fill="#3ca2d8"/><path d="M117.22,60.85H87.09a2,2,0,0,1,0-4h30.13a2,2,0,0,1,0,4Z" fill="#3ca2d8"/><path d="M71.34,65.16c0-5.73-5.1-7.45-9.71-8.61v-9c4.21.65,4.9,3.38,4.9,5.1a2,2,0,1,0,4,0c0-4.07-2.39-8.38-8.9-9.12V40.29a2,2,0,1,0-4,0v3.25C50.21,44.26,49,49,49,51.88c0,5,4.4,6.68,8.6,7.79V70c-4.61-1-5.75-4.63-5.75-6a2,2,0,1,0-4,0c0,3.56,2.71,9,9.75,10.1v3.37a2,2,0,1,0,4,0v-3.2C68.76,73.72,71.34,69.13,71.34,65.16ZM53,51.88c0-1.18,0-3.76,4.6-4.33v8C54.52,54.62,53,53.72,53,51.88Zm8.6,18.32V60.69c3.87,1.06,5.71,2.09,5.71,4.47C67.34,66.92,66.56,69.78,61.63,70.2Z" fill="#3ca2d8"/></svg>