<svg xmlns="http://www.w3.org/2000/svg" viewBox="0 0 97.09 96"><title>thin-web-tools</title><path d="M83.84,96a8,8,0,0,1-5.72-2.37L33.93,49.44a25.45,25.45,0,0,1-32-33.73,2,2,0,0,1,3.26-.65L19.1,29,29,19.09,15.08,5.19a2,2,0,0,1,.65-3.26A25.43,25.43,0,0,1,50,32.26L94.72,77a8.1,8.1,0,0,1,0,11.44l-5.17,5.17A8,8,0,0,1,83.84,96ZM34.42,45.11a2,2,0,0,1,1.41.59L80.94,90.81a4.1,4.1,0,0,0,5.79,0l5.17-5.17a4.1,4.1,0,0,0,0-5.78L46.28,34.24a2,2,0,0,1-.48-2A21.44,21.44,0,0,0,20.2,4.65l13,13a2,2,0,0,1,0,2.83L20.52,33.21a2,2,0,0,1-2.83,0l-13-13a21.46,21.46,0,0,0,29,25.08A2,2,0,0,1,34.42,45.11Z" fill="#3ca2d8"/><path d="M95.73.83a2,2,0,0,0-2-.49l-21.78,7-.06,0a1.91,1.91,0,0,0-.34.16l-.08,0a2,2,0,0,0-.32.26L57.64,21.31a32.27,32.27,0,0,1,.23,5.43L72.53,12.08,84.47,24,68,40.45l2.83,2.83L88.72,25.44a1.94,1.94,0,0,0,.26-.33l0-.06a1.86,1.86,0,0,0,.17-.36l0-.05,7-21.78A2,2,0,0,0,95.73.83ZM86.4,20.29,76.26,10.15l15-4.81Z" fill="#3ca2d8"/><path d="M17.57,90.93,5.62,79,26.76,57.86c-.44,0-.87,0-1.31,0a32.88,32.88,0,0,1-4.12-.27l-20,20a2,2,0,0,0,0,2.83L16.15,95.17a2,2,0,0,0,2.83,0L44.37,69.79,41.54,67Z" fill="#3ca2d8"/><rect x="20.82" y="65.29" width="4" height="16.89" transform="translate(-45.45 37.72) rotate(-44.99)" fill="#3ca2d8"/><polygon points="31.61 82.54 31.62 82.53 31.63 82.52 31.61 82.54" fill="#3ca2d8"/><polygon points="14.03 64.92 14.02 64.93 14.02 64.94 14.03 64.92" fill="#3ca2d8"/></svg>