<svg xmlns="http://www.w3.org/2000/svg" viewBox="0 0 151.05 97"><title>thin-network</title><path d="M7.56,56.06a7.56,7.56,0,1,1,7.56-7.56A7.57,7.57,0,0,1,7.56,56.06Zm0-11.12a3.56,3.56,0,1,0,3.56,3.56A3.56,3.56,0,0,0,7.56,44.94Z" fill="#3ca2d8"/><path d="M15.55,77.19a7.56,7.56,0,1,1,7.56-7.56A7.57,7.57,0,0,1,15.55,77.19Zm0-11.12a3.56,3.56,0,1,0,3.56,3.56A3.56,3.56,0,0,0,15.55,66.07Z" fill="#3ca2d8"/><path d="M15.41,34.86A7.56,7.56,0,1,1,23,27.3,7.57,7.57,0,0,1,15.41,34.86Zm0-11.12A3.56,3.56,0,1,0,19,27.3,3.56,3.56,0,0,0,15.41,23.74Z" fill="#3ca2d8"/><path d="M118.54,70.85a2,2,0,0,0,.24-.46,48.32,48.32,0,0,0,0-43.77,1.93,1.93,0,0,0-.23-.46,48.46,48.46,0,0,0-86.06,0,2,2,0,0,0-.21.4,48.32,48.32,0,0,0,0,43.84,2,2,0,0,0,.21.4A48.54,48.54,0,0,0,75.51,97h0A48.54,48.54,0,0,0,118.54,70.85ZM55.85,67.7a65.87,65.87,0,0,1-2.69-17.2H73.52V92C67.26,88.94,61.1,81.82,57.21,71.7h9.31v-4ZM31.07,50.5H49.16a71,71,0,0,0,2.49,17.2H35.38A44.2,44.2,0,0,1,31.07,50.5Zm4.31-21.2H51.65a71,71,0,0,0-2.49,17.2H31.07A44.2,44.2,0,0,1,35.38,29.3Zm21.84-4C61.1,15.18,67.26,8.06,73.52,5V46.5H53.16a65.8,65.8,0,0,1,2.69-17.2H66.52v-4ZM77.51,5C83.77,8.06,89.94,15.18,93.82,25.3H77.51Zm0,87.07V71.7H93.82C89.93,81.82,83.77,88.94,77.51,92Zm0-24.33V29.3H95.19a65.88,65.88,0,0,1,2.69,17.2H84.51v4H97.88a65.88,65.88,0,0,1-2.69,17.2ZM120,46.5H101.88a71,71,0,0,0-2.49-17.2h16.27A44.2,44.2,0,0,1,120,46.5Zm-18.09,4H120a44.2,44.2,0,0,1-4.31,17.2H99.39A71,71,0,0,0,101.88,50.5Zm11.6-25.2H98.14C95,16.36,90.15,9.43,84.76,5A44.63,44.63,0,0,1,113.48,25.3ZM66.27,5C60.88,9.43,56.05,16.36,52.9,25.3H37.56A44.65,44.65,0,0,1,66.27,5ZM37.56,71.7H52.9c3.15,8.94,8,15.87,13.37,20.33A44.63,44.63,0,0,1,37.56,71.7ZM84.76,92C90.15,87.57,95,80.64,98.14,71.7h15.34A44.64,44.64,0,0,1,84.76,92Z" fill="#3ca2d8"/><path d="M32.92,71.63c-.15-.27-.29-.53-.43-.8a2,2,0,0,1-.21-.4c-.46-.91-.89-1.85-1.3-2.79H22.83a7.34,7.34,0,0,1,0,4Z" fill="#3ca2d8"/><path d="M27.08,50.5c0-.66-.06-1.33-.06-2s0-1.33.06-2H14.84a7.34,7.34,0,0,1,0,4Z" fill="#3ca2d8"/><path d="M31,29.3c.4-.92.82-1.83,1.27-2.72a2,2,0,0,1,.21-.4L33,25.3H22.71a7.34,7.34,0,0,1,0,4Z" fill="#3ca2d8"/><path d="M135.94,48.5a7.56,7.56,0,1,1,7.56,7.56A7.57,7.57,0,0,1,135.94,48.5Zm4,0a3.56,3.56,0,1,0,3.56-3.56A3.56,3.56,0,0,0,139.93,48.5Z" fill="#3ca2d8"/><path d="M127.94,69.63a7.56,7.56,0,1,1,7.56,7.56A7.57,7.57,0,0,1,127.94,69.63Zm4,0a3.56,3.56,0,1,0,3.56-3.56A3.56,3.56,0,0,0,131.94,69.63Z" fill="#3ca2d8"/><path d="M128.08,27.3a7.56,7.56,0,1,1,7.56,7.56A7.57,7.57,0,0,1,128.08,27.3Zm4,0a3.56,3.56,0,1,0,3.56-3.56A3.56,3.56,0,0,0,132.08,27.3Z" fill="#3ca2d8"/><path d="M118.13,71.63c.15-.27.29-.53.43-.8a2,2,0,0,0,.21-.4c.46-.91.89-1.85,1.3-2.79h8.14a7.34,7.34,0,0,0,0,4Z" fill="#3ca2d8"/><path d="M124,50.5c0-.66.06-1.33.06-2s0-1.33-.06-2h12.24a7.34,7.34,0,0,0,0,4Z" fill="#3ca2d8"/><path d="M120,29.3c-.4-.92-.82-1.83-1.27-2.72a2,2,0,0,0-.21-.4c-.15-.3-.32-.59-.48-.88h10.25a7.34,7.34,0,0,0,0,4Z" fill="#3ca2d8"/></svg>