<svg xmlns="http://www.w3.org/2000/svg" viewBox="0 0 99.13 101"><title>thin-folder-network</title><circle cx="85.66" cy="33.96" r="3.24" fill="#3ca2d8"/><circle cx="73.49" cy="33.96" r="3.24" fill="#3ca2d8"/><circle cx="61.31" cy="33.96" r="3.24" fill="#3ca2d8"/><path d="M92.4,20H17.64a6.75,6.75,0,0,0-6.74,6.74V69.7a3.45,3.45,0,1,1-6.9,0V6.07A2.08,2.08,0,0,1,6.08,4H33.62a3.36,3.36,0,0,1,3.23,2.46l1.09,4c.91,3.31,3.6,5.13,7.58,5.13H84.88a2,2,0,0,0,0-4H45.52c-2.77,0-3.45-1.17-3.73-2.19l-1.09-4A7.37,7.37,0,0,0,33.62,0H6.08A6.08,6.08,0,0,0,0,6.07V69.7a7.46,7.46,0,0,0,7.45,7.45H92.4a6.75,6.75,0,0,0,6.74-6.74V26.78A6.75,6.75,0,0,0,92.4,20Zm2.74,50.37a2.74,2.74,0,0,1-2.74,2.74H14a7.39,7.39,0,0,0,.85-3.45V26.78A2.74,2.74,0,0,1,17.64,24H92.4a2.74,2.74,0,0,1,2.74,2.74Z" fill="#3ca2d8"/><path d="M52.29,101a8.79,8.79,0,1,1,8.79-8.79A8.8,8.8,0,0,1,52.29,101Zm0-13.58a4.79,4.79,0,1,0,4.79,4.79A4.8,4.8,0,0,0,52.29,87.42Z" fill="#3ca2d8"/><path d="M43.5,92.21a8.77,8.77,0,0,1,.24-2H2a2,2,0,0,0,0,4H43.74A8.77,8.77,0,0,1,43.5,92.21Z" fill="#3ca2d8"/><path d="M97.13,90.21H60.85a8.51,8.51,0,0,1,0,4H97.13a2,2,0,0,0,0-4Z" fill="#3ca2d8"/><path d="M52.29,83.42a8.77,8.77,0,0,1,2,.24V77.15h-4v6.51A8.77,8.77,0,0,1,52.29,83.42Z" fill="#3ca2d8"/></svg>