<svg xmlns="http://www.w3.org/2000/svg" viewBox="0 0 118.98 96.86"><title>thin-file-access</title><path d="M91.57,21.2l-.76,0a31,31,0,0,0-1.37-3.5,31,31,0,0,0-57.22,2.94,30.71,30.71,0,0,0-1.66,8A28.37,28.37,0,0,0,24,28a24,24,0,1,0,0,48,2,2,0,0,0,0-4,20,20,0,1,1,0-40,23.17,23.17,0,0,1,13.27,4l.9.54a2,2,0,0,0,2-3.45l-.86-.51A37.2,37.2,0,0,0,34.51,30,26.85,26.85,0,0,1,61.44,4,27.11,27.11,0,0,1,85.83,19.43c.34.71.64,1.45.91,2.19a27,27,0,0,0-7.45,2.48,2,2,0,1,0,1.79,3.57A23.15,23.15,0,0,1,91.57,25.2a23.4,23.4,0,1,1,0,46.81,2,2,0,1,0,0,4,27.4,27.4,0,1,0,0-54.81Z" fill="#3ca2d8"/><path d="M76.67,39.89h-24a2,2,0,0,0-1.41.59L37.13,54.6a2,2,0,0,0-.25.3l0,.08a2.05,2.05,0,0,0-.14.26s0,.08,0,.12a2,2,0,0,0-.08.25,2,2,0,0,0,0,.4V94.86a2,2,0,0,0,2,2H76.67a2,2,0,0,0,2-2v-53A2,2,0,0,0,76.67,39.89Zm-26,6.83V54h-7.3Zm24,46.15H40.54V58H52.67a2,2,0,0,0,2-2V43.89h20Z" fill="#3ca2d8"/><path d="M68.67,88.3H46.6a2,2,0,0,1,0-4H68.67a2,2,0,0,1,0,4Z" fill="#3ca2d8"/></svg>