<svg xmlns="http://www.w3.org/2000/svg" viewBox="0 0 115.47 106.36"><title>thin-cloud-computing</title><path d="M88.84,20.56l-.69,0a30.08,30.08,0,0,0-56.91-.5,29.94,29.94,0,0,0-1.61,7.73,27.57,27.57,0,0,0-6.29-.69A23.34,23.34,0,0,0,11.78,70.74v-4.8A19.32,19.32,0,0,1,23.35,31.13,22.4,22.4,0,0,1,36.18,35l.87.52a2,2,0,1,0,2-3.45l-.84-.5a36.28,36.28,0,0,0-4.66-2.47A26.08,26.08,0,0,1,83.21,18.93c.32.67.6,1.35.86,2a26.29,26.29,0,0,0-7.17,2.39,2,2,0,1,0,1.8,3.57,22.37,22.37,0,0,1,10.14-2.39,22.62,22.62,0,0,1,18.73,35.32V66.1A26.62,26.62,0,0,0,88.84,20.56Z" fill="#3ca2d8"/><path d="M100.57,87.64a2,2,0,0,1-2-2V48.95H20.78V85.64a2,2,0,0,1-4,0V46.95a2,2,0,0,1,2-2h81.79a2,2,0,0,1,2,2V85.64A2,2,0,0,1,100.57,87.64Z" fill="#3ca2d8"/><path d="M103.75,106.36H15.6C10,106.36,6,98.9,6,93.88a2,2,0,0,1,2-2H44.32a2,2,0,0,1,1.56.75l1.57,2H71.9l1.57-2A2,2,0,0,1,75,91.88h36.31a2,2,0,0,1,2,2C113.34,98.9,109.31,106.36,103.75,106.36ZM10.28,95.88c.77,3.13,3.11,6.48,5.32,6.48h88.15c2.21,0,4.55-3.34,5.32-6.48H76l-1.57,2a2,2,0,0,1-1.56.75H46.49a2,2,0,0,1-1.56-.75l-1.57-2Z" fill="#3ca2d8"/></svg>