<svg xmlns="http://www.w3.org/2000/svg" viewBox="0 0 85.59 108.38"><title>thin-ssl</title><path d="M46.45,97H2a2,2,0,0,1-2-2V23.42A2,2,0,0,1,.59,22L22,.59A2,2,0,0,1,23.42,0H68.94a2,2,0,0,1,2,2V57.3a2,2,0,1,1-4,0V4H24.25L4,24.25V93H46.45a2,2,0,0,1,0,4Z" fill="#3ca2d8"/><path d="M19.06,55.15a15.06,15.06,0,0,1-2.86-1V51.09a12,12,0,0,0,5.57,1.68,3.39,3.39,0,0,0,2-.53,1.71,1.71,0,0,0,.76-1.49,1.65,1.65,0,0,0-.42-1.14,3.33,3.33,0,0,0-1-.77q-.63-.3-1.78-.73A20.49,20.49,0,0,1,18.72,47,4.9,4.9,0,0,1,17,45.51a4.21,4.21,0,0,1-.7-2.51,4.26,4.26,0,0,1,1.56-3.52,6.61,6.61,0,0,1,4.27-1.26,11.34,11.34,0,0,1,2.5.28,9.52,9.52,0,0,1,2.26.8v3A9.65,9.65,0,0,0,22.25,41a3.66,3.66,0,0,0-2,.44,1.41,1.41,0,0,0-.71,1.26A1.45,1.45,0,0,0,20.32,44a11.89,11.89,0,0,0,2.27,1,22.29,22.29,0,0,1,2.64,1.15A5.29,5.29,0,0,1,27,47.72a4.75,4.75,0,0,1,.8,2.7,4.62,4.62,0,0,1-1.61,3.73,6.45,6.45,0,0,1-4.3,1.36A12.4,12.4,0,0,1,19.06,55.15Z" fill="#3ca2d8"/><path d="M34.42,55.15a15,15,0,0,1-2.86-1V51.09a12,12,0,0,0,5.57,1.68,3.39,3.39,0,0,0,2-.53,1.71,1.71,0,0,0,.76-1.49,1.65,1.65,0,0,0-.42-1.14,3.32,3.32,0,0,0-1-.77q-.63-.3-1.78-.73A20.53,20.53,0,0,1,34.08,47a4.89,4.89,0,0,1-1.68-1.5A4.2,4.2,0,0,1,31.7,43a4.27,4.27,0,0,1,1.56-3.52,6.61,6.61,0,0,1,4.27-1.26,11.33,11.33,0,0,1,2.5.28,9.52,9.52,0,0,1,2.26.8v3A9.65,9.65,0,0,0,37.61,41a3.65,3.65,0,0,0-2,.44,1.41,1.41,0,0,0-.71,1.26A1.45,1.45,0,0,0,35.68,44a12,12,0,0,0,2.27,1,22.31,22.31,0,0,1,2.64,1.15,5.29,5.29,0,0,1,1.79,1.6,4.74,4.74,0,0,1,.8,2.7,4.62,4.62,0,0,1-1.61,3.73,6.45,6.45,0,0,1-4.3,1.36A12.38,12.38,0,0,1,34.42,55.15Z" fill="#3ca2d8"/><path d="M47.45,38.51h3.17V52.43h7v2.78H47.45Z" fill="#3ca2d8"/><path d="M23.42,25.42H11a2,2,0,0,1,0-4H21.42V11a2,2,0,1,1,4,0V23.42A2,2,0,0,1,23.42,25.42Z" fill="#3ca2d8"/><path d="M83.59,108.38H54.29a2,2,0,0,1-2-2V83.62a2,2,0,0,1,2-2h29.3a2,2,0,0,1,2,2v22.77A2,2,0,0,1,83.59,108.38Zm-27.3-4h25.3V85.62H56.29Z" fill="#3ca2d8"/><path d="M61,81.62v-6.2a8,8,0,0,1,16,0v6.2h4v-6.2a12,12,0,0,0-24,0v6.2Z" fill="#3ca2d8"/></svg>