<svg xmlns="http://www.w3.org/2000/svg" viewBox="0 0 94 100.61"><title>thin-server</title><path d="M79.5,15.32H68.75a2,2,0,0,1,0-4H79.5a2,2,0,0,1,0,4Z" fill="#3ca2d8"/><path d="M79.5,46.64H68.75a2,2,0,0,1,0-4H79.5a2,2,0,0,1,0,4Z" fill="#3ca2d8"/><path d="M79.5,78H68.75a2,2,0,0,1,0-4H79.5a2,2,0,0,1,0,4Z" fill="#3ca2d8"/><path d="M11.25,18.82a2,2,0,0,1-2-2V10.07a2,2,0,1,1,4,0v6.75A2,2,0,0,1,11.25,18.82Z" fill="#3ca2d8"/><path d="M19.75,18.82a2,2,0,0,1-2-2V10.07a2,2,0,1,1,4,0v6.75A2,2,0,0,1,19.75,18.82Z" fill="#3ca2d8"/><path d="M28.25,18.82a2,2,0,0,1-2-2V10.07a2,2,0,1,1,4,0v6.75A2,2,0,0,1,28.25,18.82Z" fill="#3ca2d8"/><path d="M36.75,18.82a2,2,0,0,1-2-2V10.07a2,2,0,1,1,4,0v6.75A2,2,0,0,1,36.75,18.82Z" fill="#3ca2d8"/><path d="M11.25,50a2,2,0,0,1-2-2V41.26a2,2,0,1,1,4,0V48A2,2,0,0,1,11.25,50Z" fill="#3ca2d8"/><path d="M19.75,50a2,2,0,0,1-2-2V41.26a2,2,0,1,1,4,0V48A2,2,0,0,1,19.75,50Z" fill="#3ca2d8"/><path d="M28.25,50a2,2,0,0,1-2-2V41.26a2,2,0,1,1,4,0V48A2,2,0,0,1,28.25,50Z" fill="#3ca2d8"/><path d="M36.75,50a2,2,0,0,1-2-2V41.26a2,2,0,1,1,4,0V48A2,2,0,0,1,36.75,50Z" fill="#3ca2d8"/><path d="M11.25,81.2a2,2,0,0,1-2-2V72.45a2,2,0,1,1,4,0V79.2A2,2,0,0,1,11.25,81.2Z" fill="#3ca2d8"/><path d="M19.75,81.2a2,2,0,0,1-2-2V72.45a2,2,0,1,1,4,0V79.2A2,2,0,0,1,19.75,81.2Z" fill="#3ca2d8"/><path d="M28.25,81.2a2,2,0,0,1-2-2V72.45a2,2,0,1,1,4,0V79.2A2,2,0,0,1,28.25,81.2Z" fill="#3ca2d8"/><path d="M36.75,81.2a2,2,0,0,1-2-2V72.45a2,2,0,1,1,4,0V79.2A2,2,0,0,1,36.75,81.2Z" fill="#3ca2d8"/><rect x="79.5" y="26.65" width="4" height="4.67" fill="#3ca2d8"/><rect x="10.5" y="26.65" width="4" height="4.67" fill="#3ca2d8"/><rect x="10.5" y="57.96" width="4" height="4.67" fill="#3ca2d8"/><rect x="79.5" y="57.96" width="4" height="4.67" fill="#3ca2d8"/><path d="M92,26.65H2a2,2,0,0,1-2-2V2A2,2,0,0,1,2,0H92a2,2,0,0,1,2,2V24.65A2,2,0,0,1,92,26.65Zm-88-4H90V4H4Z" fill="#3ca2d8"/><path d="M92,89.27H2a2,2,0,0,1-2-2V64.63a2,2,0,0,1,2-2H92a2,2,0,0,1,2,2V87.27A2,2,0,0,1,92,89.27Zm-88-4H90V66.63H4Z" fill="#3ca2d8"/><path d="M92,58H2a2,2,0,0,1-2-2V33.31a2,2,0,0,1,2-2H92a2,2,0,0,1,2,2V56A2,2,0,0,1,92,58ZM4,54H90V35.31H4Z" fill="#3ca2d8"/><path d="M79.5,89.27v7.33h-65V89.27h-4v9.33a2,2,0,0,0,2,2h69a2,2,0,0,0,2-2V89.27Z" fill="#3ca2d8"/></svg>