<svg xmlns="http://www.w3.org/2000/svg" viewBox="0 0 70.05 102"><title>thin-wireless-antenna</title><path d="M12.21,61.59a2,2,0,1,0,2.61-3,31,31,0,1,1,40.26.12,2,2,0,0,0,2.59,3,35,35,0,1,0-45.46-.14Z" fill="#3ca2d8"/><path d="M48.56,50a2,2,0,0,0,2.82-.14,22.05,22.05,0,1,0-32.73,0,2,2,0,1,0,3-2.68,18.05,18.05,0,1,1,26.79,0A2,2,0,0,0,48.56,50Z" fill="#3ca2d8"/><path d="M40.25,42.95a9.5,9.5,0,1,0-10.45,0h0L7.92,99.28a2,2,0,1,0,3.73,1.45l5-12.91a2,2,0,0,0,.31,0H53.08a2,2,0,0,0,.31,0l5,12.91a2,2,0,1,0,3.73-1.45ZM35,29.53a5.5,5.5,0,1,1-5.5,5.5A5.5,5.5,0,0,1,35,29.53Zm4.38,13.91-.07,0Zm-.91.41,0,0Zm-1,.32h0Zm-5.92-.31h0Zm-.89-.4-.07,0Zm2.82.92a8.69,8.69,0,0,0,3,0l7.75,19.95H25.78ZM18.2,83.84l6-15.54a2,2,0,0,0,.33,0H45.48a2,2,0,0,0,.33,0l6,15.54Z" fill="#3ca2d8"/></svg>