<svg xmlns="http://www.w3.org/2000/svg" viewBox="0 0 115.47 93.32"><title>thin-cloud-technology</title><path d="M88.84,20.56l-.69,0a30,30,0,0,0-1.32-3.36,30.1,30.1,0,0,0-55.59,2.86,29.89,29.89,0,0,0-1.61,7.73,27.63,27.63,0,0,0-6.29-.69,23.35,23.35,0,0,0,0,46.69H33.64c9.59,0,13.79,1.8,14,12.66l-4-4a2,2,0,0,0-2.83,2.83l7.42,7.42a2,2,0,0,0,2.83,0l7.42-7.42a2,2,0,0,0-2.83-2.83l-4,4c-.34-13.86-7.18-16.69-18-16.69H23.35a19.35,19.35,0,0,1,0-38.69A22.41,22.41,0,0,1,36.18,35l.87.52a2,2,0,1,0,2-3.45l-.84-.5a36.36,36.36,0,0,0-4.66-2.47A26,26,0,0,1,59.63,4,26.22,26.22,0,0,1,83.22,18.93c.32.67.6,1.35.86,2.05a26.29,26.29,0,0,0-7.17,2.39,2,2,0,1,0,1.8,3.57,22.39,22.39,0,0,1,10.14-2.39,22.63,22.63,0,0,1,0,45.26H77c-4.22,0-9.79-1.31-10.15-12.31l4,4a2,2,0,1,0,2.83-2.83l-7.42-7.42a2,2,0,0,0-2.83,0L56,58.66a2,2,0,1,0,2.83,2.83l4-4C63.21,70.94,70.68,73.82,77,73.82H88.84a26.63,26.63,0,0,0,0-53.26Z" fill="#3ca2d8"/></svg>