<svg xmlns="http://www.w3.org/2000/svg" viewBox="0 0 70.94 97"><title>thin-ssd</title><path d="M16.06,48.9a15,15,0,0,1-2.86-1V44.84a12,12,0,0,0,5.57,1.68,3.39,3.39,0,0,0,2-.53,1.71,1.71,0,0,0,.76-1.49,1.65,1.65,0,0,0-.42-1.14,3.33,3.33,0,0,0-1-.77q-.62-.3-1.78-.73a20.49,20.49,0,0,1-2.54-1.1A4.9,4.9,0,0,1,14,39.26a4.21,4.21,0,0,1-.7-2.51,4.27,4.27,0,0,1,1.56-3.52A6.61,6.61,0,0,1,19.18,32a11.34,11.34,0,0,1,2.5.28,9.54,9.54,0,0,1,2.26.8v3a9.65,9.65,0,0,0-4.68-1.34,3.66,3.66,0,0,0-2,.44,1.41,1.41,0,0,0-.71,1.26,1.45,1.45,0,0,0,.73,1.28,11.91,11.91,0,0,0,2.27,1,22.3,22.3,0,0,1,2.64,1.15A5.29,5.29,0,0,1,24,41.47a4.74,4.74,0,0,1,.8,2.7,4.62,4.62,0,0,1-1.61,3.73,6.45,6.45,0,0,1-4.3,1.36A12.39,12.39,0,0,1,16.06,48.9Z" fill="#3ca2d8"/><path d="M31.42,48.9a15,15,0,0,1-2.86-1V44.84a12,12,0,0,0,5.57,1.68,3.39,3.39,0,0,0,2-.53,1.71,1.71,0,0,0,.76-1.49,1.65,1.65,0,0,0-.42-1.14,3.33,3.33,0,0,0-1-.77q-.62-.3-1.78-.73a20.49,20.49,0,0,1-2.54-1.1,4.9,4.9,0,0,1-1.68-1.5,4.21,4.21,0,0,1-.7-2.51,4.27,4.27,0,0,1,1.56-3.52A6.61,6.61,0,0,1,34.54,32a11.34,11.34,0,0,1,2.5.28,9.54,9.54,0,0,1,2.26.8v3a9.65,9.65,0,0,0-4.68-1.34,3.66,3.66,0,0,0-2,.44,1.41,1.41,0,0,0-.71,1.26,1.45,1.45,0,0,0,.73,1.28,11.91,11.91,0,0,0,2.27,1,22.29,22.29,0,0,1,2.64,1.15,5.29,5.29,0,0,1,1.79,1.6,4.74,4.74,0,0,1,.8,2.7,4.62,4.62,0,0,1-1.61,3.73,6.45,6.45,0,0,1-4.3,1.36A12.39,12.39,0,0,1,31.42,48.9Z" fill="#3ca2d8"/><path d="M55,33.28a6.75,6.75,0,0,1,2.81,2.9,9.63,9.63,0,0,1,1,4.43,9.63,9.63,0,0,1-1,4.43A6.74,6.74,0,0,1,55,47.95a9,9,0,0,1-4.42,1H44.45V32.26h6.17A9,9,0,0,1,55,33.28Zm-.85,11.46a6,6,0,0,0,1.28-4.13,6,6,0,0,0-1.28-4.13,4.57,4.57,0,0,0-3.56-1.42h-3V46.16h3A4.57,4.57,0,0,0,54.18,44.75Z" fill="#3ca2d8"/><circle cx="13.43" cy="13.62" r="3.24" fill="#3ca2d8"/><circle cx="57.7" cy="13.62" r="3.24" fill="#3ca2d8"/><path d="M58.7,82.27H47.25a2,2,0,0,0,0,4H58.7a2,2,0,0,0,0-4Z" fill="#3ca2d8"/><path d="M63.94,0H7A7,7,0,0,0,0,7V88.72A8.28,8.28,0,0,0,8.28,97H62.66a8.28,8.28,0,0,0,8.28-8.28V7A7,7,0,0,0,63.94,0ZM7,4H63.94a3,3,0,0,1,3,3V72.75a8.22,8.22,0,0,0-4.28-1.2H8.28A8.22,8.22,0,0,0,4,72.75V7A3,3,0,0,1,7,4ZM66.94,88.72A4.28,4.28,0,0,1,62.66,93H8.28A4.28,4.28,0,0,1,4,88.72V79.82a4.28,4.28,0,0,1,4.28-4.28H62.66a4.28,4.28,0,0,1,4.28,4.28v8.91Z" fill="#3ca2d8"/></svg>