<svg xmlns="http://www.w3.org/2000/svg" viewBox="0 0 78.31 92.15"><title>thin-database</title><path d="M39.16,24.67C19.7,24.67,0,20.43,0,12.33S19.7,0,39.16,0,78.31,4.24,78.31,12.33,58.62,24.67,39.16,24.67ZM39.16,4C16.07,4,4,9.42,4,12.33s12.07,8.33,35.16,8.33,35.16-5.42,35.16-8.33S62.24,4,39.16,4Z" fill="#3ca2d8"/><path d="M39.16,47.39C19.7,47.39,0,43.16,0,35.06V24a2,2,0,0,1,4,0v11C4,38,16.07,43.39,39.16,43.39S74.31,38,74.31,35.06V24a2,2,0,1,1,4,0v11C78.31,43.16,58.62,47.39,39.16,47.39Z" fill="#3ca2d8"/><path d="M39.16,69.77C19.7,69.77,0,65.54,0,57.44v-11a2,2,0,0,1,4,0v11c0,2.91,12.07,8.33,35.16,8.33s35.16-5.42,35.16-8.33v-11a2,2,0,0,1,4,0v11C78.31,65.54,58.62,69.77,39.16,69.77Z" fill="#3ca2d8"/><path d="M39.16,92.15C19.7,92.15,0,87.92,0,79.82v-11a2,2,0,0,1,4,0v11c0,2.91,12.07,8.33,35.16,8.33s35.16-5.42,35.16-8.33v-11a2,2,0,0,1,4,0v11C78.31,87.92,58.62,92.15,39.16,92.15Z" fill="#3ca2d8"/><circle cx="39.16" cy="34.2" r="2.9" fill="#3ca2d8"/><circle cx="27.16" cy="33.2" r="2.9" fill="#3ca2d8"/><circle cx="51.16" cy="33.2" r="2.9" fill="#3ca2d8"/><circle cx="39.16" cy="57.08" r="2.9" fill="#3ca2d8"/><circle cx="27.16" cy="56.08" r="2.9" fill="#3ca2d8"/><circle cx="51.16" cy="56.08" r="2.9" fill="#3ca2d8"/><circle cx="39.16" cy="79.46" r="2.9" fill="#3ca2d8"/><circle cx="27.16" cy="78.46" r="2.9" fill="#3ca2d8"/><circle cx="51.16" cy="78.46" r="2.9" fill="#3ca2d8"/></svg>